# This file uses centimeters as units for non-parametric coordinates.

mtllib bedSheet.mtl
g default
v 0.597486 0.201140 -5.764692
v 0.325457 0.201140 -5.675747
v 0.498694 0.398084 -5.582044
v -4.398821 0.398084 3.472509
v -4.572058 0.201140 3.378806
v -4.497612 0.201140 3.655154
v 4.497617 0.201140 -3.655151
v 4.398824 0.398084 -3.472504
v 4.572057 0.201140 -3.378804
v -0.325458 0.201140 5.675749
v -0.498690 0.398084 5.582049
v -0.597481 0.201140 5.764694
v 0.325457 -0.398084 -5.675747
v 0.597486 -0.398084 -5.764692
v -4.497612 -0.398084 3.655154
v -4.572058 -0.398084 3.378806
v 4.497617 -0.398084 -3.655151
v 4.572057 -0.398084 -3.378804
v -0.325458 -0.398084 5.675749
v -0.597481 -0.398084 5.764694
vt 0.974334 0.231012
vt 0.974047 0.239017
vt 0.842640 0.239305
vt 0.842430 0.231319
vt 0.982166 0.237282
vt 0.977035 0.213931
vt 0.986017 0.217206
vt 0.982177 0.545713
vt 0.974124 0.543971
vt 0.974334 0.551956
vt 0.842429 0.552263
vt 0.842716 0.544258
vt 0.985964 0.566024
vt 0.977456 0.569571
vt 0.834586 0.237563
vt 0.830799 0.217252
vt 0.839308 0.213704
vt 0.834598 0.545993
vt 0.839728 0.569345
vt 0.830747 0.566069
vt 0.999995 0.237340
vt 1.000000 0.545755
vt 0.816769 0.545936
vt 0.816763 0.237520
vn 0.327389 0.725571 -0.605279
vn 0.327389 0.725571 -0.605279
vn 0.327389 0.725571 -0.605279
vn 0.327389 0.725571 -0.605279
vn -0.310780 0.000000 -0.950482
vn -0.310780 0.000000 -0.950482
vn -0.310780 0.000000 -0.950482
vn -0.310780 0.000000 -0.950482
vn -0.621935 0.707130 -0.336399
vn -0.621935 0.707130 -0.336399
vn -0.621935 0.707130 -0.336399
vn -0.621935 0.707130 -0.336399
vn -0.327391 0.725567 0.605283
vn -0.327391 0.725567 0.605283
vn -0.327391 0.725567 0.605283
vn -0.327391 0.725567 0.605283
vn -0.965576 0.000000 0.260119
vn -0.965576 0.000000 0.260119
vn -0.965576 0.000000 0.260119
vn -0.965576 0.000000 0.260119
vn 0.965581 0.000000 -0.260101
vn 0.965581 0.000000 -0.260101
vn 0.965581 0.000000 -0.260101
vn 0.965581 0.000000 -0.260101
vn 0.621953 0.707109 0.336408
vn 0.621953 0.707109 0.336408
vn 0.621953 0.707109 0.336408
vn 0.621953 0.707109 0.336408
vn 0.310785 0.000000 0.950480
vn 0.310785 0.000000 0.950480
vn 0.310785 0.000000 0.950480
vn 0.310785 0.000000 0.950480
vn -0.879578 0.000000 -0.475755
vn -0.879578 0.000000 -0.475755
vn -0.879578 0.000000 -0.475755
vn -0.879578 0.000000 -0.475755
vn 0.000000 1.000000 0.000000
vn 0.000000 1.000000 0.000000
vn 0.000000 1.000000 0.000000
vn 0.000000 1.000000 0.000000
vn 0.879578 0.000000 0.475755
vn 0.879578 0.000000 0.475755
vn 0.879578 0.000000 0.475755
vn 0.879578 0.000000 0.475755
vn -0.475755 0.000000 0.879578
vn -0.475755 0.000000 0.879578
vn -0.475755 0.000000 0.879578
vn -0.475755 0.000000 0.879578
vn 0.475755 0.000000 -0.879578
vn 0.475755 0.000000 -0.879578
vn 0.475755 0.000000 -0.879578
vn 0.475755 0.000000 -0.879578
vn -0.251545 0.587299 -0.769288
vn -0.251545 0.587299 -0.769288
vn -0.251545 0.587299 -0.769288
vn -0.781513 0.587299 0.210518
vn -0.781513 0.587299 0.210518
vn -0.781513 0.587299 0.210518
vn 0.781537 0.587265 -0.210524
vn 0.781537 0.587265 -0.210524
vn 0.781537 0.587265 -0.210524
vn 0.251553 0.587265 0.769312
vn 0.251553 0.587265 0.769312
vn 0.251553 0.587265 0.769312
s off
g bedsheet
usemtl initialShadingGroup
f 1/1/1 3/2/2 8/3/3 7/4/4
f 2/5/5 1/1/6 14/6/7 13/7/8
f 3/2/9 2/5/10 5/8/11 4/9/12
f 4/9/13 6/10/14 12/11/15 11/12/16
f 6/10/17 5/8/18 16/13/19 15/14/20
f 7/4/21 9/15/22 18/16/23 17/17/24
f 9/15/25 8/3/26 11/12/27 10/18/28
f 10/18/29 12/11/30 20/19/31 19/20/32
f 2/5/33 13/21/34 16/22/35 5/8/36
f 3/2/37 4/9/38 11/12/39 8/3/40
f 9/15/41 10/18/42 19/23/43 18/24/44
f 6/10/45 15/14/46 20/19/47 12/11/48
f 7/4/49 17/17/50 14/6/51 1/1/52
f 1/1/53 2/5/54 3/2/55
f 4/9/56 5/8/57 6/10/58
f 7/4/59 8/3/60 9/15/61
f 10/18/62 11/12/63 12/11/64
