# This file uses centimeters as units for non-parametric coordinates.

mtllib shroomTopPrison.mtl
g default
v 7.393461 -2.145784 -3.254541
v 5.411904 -1.741192 -5.946344
v 2.552749 -2.219145 -7.609966
v -0.760954 -2.228979 -7.957766
v -3.955223 -1.787060 -6.929584
v -6.385786 -2.604277 -4.703221
v -7.719237 -2.995485 -1.663628
v -7.719232 -2.995485 1.663615
v -6.368059 -2.919475 4.703214
v -3.904710 -2.780900 6.920511
v -0.739923 -2.602865 7.957769
v 2.563880 -2.417010 7.609972
v 5.440813 -2.255169 5.946341
v 7.393929 -2.154067 3.254538
v 8.084116 -2.106471 0.000000
v 4.725809 2.320840 -2.167397
v 3.444885 1.902058 -3.960039
v 1.502762 2.259990 -5.067949
v -0.715990 2.466044 -5.299555
v -2.786095 2.345045 -4.614826
v -4.179336 1.963448 -3.132161
v -5.328462 2.200161 -1.107910
v -5.449862 2.238875 0.966729
v -4.843862 2.272965 2.495490
v -3.375527 2.355566 3.681829
v -1.095748 2.483814 4.662890
v 1.405418 2.497327 4.926754
v 3.428937 2.185561 3.960029
v 4.743732 2.002229 2.167397
v 5.191470 2.245579 0.000000
v -0.837539 0.027522 -7.524710
v 2.290186 0.137195 -7.195837
v 5.015781 0.197388 -5.622751
v 6.857017 0.392285 -3.077440
v 7.515013 0.341991 0.000000
v 6.872475 0.117550 3.077430
v 5.015411 0.203914 5.622744
v 2.286468 0.203262 7.195837
v -0.943109 0.021583 7.346685
v -4.056200 -0.153543 6.162647
v -6.261304 -0.277591 4.275424
v -7.437040 -0.343732 1.573089
v -7.434219 -0.346987 -1.573103
v -5.894289 -0.577416 -4.447273
v -3.822190 -0.143793 -6.552484
v -0.843128 1.708405 -6.759540
v 1.972553 1.700208 -6.464117
v 4.437600 1.459019 -5.050987
v 6.076462 1.903357 -2.764498
v 6.674076 1.742129 0.000000
v 6.102283 1.444367 2.764494
v 4.428109 1.627704 5.050987
v 1.946378 1.849123 6.434203
v -1.109361 1.702564 6.311473
v -3.978422 1.541166 5.125531
v -5.886221 1.433843 3.553436
v -6.788398 1.383091 1.385581
v -6.713355 1.316341 -1.413133
v -5.123195 0.870958 -3.995046
v -3.468621 1.498873 -5.886177
v 6.402159 -3.015789 -2.786529
v 4.711495 -2.774947 -5.091243
v 2.267109 -3.248406 -6.515635
v -0.582629 -3.033648 -6.813416
v -3.292417 -3.102129 -5.933091
v -5.398120 -3.363416 -4.026884
v -6.537268 -3.743695 -1.424398
v -6.537263 -3.743695 1.424388
v -5.380393 -3.678615 4.026877
v -3.266675 -3.559708 5.933091
v -0.561598 -3.407534 6.813420
v 2.267108 -3.248406 6.515635
v 4.730329 -3.109838 5.091240
v 6.402162 -3.015789 2.786529
v 6.993520 -2.982523 0.000000
v 2.911904 2.542462 -1.356919
v 2.098920 2.476699 -2.479209
v -0.162878 2.781275 -0.014872
v 0.888049 2.611693 -3.172831
v -0.499920 2.721193 -3.317830
v -1.820239 2.701573 -2.889151
v -2.849738 2.647515 -1.960914
v -3.421908 2.615328 -0.708487
v -3.539273 2.608725 0.480838
v -3.162417 2.629926 1.433662
v -2.224878 2.682667 2.207195
v -0.812806 2.757889 2.795365
v 0.760796 2.675922 2.964991
v 2.091591 2.464452 2.465728
v 2.921568 2.370645 1.356912
v 3.204892 2.469406 0.000000
vt 0.236572 0.117837
vt 0.415002 0.063669
vt 0.433090 0.148582
vt 0.301491 0.201153
vt 0.599809 0.062756
vt 0.578711 0.154471
vt 0.765146 0.149449
vt 0.710650 0.223716
vt 0.864956 0.309573
vt 0.800848 0.340978
vt 0.926701 0.487600
vt 0.839300 0.477826
vt 0.899081 0.674436
vt 0.806620 0.629501
vt 0.793268 0.831386
vt 0.720824 0.747976
vt 0.627855 0.926115
vt 0.606093 0.820396
vt 0.440127 0.944112
vt 0.473694 0.836453
vt 0.263638 0.885233
vt 0.327871 0.795558
vt 0.128087 0.762070
vt 0.216482 0.701815
vt 0.055364 0.596858
vt 0.154159 0.575404
vt 0.051924 0.418819
vt 0.143600 0.433109
vt 0.113250 0.251070
vt 0.200827 0.301954
vt 0.415598 0.376122
vt 0.467502 0.355768
vt 0.487827 0.489762
vt 0.523251 0.361847
vt 0.572563 0.390036
vt 0.607699 0.434006
vt 0.621470 0.487239
vt 0.610091 0.541103
vt 0.585975 0.582606
vt 0.552017 0.605648
vt 0.504591 0.610443
vt 0.446214 0.598017
vt 0.391412 0.568333
vt 0.357248 0.521859
vt 0.353180 0.466376
vt 0.375035 0.414968
vt 0.663587 0.281410
vt 0.562755 0.222850
vt 0.444696 0.207516
vt 0.340721 0.259107
vt 0.256227 0.336231
vt 0.206472 0.443123
vt 0.217946 0.560289
vt 0.274882 0.659466
vt 0.374259 0.730030
vt 0.496216 0.758412
vt 0.594853 0.745740
vt 0.672998 0.692721
vt 0.741367 0.600449
vt 0.770619 0.473157
vt 0.736538 0.368993
vt 0.622791 0.330764
vt 0.545638 0.283779
vt 0.455160 0.270669
vt 0.373472 0.309371
vt 0.308446 0.370996
vt 0.271137 0.453367
vt 0.279094 0.543325
vt 0.328530 0.619240
vt 0.413799 0.667838
vt 0.508383 0.687254
vt 0.581707 0.679340
vt 0.635463 0.642294
vt 0.681511 0.572883
vt 0.700533 0.479681
vt 0.678188 0.398701
vt 0.201260 0.073512
vt 0.401045 0.000000
vt 0.611765 0.006100
vt 0.798035 0.104668
vt 0.932620 0.275584
vt 0.982966 0.486922
vt 0.947304 0.695875
vt 0.833662 0.876472
vt 0.643906 0.980563
vt 0.431324 1.000000
vt 0.232938 0.932888
vt 0.081046 0.793492
vt 0.000029 0.608269
vt 0.000000 0.410493
vt 0.064312 0.223093
vn 0.901068 -0.160870 -0.402738
vn 0.671014 -0.098173 -0.734917
vn 0.624661 0.333342 -0.706174
vn 0.861030 0.338800 -0.379265
vn 0.312538 -0.203176 -0.927922
vn 0.278653 0.311076 -0.908617
vn -0.099680 -0.221155 -0.970131
vn -0.097092 0.293919 -0.950886
vn -0.495786 -0.139265 -0.857205
vn -0.514220 0.324463 -0.793916
vn -0.776435 -0.231515 -0.586131
vn -0.790245 0.302541 -0.532899
vn -0.947041 -0.235393 -0.218409
vn -0.937621 0.260940 -0.229732
vn -0.952264 -0.230152 0.200558
vn -0.960066 0.206018 0.189286
vn -0.782228 -0.210767 0.586256
vn -0.787017 0.234154 0.570769
vn -0.479959 -0.151938 0.864033
vn -0.491638 0.300627 0.817261
vn -0.116166 -0.127198 0.985051
vn -0.161638 0.321892 0.932877
vn 0.300375 -0.138627 0.943694
vn 0.251275 0.312712 0.916009
vn 0.665728 -0.138836 0.733165
vn 0.628615 0.317600 0.709911
vn 0.907014 -0.131290 0.400110
vn 0.859611 0.329716 0.390328
vn 0.992671 -0.120840 -0.001727
vn 0.941461 0.337092 0.004503
vn 0.090331 0.992792 -0.078769
vn 0.132821 0.981632 -0.136960
vn 0.033758 0.999430 -0.000028
vn 0.143148 0.984637 -0.099993
vn 0.015828 0.994751 -0.101091
vn -0.134354 0.987157 -0.086430
vn -0.189799 0.976702 -0.100148
vn -0.163892 0.983784 -0.072857
vn -0.147514 0.989050 0.004401
vn -0.125425 0.990612 0.054374
vn -0.099886 0.991799 0.079737
vn -0.036517 0.995623 0.086025
vn 0.085029 0.994739 0.057133
vn 0.161694 0.986538 0.024434
vn 0.138028 0.987960 0.069878
vn 0.112989 0.991347 0.066821
vn -0.101430 0.652110 -0.751309
vn 0.233277 0.698790 -0.676220
vn 0.455609 0.705356 -0.543041
vn 0.583517 0.757077 -0.293842
vn 0.676461 0.735386 0.040102
vn 0.634783 0.712795 0.298285
vn 0.488503 0.710576 0.506406
vn 0.162341 0.707771 0.687536
vn -0.181098 0.685932 0.704770
vn -0.407966 0.661221 0.629564
vn -0.655318 0.602409 0.455699
vn -0.802837 0.581053 0.133530
vn -0.747922 0.614545 -0.250892
vn -0.666307 0.587155 -0.459657
vn -0.471841 0.634085 -0.612619
vn -0.037138 0.948641 -0.314167
vn 0.166316 0.954233 -0.248554
vn 0.181272 0.956376 -0.229097
vn 0.171612 0.975804 -0.135484
vn 0.233023 0.969827 0.071669
vn 0.254891 0.958250 0.129567
vn 0.243940 0.958143 0.149850
vn 0.081101 0.963253 0.256058
vn -0.110531 0.946706 0.302539
vn -0.219356 0.933677 0.283071
vn -0.325548 0.923996 0.200625
vn -0.400108 0.915673 0.038156
vn -0.402498 0.896668 -0.184342
vn -0.423199 0.864162 -0.272262
vn -0.307399 0.910579 -0.276318
vn 0.563781 -0.773167 -0.290455
vn 0.463925 -0.733472 -0.496782
vn 0.252185 -0.762143 -0.596273
vn -0.104581 -0.763042 -0.637832
vn -0.299746 -0.739115 -0.603210
vn -0.402578 -0.796882 -0.450456
vn -0.500248 -0.852234 -0.153128
vn -0.513698 -0.849640 0.119277
vn -0.417527 -0.843562 0.337748
vn -0.240924 -0.832236 0.499339
vn -0.014253 -0.818586 0.574206
vn 0.224811 -0.804289 0.550072
vn 0.432316 -0.792219 0.430689
vn 0.573881 -0.784426 0.235239
vn 0.625287 -0.780395 -0.000850
s 1
g mushroomTopPrison
usemtl initialShadingGroup
f 1/1/1 2/2/2 33/3/3 34/4/4
f 2/2/2 3/5/5 32/6/6 33/3/3
f 3/5/5 4/7/7 31/8/8 32/6/6
f 4/7/7 5/9/9 45/10/10 31/8/8
f 5/9/9 6/11/11 44/12/12 45/10/10
f 6/11/11 7/13/13 43/14/14 44/12/12
f 7/13/13 8/15/15 42/16/16 43/14/14
f 8/15/15 9/17/17 41/18/18 42/16/16
f 9/17/17 10/19/19 40/20/20 41/18/18
f 10/19/19 11/21/21 39/22/22 40/20/20
f 11/21/21 12/23/23 38/24/24 39/22/22
f 12/23/23 13/25/25 37/26/26 38/24/24
f 13/25/25 14/27/27 36/28/28 37/26/26
f 14/27/27 15/29/29 35/30/30 36/28/28
f 15/29/29 1/1/1 34/4/4 35/30/30
f 76/31/31 77/32/32 78/33/33
f 77/32/32 79/34/34 78/33/33
f 79/34/34 80/35/35 78/33/33
f 80/35/35 81/36/36 78/33/33
f 81/36/36 82/37/37 78/33/33
f 82/37/37 83/38/38 78/33/33
f 83/38/38 84/39/39 78/33/33
f 84/39/39 85/40/40 78/33/33
f 85/40/40 86/41/41 78/33/33
f 86/41/41 87/42/42 78/33/33
f 87/42/42 88/43/43 78/33/33
f 88/43/43 89/44/44 78/33/33
f 89/44/44 90/45/45 78/33/33
f 90/45/45 91/46/46 78/33/33
f 91/46/46 76/31/31 78/33/33
f 32/6/6 31/8/8 46/47/47 47/48/48
f 33/3/3 32/6/6 47/48/48 48/49/49
f 34/4/4 33/3/3 48/49/49 49/50/50
f 35/30/30 34/4/4 49/50/50 50/51/51
f 36/28/28 35/30/30 50/51/51 51/52/52
f 37/26/26 36/28/28 51/52/52 52/53/53
f 38/24/24 37/26/26 52/53/53 53/54/54
f 39/22/22 38/24/24 53/54/54 54/55/55
f 40/20/20 39/22/22 54/55/55 55/56/56
f 41/18/18 40/20/20 55/56/56 56/57/57
f 42/16/16 41/18/18 56/57/57 57/58/58
f 43/14/14 42/16/16 57/58/58 58/59/59
f 44/12/12 43/14/14 58/59/59 59/60/60
f 45/10/10 44/12/12 59/60/60 60/61/61
f 31/8/8 45/10/10 60/61/61 46/47/47
f 47/48/48 46/47/47 19/62/62 18/63/63
f 48/49/49 47/48/48 18/63/63 17/64/64
f 49/50/50 48/49/49 17/64/64 16/65/65
f 50/51/51 49/50/50 16/65/65 30/66/66
f 51/52/52 50/51/51 30/66/66 29/67/67
f 52/53/53 51/52/52 29/67/67 28/68/68
f 53/54/54 52/53/53 28/68/68 27/69/69
f 54/55/55 53/54/54 27/69/69 26/70/70
f 55/56/56 54/55/55 26/70/70 25/71/71
f 56/57/57 55/56/56 25/71/71 24/72/72
f 57/58/58 56/57/57 24/72/72 23/73/73
f 58/59/59 57/58/58 23/73/73 22/74/74
f 59/60/60 58/59/59 22/74/74 21/75/75
f 60/61/61 59/60/60 21/75/75 20/76/76
f 46/47/47 60/61/61 20/76/76 19/62/62
f 2/2/2 1/1/1 61/77/77 62/78/78
f 3/5/5 2/2/2 62/78/78 63/79/79
f 4/7/7 3/5/5 63/79/79 64/80/80
f 5/9/9 4/7/7 64/80/80 65/81/81
f 6/11/11 5/9/9 65/81/81 66/82/82
f 7/13/13 6/11/11 66/82/82 67/83/83
f 8/15/15 7/13/13 67/83/83 68/84/84
f 9/17/17 8/15/15 68/84/84 69/85/85
f 10/19/19 9/17/17 69/85/85 70/86/86
f 11/21/21 10/19/19 70/86/86 71/87/87
f 12/23/23 11/21/21 71/87/87 72/88/88
f 13/25/25 12/23/23 72/88/88 73/89/89
f 14/27/27 13/25/25 73/89/89 74/90/90
f 15/29/29 14/27/27 74/90/90 75/91/91
f 1/1/1 15/29/29 75/91/91 61/77/77
f 16/65/65 17/64/64 77/32/32 76/31/31
f 17/64/64 18/63/63 79/34/34 77/32/32
f 18/63/63 19/62/62 80/35/35 79/34/34
f 19/62/62 20/76/76 81/36/36 80/35/35
f 20/76/76 21/75/75 82/37/37 81/36/36
f 21/75/75 22/74/74 83/38/38 82/37/37
f 22/74/74 23/73/73 84/39/39 83/38/38
f 23/73/73 24/72/72 85/40/40 84/39/39
f 24/72/72 25/71/71 86/41/41 85/40/40
f 25/71/71 26/70/70 87/42/42 86/41/41
f 26/70/70 27/69/69 88/43/43 87/42/42
f 27/69/69 28/68/68 89/44/44 88/43/43
f 28/68/68 29/67/67 90/45/45 89/44/44
f 29/67/67 30/66/66 91/46/46 90/45/45
f 30/66/66 16/65/65 76/31/31 91/46/46
