# This file uses centimeters as units for non-parametric coordinates.

mtllib crownGems.mtl
g default
v -1.183528 -0.423832 0.077000
v -1.183528 -0.305494 0.297952
v -1.308851 -0.364663 0.187476
v -1.183528 -0.528575 0.275265
v -1.183528 -0.190818 0.094367
v -1.112701 -0.161547 0.566719
v -0.998170 -0.056286 0.763254
v -1.166910 -0.081880 0.715468
v -1.055435 -0.272829 0.752775
v -1.055435 0.064929 0.571878
v -0.795853 0.056474 0.973791
v -0.592102 0.125394 1.102473
v -0.766966 0.139032 1.127938
v -0.693978 -0.072978 1.125921
v -0.693978 0.264779 0.945024
v -0.303009 0.182046 1.208250
v -0.055071 0.199393 1.240639
v -0.197411 0.249249 1.333727
v -0.179040 0.026807 1.312233
v -0.179040 0.364565 1.131336
v 0.256905 0.187416 1.218277
v 0.494234 0.149357 1.147215
v 0.415876 0.224412 1.287352
v 0.375570 0.004475 1.270535
v 0.375570 0.342232 1.089637
v 0.760144 0.071398 1.001657
v 0.934412 -0.013656 0.842849
v 0.937353 0.070010 0.999064
v 0.847278 -0.135041 1.010041
v 0.847278 0.202716 0.829144
v 1.095486 -0.140367 0.606264
v 1.168177 -0.253619 0.394809
v 1.251769 -0.179833 0.532576
v 1.131832 -0.360905 0.588325
v 1.131832 -0.023148 0.407428
v 1.188817 -0.401077 0.119486
v 1.143866 -0.517497 -0.097883
v 1.289633 -0.469898 -0.009012
v 1.166342 -0.623199 0.098590
v 1.166342 -0.285442 -0.082307
v 1.019510 -0.653113 -0.351096
v 0.866851 -0.746970 -0.526338
v 1.042577 -0.736079 -0.506003
v 0.943180 -0.863953 -0.350928
v 0.943180 -0.526196 -0.531825
v 0.624983 -0.840771 -0.701477
v 0.398356 -0.891322 -0.795861
v 0.565204 -0.919545 -0.848558
v 0.511669 -1.029959 -0.660881
v 0.511669 -0.692201 -0.841778
v 0.092431 -0.922577 -0.854219
v -0.158077 -0.918650 -0.846886
v -0.036982 -0.979750 -0.960968
v -0.032823 -1.084526 -0.762764
v -0.032823 -0.746768 -0.943661
v -0.460446 -0.880452 -0.775566
v -0.679471 -0.822914 -0.668136
v -0.630892 -0.903387 -0.818389
v -0.569958 -1.015595 -0.634062
v -0.569958 -0.677838 -0.814959
v -0.992679 -0.672413 -0.387131
v -1.107211 -0.567152 -0.190596
v -1.161419 -0.646819 -0.339345
v -1.049945 -0.783695 -0.201075
v -1.049945 -0.445937 -0.381972
vt 0.500000 0.500000
vt 0.625000 0.500000
vt 0.749949 0.500068
vt 0.500000 1.000000
vt 0.238814 0.469215
vt 0.363764 0.455054
vt 0.500000 1.000000
vt 0.499516 0.455053
vt 0.500000 0.500000
vt 0.625000 0.500000
vt 0.500000 1.000000
vt 0.749949 0.500068
vt 0.238814 0.469215
vt 0.363764 0.455054
vt 0.500000 1.000000
vt 0.499516 0.455053
vt 0.500000 0.500000
vt 0.625000 0.500000
vt 0.500000 1.000000
vt 0.749949 0.500068
vt 0.238814 0.469215
vt 0.363764 0.455054
vt 0.500000 1.000000
vt 0.499516 0.455053
vt 0.500000 0.500000
vt 0.625000 0.500000
vt 0.500000 1.000000
vt 0.749949 0.500068
vt 0.238814 0.469215
vt 0.363764 0.455054
vt 0.500000 1.000000
vt 0.499516 0.455053
vt 0.500000 0.500000
vt 0.625000 0.500000
vt 0.500000 1.000000
vt 0.749949 0.500068
vt 0.238814 0.469215
vt 0.363764 0.455054
vt 0.500000 1.000000
vt 0.499516 0.455053
vt 0.500000 0.500000
vt 0.625000 0.500000
vt 0.500000 1.000000
vt 0.749949 0.500068
vt 0.238814 0.469215
vt 0.363764 0.455054
vt 0.500000 1.000000
vt 0.499516 0.455053
vt 0.500000 0.500000
vt 0.625000 0.500000
vt 0.500000 1.000000
vt 0.749949 0.500068
vt 0.238814 0.469215
vt 0.363764 0.455054
vt 0.500000 1.000000
vt 0.499516 0.455053
vt 0.500000 0.500000
vt 0.625000 0.500000
vt 0.500000 1.000000
vt 0.749949 0.500068
vt 0.238814 0.469215
vt 0.363764 0.455054
vt 0.500000 1.000000
vt 0.499516 0.455053
vt 0.500000 0.500000
vt 0.625000 0.500000
vt 0.500000 1.000000
vt 0.749949 0.500068
vt 0.238814 0.469215
vt 0.363764 0.455054
vt 0.500000 1.000000
vt 0.499516 0.455053
vt 0.500000 0.500000
vt 0.625000 0.500000
vt 0.500000 1.000000
vt 0.749949 0.500068
vt 0.238814 0.469215
vt 0.363764 0.455054
vt 0.500000 1.000000
vt 0.499516 0.455053
vt 0.500000 0.500000
vt 0.625000 0.500000
vt 0.500000 1.000000
vt 0.749949 0.500068
vt 0.238814 0.469215
vt 0.363764 0.455054
vt 0.500000 1.000000
vt 0.499516 0.455053
vt 0.500000 0.500000
vt 0.625000 0.500000
vt 0.500000 1.000000
vt 0.749949 0.500068
vt 0.238814 0.469215
vt 0.363764 0.455054
vt 0.500000 1.000000
vt 0.499516 0.455053
vt 0.500000 0.500000
vt 0.625000 0.500000
vt 0.500000 1.000000
vt 0.749949 0.500068
vt 0.238814 0.469215
vt 0.363764 0.455054
vt 0.500000 1.000000
vt 0.499516 0.455053
vn -0.638321 -0.077884 0.765820
vn -0.638321 -0.077884 0.765820
vn -0.638321 -0.077884 0.765820
vn -0.638321 -0.680626 -0.359575
vn -0.638321 -0.680626 -0.359575
vn -0.638321 -0.680626 -0.359575
vn -0.644981 0.056801 -0.762084
vn -0.644981 0.056801 -0.762084
vn -0.644981 0.056801 -0.762084
vn -0.644981 0.665833 0.375054
vn -0.644981 0.665833 0.375054
vn -0.644981 0.665833 0.375054
vn -0.276105 0.026523 0.960762
vn -0.276105 0.026523 0.960762
vn -0.276105 0.026523 0.960762
vn -0.859461 -0.509612 -0.040273
vn -0.859461 -0.509612 -0.040273
vn -0.859461 -0.509612 -0.040272
vn -0.868430 0.229598 -0.439449
vn -0.868430 0.229598 -0.439449
vn -0.868430 0.229598 -0.439449
vn -0.278986 0.771329 0.572029
vn -0.278986 0.771329 0.572029
vn -0.278986 0.771329 0.572030
vn 0.147133 0.041250 0.988256
vn 0.147133 0.041250 0.988256
vn 0.147133 0.041250 0.988256
vn -0.890651 -0.309788 0.332824
vn -0.890651 -0.309788 0.332824
vn -0.890651 -0.309788 0.332824
vn -0.899945 0.431507 -0.062459
vn -0.899945 0.431507 -0.062459
vn -0.899945 0.431507 -0.062459
vn 0.148669 0.786208 0.599812
vn 0.148669 0.786208 0.599811
vn 0.148669 0.786208 0.599812
vn 0.537853 -0.036961 0.842228
vn 0.537853 -0.036961 0.842228
vn 0.537853 -0.036961 0.842228
vn -0.724998 -0.125318 0.677255
vn -0.724998 -0.125318 0.677255
vn -0.724998 -0.125318 0.677255
vn -0.732563 0.617903 0.285565
vn -0.732563 0.617903 0.285565
vn -0.732563 0.617903 0.285565
vn 0.543465 0.707182 0.452260
vn 0.543465 0.707182 0.452260
vn 0.543465 0.707182 0.452260
vn 0.809702 -0.190822 0.554951
vn 0.809702 -0.190821 0.554951
vn 0.809702 -0.190821 0.554951
vn -0.399112 0.003031 0.916897
vn -0.399112 0.003031 0.916897
vn -0.399112 0.003031 0.916897
vn -0.403277 0.747591 0.527708
vn -0.403277 0.747591 0.527708
vn -0.403277 0.747591 0.527708
vn 0.818151 0.551716 0.161985
vn 0.818151 0.551716 0.161985
vn 0.818151 0.551716 0.161985
vn 0.902598 -0.386328 0.189915
vn 0.902598 -0.386328 0.189915
vn 0.902598 -0.386328 0.189915
vn 0.014982 0.046890 0.998788
vn 0.014982 0.046890 0.998788
vn 0.014982 0.046890 0.998788
vn 0.015138 0.791908 0.610453
vn 0.015138 0.791908 0.610453
vn 0.015138 0.791908 0.610453
vn 0.912016 0.354169 -0.206860
vn 0.912016 0.354169 -0.206860
vn 0.912016 0.354169 -0.206860
vn 0.796010 -0.580271 -0.172201
vn 0.796010 -0.580271 -0.172201
vn 0.796010 -0.580271 -0.172201
vn 0.425764 -0.003433 0.904828
vn 0.425764 -0.003433 0.904828
vn 0.425764 -0.003433 0.904828
vn 0.430207 0.741059 0.515513
vn 0.430207 0.741059 0.515513
vn 0.430207 0.741059 0.515513
vn 0.804316 0.158202 -0.572754
vn 0.804316 0.158202 -0.572754
vn 0.804316 0.158202 -0.572754
vn 0.513496 -0.729787 -0.451367
vn 0.513496 -0.729787 -0.451367
vn 0.513496 -0.729787 -0.451367
vn 0.742448 -0.136818 0.655784
vn 0.742448 -0.136818 0.655784
vn 0.742448 -0.136818 0.655784
vn 0.750195 0.606284 0.263869
vn 0.750195 0.606284 0.263869
vn 0.750195 0.606284 0.263869
vn 0.518854 0.007125 -0.854833
vn 0.518854 0.007125 -0.854833
vn 0.518854 0.007125 -0.854833
vn 0.117493 -0.801833 -0.585884
vn 0.117493 -0.801833 -0.585884
vn 0.117493 -0.801833 -0.585884
vn 0.895043 -0.323783 0.306696
vn 0.895043 -0.323783 0.306696
vn 0.895043 -0.323783 0.306696
vn 0.904383 0.417368 -0.088861
vn 0.904383 0.417368 -0.088861
vn 0.904383 0.417368 -0.088861
vn 0.118719 -0.065671 -0.990754
vn 0.118719 -0.065671 -0.990754
vn 0.118719 -0.065671 -0.990754
vn -0.304476 -0.780483 -0.546022
vn -0.304476 -0.780483 -0.546022
vn -0.304476 -0.780483 -0.546022
vn 0.849824 -0.523007 -0.065282
vn 0.849824 -0.523007 -0.065282
vn 0.849824 -0.523007 -0.065282
vn 0.858692 0.216063 -0.464720
vn 0.858692 0.216063 -0.464720
vn 0.858692 0.216063 -0.464720
vn -0.307654 -0.044099 -0.950476
vn -0.307654 -0.044099 -0.950476
vn -0.307654 -0.044099 -0.950476
vn -0.659154 -0.670458 -0.340591
vn -0.659154 -0.670458 -0.340591
vn -0.659154 -0.670458 -0.340591
vn 0.616785 -0.690462 -0.377940
vn 0.616785 -0.690462 -0.377940
vn 0.616785 -0.690462 -0.377940
vn 0.623221 0.046862 -0.780640
vn 0.623221 0.046862 -0.780640
vn 0.623221 0.046862 -0.780640
vn -0.666032 0.067074 -0.742902
vn -0.666032 0.067074 -0.742902
vn -0.666032 0.067074 -0.742902
vn -0.868151 -0.496074 -0.014994
vn -0.868151 -0.496074 -0.014994
vn -0.868151 -0.496074 -0.014994
vn 0.247431 -0.789136 -0.562177
vn 0.247431 -0.789136 -0.562177
vn 0.247431 -0.789136 -0.562177
vn 0.250012 -0.052842 -0.966800
vn 0.250012 -0.052842 -0.966800
vn 0.250012 -0.052842 -0.966800
vn -0.877209 0.243278 -0.413907
vn -0.877209 0.243278 -0.413907
vn -0.877209 0.243278 -0.413907
vn -0.859461 -0.248897 0.446517
vn -0.859461 -0.248897 0.446517
vn -0.859461 -0.248897 0.446517
vn -0.276106 -0.785033 -0.554517
vn -0.276106 -0.785033 -0.554517
vn -0.276106 -0.785033 -0.554517
vn -0.278986 -0.048697 -0.959060
vn -0.278986 -0.048697 -0.959060
vn -0.278986 -0.048697 -0.959060
vn -0.868429 0.493035 0.052419
vn -0.868429 0.493035 0.052419
vn -0.868429 0.493035 0.052419
s off
g crownGems crown1
usemtl initialShadingGroup
f 2/1/1 3/2/2 4/4/3
f 3/2/4 1/3/5 4/4/6
f 1/5/7 3/6/8 5/7/9
f 3/6/10 2/8/11 5/7/12
f 7/9/13 8/10/14 9/11/15
f 8/10/16 6/12/17 9/11/18
f 6/13/19 8/14/20 10/15/21
f 8/14/22 7/16/23 10/15/24
f 12/17/25 13/18/26 14/19/27
f 13/18/28 11/20/29 14/19/30
f 11/21/31 13/22/32 15/23/33
f 13/22/34 12/24/35 15/23/36
f 17/25/37 18/26/38 19/27/39
f 18/26/40 16/28/41 19/27/42
f 16/29/43 18/30/44 20/31/45
f 18/30/46 17/32/47 20/31/48
f 22/33/49 23/34/50 24/35/51
f 23/34/52 21/36/53 24/35/54
f 21/37/55 23/38/56 25/39/57
f 23/38/58 22/40/59 25/39/60
f 27/41/61 28/42/62 29/43/63
f 28/42/64 26/44/65 29/43/66
f 26/45/67 28/46/68 30/47/69
f 28/46/70 27/48/71 30/47/72
f 32/49/73 33/50/74 34/51/75
f 33/50/76 31/52/77 34/51/78
f 31/53/79 33/54/80 35/55/81
f 33/54/82 32/56/83 35/55/84
f 37/57/85 38/58/86 39/59/87
f 38/58/88 36/60/89 39/59/90
f 36/61/91 38/62/92 40/63/93
f 38/62/94 37/64/95 40/63/96
f 42/65/97 43/66/98 44/67/99
f 43/66/100 41/68/101 44/67/102
f 41/69/103 43/70/104 45/71/105
f 43/70/106 42/72/107 45/71/108
f 47/73/109 48/74/110 49/75/111
f 48/74/112 46/76/113 49/75/114
f 46/77/115 48/78/116 50/79/117
f 48/78/118 47/80/119 50/79/120
f 52/81/121 53/82/122 54/83/123
f 53/82/124 51/84/125 54/83/126
f 51/85/127 53/86/128 55/87/129
f 53/86/130 52/88/131 55/87/132
f 57/89/133 58/90/134 59/91/135
f 58/90/136 56/92/137 59/91/138
f 56/93/139 58/94/140 60/95/141
f 58/94/142 57/96/143 60/95/144
f 62/97/145 63/98/146 64/99/147
f 63/98/148 61/100/149 64/99/150
f 61/101/151 63/102/152 65/103/153
f 63/102/154 62/104/155 65/103/156
