# This file uses centimeters as units for non-parametric coordinates.

mtllib FinalGem.mtl
g default
v 0.042370 -0.008382 -1.064116
v 0.042420 -0.093159 -1.062685
v -0.042444 -0.093159 -1.062685
v -0.042358 -0.008382 -1.064116
v 1.064178 -0.008382 0.042395
v 1.062747 -0.093159 0.042444
v 1.062710 -0.093159 -0.042346
v 1.064178 -0.008382 -0.042346
v -0.042358 -0.008382 1.064166
v -0.042407 -0.093159 1.062734
v 0.042457 -0.093159 1.062734
v 0.042370 -0.008382 1.064166
v -1.064153 -0.008382 -0.042346
v -1.062697 -0.093159 -0.042346
v -1.062660 -0.093159 0.042444
v -1.064153 -0.008382 0.042395
v -0.042395 -1.607024 -0.042346
v 0.042420 -1.607024 -0.042346
v 0.042420 -1.607024 0.042444
v -0.042395 -1.607024 0.042444
v 0.042420 1.599403 -0.042346
v -0.042395 1.599403 -0.042346
v -0.042395 1.599403 0.042444
v 0.042420 1.599403 0.042444
vt 0.248270 0.488434
vt 0.482214 0.963856
vt 0.257112 0.500064
vt 0.261001 0.512611
vt 0.483150 0.966297
vt 0.742888 0.500064
vt 0.738998 0.512612
vt 0.632058 0.500004
vt 0.627420 0.468639
vt 0.637197 0.469205
vt 0.514847 0.959819
vt 0.382063 0.500000
vt 0.382814 0.512542
vt 0.485976 0.962597
vt 0.494455 0.468061
vt 0.504619 0.468083
vt 0.505058 0.959252
vt 0.507061 0.500000
vt 0.504676 0.512545
vt 0.495326 0.962590
vt 0.372090 0.468059
vt 0.494889 0.959230
vt 0.485135 0.959764
vt 0.626538 0.512550
vt 0.514025 0.962598
vt 0.504673 0.962592
vt 0.373463 0.512554
vt 0.495321 0.512544
vt 0.617182 0.512550
vt 0.249721 0.481360
vt 0.362348 0.468592
vt 0.750261 0.482212
vt 0.259721 0.519410
vt 0.251689 0.500067
vt 0.373367 0.500001
vt 0.367943 0.500004
vt 0.498363 0.500000
vt 0.492938 0.500000
vt 0.623363 0.500000
vt 0.617936 0.500000
vn 0.000000 0.536365 -0.843986
vn 0.000000 0.536365 -0.843986
vn 0.000000 0.536365 -0.843986
vn 0.000000 0.536365 -0.843986
vn 0.653083 -0.383406 -0.653056
vn 0.658080 0.365835 -0.658100
vn 0.658080 0.365833 -0.658101
vn 0.653082 -0.383410 -0.653054
vn 0.000000 -0.558901 -0.829234
vn 0.000000 -0.558901 -0.829234
vn 0.000000 -0.558901 -0.829234
vn 0.000000 -0.558901 -0.829234
vn -0.658076 0.365866 -0.658087
vn -0.653100 -0.383387 -0.653050
vn -0.653096 -0.383401 -0.653046
vn -0.658079 0.365853 -0.658091
vn 0.843989 0.536361 0.000000
vn 0.843989 0.536361 0.000000
vn 0.843989 0.536361 0.000000
vn 0.843989 0.536361 0.000000
vn 0.653083 -0.383357 0.653085
vn 0.658069 0.365871 0.658091
vn 0.658066 0.365879 0.658089
vn 0.653085 -0.383349 0.653087
vn 0.829242 -0.558890 -0.000181
vn 0.829242 -0.558890 -0.000181
vn 0.829242 -0.558889 -0.000181
vn 0.829242 -0.558889 -0.000181
vn 0.000000 0.536347 0.843998
vn 0.000000 0.536347 0.843998
vn 0.000000 0.536347 0.843998
vn 0.000000 0.536347 0.843998
vn -0.653086 -0.383386 0.653065
vn -0.658084 0.365833 0.658097
vn -0.658080 0.365845 0.658094
vn -0.653090 -0.383373 0.653069
vn 0.000000 -0.558882 0.829247
vn 0.000000 -0.558882 0.829247
vn 0.000000 -0.558882 0.829247
vn 0.000000 -0.558882 0.829247
vn -0.843989 0.536361 0.000000
vn -0.843989 0.536361 0.000000
vn -0.843989 0.536361 0.000000
vn -0.843989 0.536361 0.000000
vn -0.829248 -0.558880 0.000181
vn -0.829248 -0.558880 0.000181
vn -0.829248 -0.558880 0.000181
vn -0.829248 -0.558880 0.000181
vn 0.638339 -0.430217 -0.638308
vn 0.638322 -0.430222 0.638322
vn -0.638338 -0.430207 0.638315
vn -0.638347 -0.430228 -0.638293
vn -0.644971 0.409884 -0.644987
vn -0.644976 0.409867 0.644992
vn 0.644973 0.409865 0.644996
vn 0.644968 0.409882 -0.644991
vn 0.000000 -0.016880 -0.999858
vn 0.000000 -0.016880 -0.999858
vn 0.000000 -0.016880 -0.999857
vn 0.000000 -0.016880 -0.999858
vn 0.999854 -0.017099 -0.000218
vn 0.999854 -0.017099 -0.000218
vn 0.999854 -0.017099 -0.000218
vn 0.999854 -0.017099 -0.000218
vn 0.000000 -0.016880 0.999858
vn 0.000000 -0.016880 0.999858
vn 0.000000 -0.016880 0.999857
vn 0.000000 -0.016880 0.999858
vn -0.999849 -0.017390 0.000218
vn -0.999849 -0.017390 0.000218
vn -0.999849 -0.017390 0.000218
vn -0.999849 -0.017390 0.000218
vn 0.000000 -1.000000 0.000000
vn 0.000000 -1.000000 0.000000
vn 0.000000 -1.000000 0.000000
vn 0.000000 -1.000000 0.000000
vn 0.000000 1.000000 0.000000
vn 0.000000 1.000000 0.000000
vn 0.000000 1.000000 0.000000
vn 0.000000 1.000000 0.000000
s off
g MainGem
usemtl initialShadingGroup
f 1/1/1 4/30/2 22/23/3 21/2/4
s 1
f 2/4/5 1/3/6 8/36/7 7/27/8
s off
f 3/33/9 2/4/10 18/14/11 17/5/12
s 2
f 4/6/13 3/7/14 14/24/15 13/8/16
s off
f 5/9/17 8/10/18 21/11/19 24/17/20
s 3
f 6/13/21 5/12/22 12/38/23 11/28/24
s off
f 7/27/25 6/13/26 19/20/27 18/14/28
f 9/15/29 12/16/30 24/17/31 23/22/32
s 4
f 10/19/33 9/18/34 16/40/35 15/29/36
s off
f 11/28/37 10/19/38 20/26/39 19/20/40
f 13/31/41 16/21/42 23/22/43 22/23/44
f 15/29/45 14/24/46 17/25/47 20/26/48
s 1
f 2/4/5 7/27/8 18/14/49
s 3
f 6/13/21 11/28/24 19/20/50
s 4
f 10/19/33 15/29/36 20/26/51
s 2
f 14/24/15 3/7/14 17/25/52
f 4/30/13 13/31/16 22/23/53
s 4
f 16/21/35 9/15/34 23/22/54
s 3
f 12/16/23 5/9/22 24/17/55
s 1
f 8/10/7 1/32/6 21/11/56
s off
f 1/3/57 2/4/58 3/33/59 4/34/60
f 5/35/61 6/13/62 7/27/63 8/36/64
f 9/37/65 10/19/66 11/28/67 12/38/68
f 13/39/69 14/24/70 15/29/71 16/40/72
f 17/5/73 18/14/74 19/20/75 20/26/76
f 21/2/77 22/23/78 23/22/79 24/17/80
