# This file uses meters as units for non-parametric coordinates.

mtllib wallDoor.mtl
g default
v 970.812421 1117.822010 -2032.706407
v 970.812421 1117.822010 -337.213304
v 1060.262628 1117.822010 -2032.706407
v 1060.262628 1117.822010 -337.213304
v 1060.262628 87.715442 -2032.706407
v 1060.262628 87.715442 -337.213304
v 970.812421 87.715442 -2032.706407
v 970.812421 87.715442 -337.213304
v 970.812421 1117.822010 -902.377735
v 1060.262628 1117.822010 -902.377735
v 1060.262628 87.715442 -902.377735
v 970.812421 87.715442 -902.377735
v 970.812421 1117.822010 -1467.542040
v 1060.262628 1117.822010 -1467.542040
v 1060.262628 87.715442 -1467.542040
v 970.812421 87.715442 -1467.542040
v 970.812421 772.169422 -902.377735
v 970.812421 772.169422 -1467.542040
v 970.812421 772.169422 -2032.706407
v 1060.262628 772.169422 -2032.706407
v 1060.262628 772.169422 -1467.542040
v 1060.262628 772.169422 -902.377735
v 1060.262628 772.169422 -337.213304
v 970.812421 772.169422 -337.213304
vt 0.375000 0.000000
vt 0.625000 0.000000
vt 0.625000 0.250000
vt 0.375000 0.250000
vt 0.625000 0.500000
vt 0.375000 0.500000
vt 0.625000 0.750000
vt 0.375000 0.750000
vt 0.625000 1.000000
vt 0.375000 1.000000
vt 0.875000 0.000000
vt 0.875000 0.250000
vt 0.125000 0.000000
vt 0.125000 0.250000
vt 0.541667 0.000000
vt 0.541667 1.000000
vt 0.541667 0.250000
vt 0.541667 0.500000
vt 0.541667 0.750000
vt 0.458333 0.000000
vt 0.458333 1.000000
vt 0.458333 0.250000
vt 0.458333 0.500000
vt 0.458333 0.750000
vt 0.541667 0.875000
vt 0.458333 0.875000
vt 0.250000 0.000000
vt 0.375000 0.875000
vt 0.250000 0.250000
vt 0.375000 0.375000
vt 0.458333 0.375000
vt 0.541667 0.375000
vt 0.625000 0.375000
vt 0.750000 0.250000
vt 0.625000 0.875000
vt 0.750000 0.000000
vn 0.000000 1.000000 -0.000000
vn 0.000000 1.000000 -0.000000
vn 0.000000 1.000000 -0.000000
vn 0.000000 1.000000 -0.000000
vn 1.000000 -0.000000 -0.000000
vn 1.000000 -0.000000 -0.000000
vn 1.000000 -0.000000 -0.000000
vn 1.000000 -0.000000 -0.000000
vn -0.000000 -1.000000 0.000000
vn -0.000000 -1.000000 0.000000
vn -0.000000 -1.000000 0.000000
vn -0.000000 -1.000000 0.000000
vn -1.000000 0.000000 0.000000
vn -1.000000 0.000000 0.000000
vn -1.000000 0.000000 0.000000
vn -1.000000 0.000000 0.000000
vn 0.000000 -0.000000 1.000000
vn 0.000000 -0.000000 1.000000
vn 0.000000 -0.000000 1.000000
vn 0.000000 -0.000000 1.000000
vn -0.000000 0.000000 -1.000000
vn -0.000000 0.000000 -1.000000
vn -0.000000 0.000000 -1.000000
vn -0.000000 0.000000 -1.000000
vn 0.000000 1.000000 -0.000000
vn 0.000000 1.000000 -0.000000
vn 0.000000 1.000000 -0.000000
vn 0.000000 1.000000 -0.000000
vn 1.000000 -0.000000 -0.000000
vn 1.000000 -0.000000 -0.000000
vn 1.000000 -0.000000 -0.000000
vn 1.000000 -0.000000 -0.000000
vn -0.000000 -1.000000 0.000000
vn -0.000000 -1.000000 0.000000
vn -0.000000 -1.000000 0.000000
vn -0.000000 -1.000000 0.000000
vn -1.000000 0.000000 0.000000
vn -1.000000 0.000000 0.000000
vn -1.000000 0.000000 0.000000
vn -1.000000 0.000000 0.000000
vn -1.000000 0.000000 0.000000
vn -1.000000 0.000000 0.000000
vn -1.000000 0.000000 0.000000
vn -0.000000 0.000000 -1.000000
vn -0.000000 0.000000 -1.000000
vn 1.000000 -0.000000 -0.000000
vn 1.000000 -0.000000 -0.000000
vn 1.000000 -0.000000 -0.000000
vn 1.000000 -0.000000 -0.000000
vn 0.000000 -0.000000 1.000000
vn 0.000000 -0.000000 1.000000
vn -1.000000 0.000000 0.000000
vn 0.000000 -0.000000 1.000000
vn 0.000000 -0.000000 1.000000
vn 0.000000 -0.000000 1.000000
vn 0.000000 -0.000000 1.000000
vn -0.000000 -1.000000 0.000000
vn -0.000000 -1.000000 0.000000
vn -0.000000 -1.000000 0.000000
vn -0.000000 -1.000000 0.000000
vn -0.000000 0.000000 -1.000000
vn -0.000000 0.000000 -1.000000
vn -0.000000 0.000000 -1.000000
vn -0.000000 0.000000 -1.000000
s 1
g wallDoor
usemtl initialShadingGroup
f 1/1/1 13/20/2 14/22/3 3/4/4
s 2
f 20/30/5 21/31/6 15/23/7 5/6/8
s off
f 5/6/9 15/23/10 16/24/11 7/8/12
s 3
f 7/8/13 16/24/14 18/26/15 19/28/16
s 4
f 24/36/17 8/11/18 6/12/19 23/34/20
s 5
f 7/13/21 19/27/22 20/29/23 5/14/24
s 1
f 9/15/25 2/2/26 4/3/27 10/17/28
s 2
f 11/18/29 22/32/30 23/33/31 6/5/32
s off
f 12/19/33 11/18/34 6/5/35 8/7/36
s 3
f 24/35/37 17/25/38 12/19/39 8/7/40
s 1
f 13/20/2 9/15/25 10/17/28 14/22/3
s 3
f 13/21/41 18/26/15 17/25/38 9/16/42
f 19/28/16 18/26/15 13/21/41 1/10/43
s 5
f 20/29/23 19/27/22 1/1/44 3/4/45
s 2
f 3/4/46 14/22/47 21/31/6 20/30/5
f 22/32/30 21/31/6 14/22/47 10/17/48
f 23/33/31 22/32/30 10/17/48 4/3/49
s 4
f 2/2/50 24/36/17 23/34/20 4/3/51
s 3
f 9/16/42 17/25/38 24/35/37 2/9/52
s off
f 18/26/53 16/24/54 15/23/55 21/31/56
usemtl initialShadingGroup
f 17/25/57 18/26/58 21/31/59 22/32/60
f 12/19/61 17/25/62 22/32/63 11/18/64
