# This file uses centimeters as units for non-parametric coordinates.

mtllib openBook.mtl
g default
v 0.859278 0.167759 1.346271
v 1.389083 0.167759 -0.785223
v 0.727976 0.232447 -0.949548
v 0.198171 0.232447 1.181946
v 0.268140 -0.110048 -1.063845
v -0.261665 -0.110048 1.067649
v 1.288713 0.256383 -0.810171
v 0.758907 0.256383 1.321323
v 1.037401 -0.002852 1.390546
v 1.567207 -0.002852 -0.740948
v 0.915926 0.117520 -0.902831
v 0.386121 0.117520 1.228663
v -0.916440 0.117520 0.904897
v -0.386634 0.117520 -1.226596
v -1.037915 -0.002852 -1.388479
v -1.567720 -0.002852 0.743015
v 0.394889 -0.113918 -1.032340
v 0.134403 -0.113918 -1.097087
v -0.395403 -0.113918 1.034407
v -0.134917 -0.113918 1.099153
v 1.144572 -0.188314 1.417184
v 1.674378 -0.188314 -0.714310
v 1.037401 -0.049308 1.390546
v 1.567207 -0.049308 -0.740948
v -1.567720 -0.049308 0.743015
v -1.037915 -0.049308 -1.388479
v -1.674891 -0.188314 0.716376
v -1.145085 -0.188314 -1.415118
v 0.915926 0.071064 -0.902831
v 0.386121 0.071064 1.228663
v 0.439706 -0.067942 1.241982
v 0.969512 -0.067942 -0.889512
v -0.386634 0.071064 -1.226596
v -0.916440 0.071064 0.904897
v -0.970025 -0.067942 0.891578
v -0.440220 -0.067942 -1.239916
v 0.134403 -0.113862 -1.097087
v 0.394889 -0.113862 -1.032340
v -0.395403 -0.113862 1.034407
v -0.134917 -0.113862 1.099153
v -0.134917 -0.256383 1.099153
v -0.395403 -0.256383 1.034407
v 0.394889 -0.256383 -1.032340
v 0.134403 -0.256383 -1.097087
v -0.874046 0.134713 -1.350221
v -1.415772 0.122181 0.778268
v -0.754640 0.199542 0.944858
v -0.212913 0.212074 -1.183631
v -0.280157 -0.120844 1.063331
v 0.261569 -0.108312 -1.065158
v -0.759620 0.209531 -1.321388
v -1.301346 0.196999 0.807101
vt 0.602850 0.277417
vt 0.999610 0.277384
vt 0.999620 0.406454
vt 0.602860 0.406487
vt 0.999629 0.512068
vt 0.602869 0.512101
vt 0.999612 0.301988
vt 0.602852 0.302021
vt 0.602887 0.744871
vt 0.999647 0.744936
vt 0.999627 0.868101
vt 0.602867 0.868036
vt 0.602906 0.154251
vt 0.999666 0.154105
vt 0.999712 0.277271
vt 0.602952 0.277416
vt 0.999610 0.000004
vt 0.999628 0.048491
vt 0.602867 0.048637
vt 0.602850 0.000149
vt 0.999610 0.973715
vt 0.602850 0.973650
vt 0.032305 0.033581
vt 0.032163 0.427108
vt 0.000000 0.427208
vt 0.000128 0.033624
vt 0.204356 0.458692
vt 0.601116 0.458640
vt 0.601132 0.581805
vt 0.204372 0.581857
vt 0.602791 0.032041
vt 0.602662 0.425625
vt 0.570485 0.425668
vt 0.570627 0.032141
vt 0.163571 0.026108
vt 0.167092 0.433771
vt 0.176687 0.459249
vt 0.054024 0.449310
vt 0.053189 0.011235
vt 0.173129 0.000587
vt 0.204405 0.835502
vt 0.601165 0.835450
vt 0.601182 0.958615
vt 0.204422 0.958667
vt 0.435699 0.025478
vt 0.426104 0.000000
vt 0.548766 0.009939
vt 0.439219 0.433141
vt 0.429662 0.458662
vt 0.549601 0.448014
vt 0.326876 0.446707
vt 0.275112 0.446968
vt 0.276500 0.422402
vt 0.324945 0.422342
vt 0.601146 0.684384
vt 0.601152 0.732871
vt 0.204392 0.732923
vt 0.204385 0.684436
vt 0.275915 0.012542
vt 0.327679 0.012281
vt 0.326291 0.036847
vt 0.277846 0.036907
vt 0.603113 0.537409
vt 0.999879 0.537308
vt 0.999659 0.639156
vt 0.602893 0.639256
vt 0.999615 0.744770
vt 0.602850 0.744871
vt 0.603235 0.512169
vt 1.000000 0.512069
vn 0.631466 0.759352 0.156958
vn 0.631466 0.759352 0.156958
vn 0.091742 0.995522 0.022803
vn 0.091742 0.995522 0.022803
vn -0.319323 0.944316 -0.079371
vn -0.319323 0.944316 -0.079371
vn -0.568514 0.810446 -0.141310
vn -0.568514 0.810446 -0.141310
vn 0.171335 0.984292 0.042587
vn 0.171335 0.984292 0.042587
vn -0.088854 0.995800 -0.022086
vn -0.088854 0.995800 -0.022086
vn 0.088854 0.995800 0.022086
vn 0.088854 0.995800 0.022086
vn -0.171335 0.984292 -0.042587
vn -0.171335 0.984292 -0.042587
vn -0.268056 0.961097 -0.066628
vn 0.268056 0.961097 0.066628
vn 0.268056 0.961097 0.066628
vn -0.268056 0.961097 -0.066628
vn 0.759868 0.622036 0.188873
vn 0.759868 0.622036 0.188873
vn 0.759868 0.622036 0.188873
vn 0.759868 0.622036 0.188873
vn 0.171335 0.984292 0.042587
vn 0.171335 0.984292 0.042587
vn -0.051788 0.998575 -0.012872
vn -0.051788 0.998575 -0.012872
vn -0.759868 0.622036 -0.188873
vn -0.759868 0.622036 -0.188873
vn -0.759868 0.622036 -0.188873
vn -0.759868 0.622036 -0.188873
vn 0.050038 -0.998670 0.012437
vn 0.050038 -0.998670 0.012437
vn -0.158672 -0.986543 -0.039440
vn -0.158672 -0.986543 -0.039440
vn 0.241221 0.000001 -0.970470
vn 0.241221 0.000000 -0.970470
vn 0.241221 0.000000 -0.970470
vn 0.241221 0.000001 -0.970470
vn -0.241221 0.000000 0.970470
vn -0.241221 0.000000 0.970470
vn -0.241221 0.000000 0.970470
vn -0.241221 0.000000 0.970470
vn 0.051788 0.998575 0.012872
vn 0.051788 0.998575 0.012872
vn -0.171335 0.984292 -0.042587
vn -0.171335 0.984292 -0.042587
vn -0.241221 0.000000 0.970470
vn -0.241221 0.000000 0.970470
vn -0.241221 0.000000 0.970470
vn -0.241221 0.000000 0.970470
vn 0.158672 -0.986543 0.039440
vn 0.158672 -0.986543 0.039440
vn -0.050038 -0.998670 -0.012437
vn -0.050038 -0.998670 -0.012437
vn 0.241221 0.000000 -0.970470
vn 0.241221 0.000000 -0.970470
vn 0.241221 0.000000 -0.970470
vn 0.241221 0.000000 -0.970470
vn 0.241221 0.000000 -0.970470
vn 0.241221 0.000000 -0.970470
vn 0.241221 0.000000 -0.970470
vn 0.241221 0.000000 -0.970470
vn -0.217202 0.974633 -0.053988
vn 0.217202 0.974633 0.053988
vn 0.217202 0.974633 0.053988
vn -0.217202 0.974633 -0.053988
vn -0.241221 0.000000 0.970470
vn -0.241221 0.000000 0.970470
vn -0.241221 0.000000 0.970470
vn -0.241221 0.000000 0.970470
vn -0.294311 -0.952906 -0.073154
vn -0.294311 -0.952906 -0.073154
vn 0.294311 -0.952906 0.073154
vn 0.294311 -0.952906 0.073154
vn -0.110236 0.993657 -0.022206
vn -0.111051 0.993562 -0.022414
vn 0.278472 0.957392 0.076511
vn 0.279018 0.957222 0.076649
vn 0.529900 0.836460 0.139791
vn 0.529900 0.836460 0.139791
vn -0.520108 0.844545 -0.127401
vn -0.520108 0.844545 -0.127401
vn 0.000000 -1.000000 0.000000
vn 0.000000 -1.000000 0.000000
vn 0.000000 -1.000000 0.000000
vn 0.000000 -1.000000 0.000000
s 1
g open_book3 Hall
usemtl initialShadingGroup
f 1/1/1 2/2/2 7/7/3 8/8/4
f 4/4/5 3/3/6 5/5/7 6/6/8
f 8/8/4 7/7/3 3/3/6 4/4/5
s 2
f 9/9/9 10/10/10 11/11/11 12/12/12
f 13/13/13 14/14/14 15/15/15 16/16/16
f 17/17/17 18/18/18 19/19/19 20/20/20
f 19/19/19 18/18/18 14/14/14 13/13/13
f 12/12/12 11/11/11 17/21/17 20/22/20
s off
f 21/23/21 22/24/22 24/25/23 23/26/24
s 4
f 23/27/25 24/28/26 29/29/27 30/30/28
s off
f 25/31/29 26/32/30 28/33/31 27/34/32
s 5
f 31/35/33 32/36/34 22/24/35 21/23/36
s 6
f 22/24/37 32/36/38 29/37/39 24/38/40
s 7
f 31/35/41 21/23/42 23/39/43 30/40/44
s 4
f 34/41/45 33/42/46 26/43/47 25/44/48
s 7
f 27/34/49 35/45/50 34/46/51 25/47/52
s 10
f 27/34/53 28/33/54 36/48/55 35/45/56
s 6
f 33/49/57 36/48/58 28/33/59 26/50/60
f 37/51/61 38/52/62 43/53/63 44/54/64
s 4
f 38/55/65 37/56/66 39/57/67 40/58/68
s 7
f 40/59/69 39/60/70 42/61/71 41/62/72
s 4
f 39/57/67 37/56/66 33/42/46 34/41/45
s 7
f 35/45/50 42/61/71 39/60/70 34/46/51
s 10
f 35/45/56 36/48/55 44/54/73 42/61/74
s 6
f 37/51/61 44/54/64 36/48/58 33/49/57
s 4
f 30/30/28 29/29/27 38/55/65 40/58/68
s 7
f 41/62/72 31/35/41 30/40/44 40/59/69
s 5
f 41/62/75 43/53/76 32/36/34 31/35/33
s 6
f 29/37/39 32/36/38 43/53/63 38/52/62
s 12
f 51/63/77 52/64/78 47/65/79 48/66/80
f 48/66/80 47/65/79 49/67/81 50/68/82
f 45/69/83 46/70/84 52/64/78 51/63/77
s off
f 44/54/85 43/53/86 41/62/87 42/61/88
