# This file uses centimeters as units for non-parametric coordinates.

mtllib shroomTop.mtl
g default
v 5.576445 -1.482917 -2.326123
v 4.092362 -1.400677 -4.378200
v 1.936060 -1.818280 -5.615512
v -0.564326 -1.868633 -5.886000
v -2.975824 -1.554355 -5.141997
v -4.823818 -1.954393 -3.432407
v -5.843226 -2.031789 -1.128159
v -5.854159 -1.837379 1.377313
v -4.843624 -1.602367 3.666186
v -2.990374 -1.368147 5.335849
v -0.603456 -1.173073 6.116923
v 1.893011 -1.053021 5.855026
v 4.071393 -1.027989 4.602282
v 5.555343 -1.107787 2.575734
v 6.087394 -1.263121 0.124582
v 3.591272 1.363198 -1.732046
v 2.627200 0.986539 -3.065072
v 1.167343 1.132341 -3.922073
v -0.505311 1.232082 -4.112569
v -2.071120 1.181284 -3.596736
v -3.130476 1.018516 -2.465513
v -4.002881 1.277001 -0.955875
v -4.101065 1.421631 0.604149
v -3.648384 1.536704 1.755334
v -2.543267 1.668409 2.648668
v -0.824602 1.822596 3.387425
v 1.062717 1.864501 3.592306
v 2.591169 1.627025 2.885046
v 3.588258 1.416751 1.547678
v 3.935125 1.445982 -0.095022
v -0.607313 -0.428433 -5.669870
v 1.753464 -0.317898 -5.418999
v 3.806232 -0.168598 -4.229908
v 5.189188 0.115637 -2.317685
v 5.675420 0.268640 0.003929
v 5.178648 0.303040 2.330447
v 3.769037 0.492562 4.237831
v 1.703828 0.564417 5.414962
v -0.735930 0.436011 5.528554
v -3.083319 0.234557 4.636952
v -4.742606 0.030596 3.215840
v -5.621743 -0.177256 1.180933
v -5.609295 -0.363109 -1.188039
v -4.439041 -0.664498 -3.336918
v -2.864805 -0.500582 -4.937601
v -0.601942 0.670612 -5.175460
v 1.522538 0.703009 -4.944897
v 3.376980 0.652037 -3.862309
v 4.609813 1.076159 -2.157670
v 5.050694 1.140857 -0.066477
v 4.607826 1.111489 2.028155
v 3.337824 1.348035 3.736426
v 1.461455 1.549874 4.760451
v -0.845923 1.428765 4.666801
v -3.008993 1.237568 3.773765
v -4.444764 1.064652 2.589950
v -5.119042 0.899653 0.957516
v -5.053675 0.694795 -1.146513
v -3.848010 0.276008 -3.064724
v -2.588263 0.571301 -4.514794
v 4.820324 -2.008443 -1.934096
v 3.553380 -2.004207 -3.685927
v 1.709426 -2.402026 -4.742178
v -0.439268 -2.305234 -4.984657
v -2.488228 -2.316268 -4.325840
v -4.085936 -2.383952 -2.883485
v -4.957152 -2.478633 -0.908387
v -4.966512 -2.312179 1.236800
v -4.101295 -2.110963 3.196520
v -2.511095 -1.909774 4.631933
v -0.470875 -1.743402 5.294836
v 1.666592 -1.640614 5.070599
v 3.531716 -1.619182 3.998004
v 4.802008 -1.682811 2.262516
v 5.257813 -1.820501 0.164210
v 2.220917 1.536510 -1.137485
v 1.610424 1.423829 -1.981615
v -0.102876 1.742584 -0.146930
v 0.699610 1.459260 -2.513804
v -0.346880 1.509479 -2.632115
v -1.345116 1.512711 -2.311971
v -2.125709 1.525624 -1.613180
v -2.561978 1.574493 -0.670080
v -2.654532 1.638998 0.225503
v -2.373029 1.710683 0.942996
v -1.667459 1.795715 1.525481
v -0.602901 1.887435 1.968588
v 0.583837 1.857262 2.104612
v 1.588549 1.705025 1.742586
v 2.218054 1.587371 0.914462
v 2.437103 1.572078 -0.111346
vt 0.236572 0.117837
vt 0.415002 0.063669
vt 0.433090 0.148582
vt 0.301491 0.201153
vt 0.599809 0.062756
vt 0.578711 0.154471
vt 0.765146 0.149449
vt 0.710650 0.223716
vt 0.864956 0.309573
vt 0.800848 0.340978
vt 0.926701 0.487600
vt 0.839300 0.477826
vt 0.899081 0.674436
vt 0.806620 0.629501
vt 0.793268 0.831386
vt 0.720824 0.747976
vt 0.627855 0.926115
vt 0.606093 0.820396
vt 0.440127 0.944112
vt 0.473694 0.836453
vt 0.263638 0.885233
vt 0.327871 0.795558
vt 0.128087 0.762070
vt 0.216482 0.701815
vt 0.055364 0.596858
vt 0.154159 0.575404
vt 0.051924 0.418819
vt 0.143600 0.433109
vt 0.113250 0.251070
vt 0.200827 0.301954
vt 0.415598 0.376122
vt 0.467502 0.355768
vt 0.487827 0.489762
vt 0.523251 0.361847
vt 0.572563 0.390036
vt 0.607699 0.434006
vt 0.621470 0.487239
vt 0.610091 0.541103
vt 0.585975 0.582606
vt 0.552017 0.605648
vt 0.504591 0.610443
vt 0.446214 0.598017
vt 0.391412 0.568333
vt 0.357248 0.521859
vt 0.353180 0.466376
vt 0.375035 0.414968
vt 0.663587 0.281410
vt 0.562755 0.222850
vt 0.444696 0.207516
vt 0.340721 0.259107
vt 0.256227 0.336231
vt 0.206472 0.443123
vt 0.217946 0.560289
vt 0.274882 0.659466
vt 0.374259 0.730030
vt 0.496216 0.758412
vt 0.594853 0.745740
vt 0.672998 0.692721
vt 0.741367 0.600449
vt 0.770619 0.473157
vt 0.736538 0.368993
vt 0.622791 0.330764
vt 0.545638 0.283779
vt 0.455160 0.270669
vt 0.373472 0.309371
vt 0.308446 0.370996
vt 0.271137 0.453367
vt 0.279094 0.543325
vt 0.328530 0.619240
vt 0.413799 0.667838
vt 0.508383 0.687254
vt 0.581707 0.679340
vt 0.635463 0.642294
vt 0.681511 0.572883
vt 0.700533 0.479681
vt 0.678188 0.398701
vt 0.201260 0.073512
vt 0.401045 0.000000
vt 0.611765 0.006100
vt 0.798035 0.104668
vt 0.932620 0.275584
vt 0.982966 0.486922
vt 0.947304 0.695875
vt 0.833662 0.876472
vt 0.643906 0.980563
vt 0.431324 1.000000
vt 0.232938 0.932888
vt 0.081046 0.793492
vt 0.000029 0.608269
vt 0.000000 0.410493
vt 0.064312 0.223093
vn 0.896351 -0.231428 -0.378149
vn 0.672979 -0.181066 -0.717157
vn 0.612520 0.331021 -0.717806
vn 0.843898 0.360020 -0.397772
vn 0.315645 -0.315078 -0.895039
vn 0.274102 0.293379 -0.915858
vn -0.092129 -0.335246 -0.937615
vn -0.094421 0.273967 -0.957093
vn -0.489483 -0.226899 -0.841976
vn -0.501051 0.323852 -0.802538
vn -0.765860 -0.311445 -0.562549
vn -0.771527 0.321244 -0.549134
vn -0.937235 -0.286079 -0.199374
vn -0.920317 0.298547 -0.252759
vn -0.944698 -0.247724 0.214890
vn -0.949699 0.267916 0.162151
vn -0.778168 -0.197060 0.596340
vn -0.779359 0.327599 0.534115
vn -0.480681 -0.109333 0.870053
vn -0.487371 0.418676 0.766276
vn -0.118734 -0.074525 0.990125
vn -0.165412 0.448543 0.878321
vn 0.296413 -0.095750 0.950248
vn 0.239315 0.433936 0.868578
vn 0.659978 -0.116052 0.742268
vn 0.611732 0.420783 0.669870
vn 0.900708 -0.135264 0.412831
vn 0.840235 0.408265 0.356826
vn 0.987851 -0.154718 0.014597
vn 0.922003 0.386584 -0.021533
vn 0.066654 0.987564 -0.142389
vn 0.102936 0.976252 -0.190622
vn 0.018923 0.996829 -0.077289
vn 0.111366 0.980855 -0.159754
vn 0.004384 0.986917 -0.161169
vn -0.120964 0.981411 -0.148999
vn -0.167475 0.972774 -0.160198
vn -0.145716 0.979704 -0.137650
vn -0.132190 0.988488 -0.073598
vn -0.113951 0.992968 -0.032089
vn -0.092761 0.995628 -0.010995
vn -0.039964 0.999184 -0.005789
vn 0.061663 0.997668 -0.029269
vn 0.126428 0.990408 -0.055745
vn 0.106301 0.994172 -0.017949
vn 0.085162 0.996149 -0.020845
vn -0.096623 0.663003 -0.742355
vn 0.208044 0.711209 -0.671490
vn 0.410507 0.726573 -0.550977
vn 0.519714 0.790264 -0.324624
vn 0.606598 0.794689 -0.022520
vn 0.570862 0.792715 0.213822
vn 0.435922 0.805245 0.401935
vn 0.137511 0.815041 0.562849
vn -0.174150 0.796501 0.579015
vn -0.380783 0.768966 0.513514
vn -0.611499 0.702814 0.363485
vn -0.748167 0.659893 0.069185
vn -0.691178 0.664032 -0.285191
vn -0.619946 0.623104 -0.476873
vn -0.436306 0.656375 -0.615475
vn -0.039149 0.939792 -0.339497
vn 0.132902 0.949500 -0.284231
vn 0.145427 0.952436 -0.267800
vn 0.135898 0.972485 -0.189220
vn 0.187437 0.982166 -0.014728
vn 0.206591 0.977797 0.035124
vn 0.197204 0.978971 0.052207
vn 0.058500 0.988397 0.140172
vn -0.103418 0.978211 0.180020
vn -0.195629 0.966782 0.164504
vn -0.285510 0.953624 0.095311
vn -0.348495 0.936383 -0.041702
vn -0.351488 0.907565 -0.229741
vn -0.371934 0.876774 -0.304848
vn -0.269389 0.912487 -0.307892
vn 0.506121 -0.841410 -0.189397
vn 0.423604 -0.822684 -0.379145
vn 0.234073 -0.854237 -0.464208
vn -0.083448 -0.858952 -0.505211
vn -0.260651 -0.836689 -0.481676
vn -0.348606 -0.875214 -0.335371
vn -0.430172 -0.900277 -0.066735
vn -0.443456 -0.879763 0.171360
vn -0.359935 -0.859634 0.362597
vn -0.205573 -0.838796 0.504143
vn -0.006756 -0.821769 0.569780
vn 0.203429 -0.810892 0.548699
vn 0.386291 -0.808421 0.444111
vn 0.511444 -0.814853 0.272837
vn 0.557694 -0.827427 0.065888
s 1
g shroomTop Hall
usemtl initialShadingGroup
f 1/1/1 2/2/2 33/3/3 34/4/4
f 2/2/2 3/5/5 32/6/6 33/3/3
f 3/5/5 4/7/7 31/8/8 32/6/6
f 4/7/7 5/9/9 45/10/10 31/8/8
f 5/9/9 6/11/11 44/12/12 45/10/10
f 6/11/11 7/13/13 43/14/14 44/12/12
f 7/13/13 8/15/15 42/16/16 43/14/14
f 8/15/15 9/17/17 41/18/18 42/16/16
f 9/17/17 10/19/19 40/20/20 41/18/18
f 10/19/19 11/21/21 39/22/22 40/20/20
f 11/21/21 12/23/23 38/24/24 39/22/22
f 12/23/23 13/25/25 37/26/26 38/24/24
f 13/25/25 14/27/27 36/28/28 37/26/26
f 14/27/27 15/29/29 35/30/30 36/28/28
f 15/29/29 1/1/1 34/4/4 35/30/30
f 76/31/31 77/32/32 78/33/33
f 77/32/32 79/34/34 78/33/33
f 79/34/34 80/35/35 78/33/33
f 80/35/35 81/36/36 78/33/33
f 81/36/36 82/37/37 78/33/33
f 82/37/37 83/38/38 78/33/33
f 83/38/38 84/39/39 78/33/33
f 84/39/39 85/40/40 78/33/33
f 85/40/40 86/41/41 78/33/33
f 86/41/41 87/42/42 78/33/33
f 87/42/42 88/43/43 78/33/33
f 88/43/43 89/44/44 78/33/33
f 89/44/44 90/45/45 78/33/33
f 90/45/45 91/46/46 78/33/33
f 91/46/46 76/31/31 78/33/33
f 32/6/6 31/8/8 46/47/47 47/48/48
f 33/3/3 32/6/6 47/48/48 48/49/49
f 34/4/4 33/3/3 48/49/49 49/50/50
f 35/30/30 34/4/4 49/50/50 50/51/51
f 36/28/28 35/30/30 50/51/51 51/52/52
f 37/26/26 36/28/28 51/52/52 52/53/53
f 38/24/24 37/26/26 52/53/53 53/54/54
f 39/22/22 38/24/24 53/54/54 54/55/55
f 40/20/20 39/22/22 54/55/55 55/56/56
f 41/18/18 40/20/20 55/56/56 56/57/57
f 42/16/16 41/18/18 56/57/57 57/58/58
f 43/14/14 42/16/16 57/58/58 58/59/59
f 44/12/12 43/14/14 58/59/59 59/60/60
f 45/10/10 44/12/12 59/60/60 60/61/61
f 31/8/8 45/10/10 60/61/61 46/47/47
f 47/48/48 46/47/47 19/62/62 18/63/63
f 48/49/49 47/48/48 18/63/63 17/64/64
f 49/50/50 48/49/49 17/64/64 16/65/65
f 50/51/51 49/50/50 16/65/65 30/66/66
f 51/52/52 50/51/51 30/66/66 29/67/67
f 52/53/53 51/52/52 29/67/67 28/68/68
f 53/54/54 52/53/53 28/68/68 27/69/69
f 54/55/55 53/54/54 27/69/69 26/70/70
f 55/56/56 54/55/55 26/70/70 25/71/71
f 56/57/57 55/56/56 25/71/71 24/72/72
f 57/58/58 56/57/57 24/72/72 23/73/73
f 58/59/59 57/58/58 23/73/73 22/74/74
f 59/60/60 58/59/59 22/74/74 21/75/75
f 60/61/61 59/60/60 21/75/75 20/76/76
f 46/47/47 60/61/61 20/76/76 19/62/62
f 2/2/2 1/1/1 61/77/77 62/78/78
f 3/5/5 2/2/2 62/78/78 63/79/79
f 4/7/7 3/5/5 63/79/79 64/80/80
f 5/9/9 4/7/7 64/80/80 65/81/81
f 6/11/11 5/9/9 65/81/81 66/82/82
f 7/13/13 6/11/11 66/82/82 67/83/83
f 8/15/15 7/13/13 67/83/83 68/84/84
f 9/17/17 8/15/15 68/84/84 69/85/85
f 10/19/19 9/17/17 69/85/85 70/86/86
f 11/21/21 10/19/19 70/86/86 71/87/87
f 12/23/23 11/21/21 71/87/87 72/88/88
f 13/25/25 12/23/23 72/88/88 73/89/89
f 14/27/27 13/25/25 73/89/89 74/90/90
f 15/29/29 14/27/27 74/90/90 75/91/91
f 1/1/1 15/29/29 75/91/91 61/77/77
f 16/65/65 17/64/64 77/32/32 76/31/31
f 17/64/64 18/63/63 79/34/34 77/32/32
f 18/63/63 19/62/62 80/35/35 79/34/34
f 19/62/62 20/76/76 81/36/36 80/35/35
f 20/76/76 21/75/75 82/37/37 81/36/36
f 21/75/75 22/74/74 83/38/38 82/37/37
f 22/74/74 23/73/73 84/39/39 83/38/38
f 23/73/73 24/72/72 85/40/40 84/39/39
f 24/72/72 25/71/71 86/41/41 85/40/40
f 25/71/71 26/70/70 87/42/42 86/41/41
f 26/70/70 27/69/69 88/43/43 87/42/42
f 27/69/69 28/68/68 89/44/44 88/43/43
f 28/68/68 29/67/67 90/45/45 89/44/44
f 29/67/67 30/66/66 91/46/46 90/45/45
f 30/66/66 16/65/65 76/31/31 91/46/46
