# This file uses centimeters as units for non-parametric coordinates.

mtllib stoneDoor.mtl
g default
v -2.988002 -6.151563 -0.181809
v -2.988002 -6.151563 0.181809
v -2.988002 4.336284 -0.181809
v -2.988002 4.336284 0.181809
v 2.988003 4.336284 -0.181809
v 2.988003 4.336284 0.181809
v 2.772736 -6.151563 -0.181809
v 2.988003 -6.151563 0.181809
v 1.450851 5.989225 0.181809
v 1.450851 5.989225 -0.181809
v 1.450851 -6.151563 -0.181809
v 1.450851 -6.151563 0.181809
v 0.000000 6.151564 0.181809
v 0.000000 6.151564 -0.181809
v 0.000000 -6.151563 -0.181809
v 0.000000 -6.151563 0.181809
v -1.450850 5.989225 0.181809
v -1.450850 5.989225 -0.181809
v -1.450850 -6.151563 -0.181809
v -1.450850 -6.151563 0.181809
v -2.272999 5.439082 0.181809
v -2.272999 5.439082 -0.181809
v -2.272999 -6.151563 -0.181809
v -2.272999 -6.151563 0.181809
v 2.272999 5.439082 0.181809
v 2.272999 5.439082 -0.181809
v 2.272999 -6.151563 -0.181809
v 2.272999 -6.151563 0.181809
vt 0.375000 0.000000
vt 0.625000 0.000000
vt 0.625000 0.250000
vt 0.375000 0.250000
vt 0.625000 0.281250
vt 0.375000 0.281250
vt 0.375000 0.500000
vt 0.625000 0.500000
vt 0.625000 0.750000
vt 0.375000 0.750000
vt 0.375000 0.968750
vt 0.625000 0.968750
vt 0.625000 1.000000
vt 0.375000 1.000000
vt 0.656250 0.000000
vt 0.656250 0.250000
vt 0.343750 0.000000
vt 0.343750 0.250000
vt 0.375000 0.437500
vt 0.625000 0.437500
vt 0.625000 0.468750
vt 0.375000 0.468750
vt 0.156250 0.000000
vt 0.187500 0.000000
vt 0.187500 0.250000
vt 0.156250 0.250000
vt 0.375000 0.781250
vt 0.625000 0.781250
vt 0.625000 0.812500
vt 0.375000 0.812500
vt 0.812500 0.250000
vt 0.812500 0.000000
vt 0.843750 0.000000
vt 0.843750 0.250000
vt 0.375000 0.375000
vt 0.625000 0.375000
vt 0.250000 0.000000
vt 0.250000 0.250000
vt 0.625000 0.875000
vt 0.375000 0.875000
vt 0.750000 0.250000
vt 0.750000 0.000000
vt 0.375000 0.312500
vt 0.625000 0.312500
vt 0.312500 0.000000
vt 0.312500 0.250000
vt 0.625000 0.937500
vt 0.375000 0.937500
vt 0.687500 0.250000
vt 0.687500 0.000000
vt 0.125000 0.000000
vt 0.125000 0.250000
vt 0.875000 0.000000
vt 0.875000 0.250000
vn -1.000000 0.000000 0.000000
vn -1.000000 0.000000 0.000000
vn -1.000000 0.000000 0.000000
vn -1.000000 0.000000 0.000000
vn -0.839074 0.544017 0.000000
vn -0.839074 0.544017 0.000000
vn -0.732289 0.680994 0.000000
vn -0.732289 0.680994 0.000000
vn 0.958827 -0.009840 -0.283820
vn 0.958827 -0.009840 -0.283820
vn 0.958827 -0.009840 -0.283820
vn 0.958827 -0.009840 -0.283820
vn 0.000000 -1.000000 0.000000
vn 0.000000 -1.000000 0.000000
vn 0.000000 -1.000000 0.000000
vn 0.000000 -1.000000 0.000000
vn 0.000000 0.000000 1.000000
vn 0.000000 0.000000 1.000000
vn 0.000000 0.000000 1.000000
vn 0.000000 0.000000 1.000000
vn -0.000000 0.000000 -1.000000
vn -0.000000 0.000000 -1.000000
vn -0.000000 0.000000 -1.000000
vn -0.000000 0.000000 -1.000000
vn 0.299103 0.954221 -0.000000
vn 0.299103 0.954221 -0.000000
vn 0.732287 0.680996 -0.000000
vn 0.732287 0.680996 -0.000000
vn -0.000000 -0.000000 -1.000000
vn -0.000000 0.000000 -1.000000
vn -0.000000 0.000000 -1.000000
vn -0.000000 -0.000000 -1.000000
vn 0.000000 -1.000000 0.000000
vn 0.000000 -1.000000 0.000000
vn 0.000000 -1.000000 0.000000
vn 0.000000 -1.000000 0.000000
vn 0.000000 0.000000 1.000000
vn 0.000000 0.000000 1.000000
vn 0.000000 0.000000 1.000000
vn 0.000000 0.000000 1.000000
vn 0.000000 1.000000 0.000000
vn 0.000000 1.000000 0.000000
vn -0.000000 0.000000 -1.000000
vn -0.000000 0.000000 -1.000000
vn 0.000000 -1.000000 0.000000
vn 0.000000 -1.000000 0.000000
vn 0.000000 0.000000 1.000000
vn 0.000000 0.000000 1.000000
vn -0.299103 0.954221 0.000000
vn -0.299103 0.954221 0.000000
vn -0.000000 0.000000 -1.000000
vn -0.000000 0.000000 -1.000000
vn 0.000000 -1.000000 0.000000
vn 0.000000 -1.000000 0.000000
vn 0.000000 0.000000 1.000000
vn 0.000000 0.000000 1.000000
vn 0.839071 0.544022 -0.000000
vn 0.839071 0.544022 -0.000000
vn -0.000000 -0.000000 -1.000000
vn -0.000000 -0.000000 -1.000000
vn 0.000000 -1.000000 0.000000
vn 0.000000 -1.000000 0.000000
vn 0.000000 0.000000 1.000000
vn 0.000000 0.000000 1.000000
s off
g stone_door4 Hall
usemtl initialShadingGroup
f 1/1/1 2/2/2 4/3/3 3/4/4
s 1
f 3/4/5 4/3/6 21/5/7 22/6/8
s off
f 5/7/9 6/8/10 8/9/11 7/10/12
s 2
f 23/11/13 24/12/14 2/13/15 1/14/16
s 3
f 2/2/17 24/15/18 21/16/19 4/3/20
s 4
f 23/17/21 1/1/22 3/4/23 22/18/24
s 1
f 10/19/25 9/20/26 25/21/27 26/22/28
s 4
f 27/23/29 11/24/30 10/25/31 26/26/32
s 2
f 27/27/33 28/28/34 12/29/35 11/30/36
s 3
f 9/31/37 12/32/38 28/33/39 25/34/40
s 1
f 14/35/41 13/36/42 9/20/26 10/19/25
s 4
f 11/24/30 15/37/43 14/38/44 10/25/31
s 2
f 11/30/36 12/29/35 16/39/45 15/40/46
s 3
f 13/41/47 16/42/48 12/32/38 9/31/37
s 1
f 18/43/49 17/44/50 13/36/42 14/35/41
s 4
f 15/37/43 19/45/51 18/46/52 14/38/44
s 2
f 15/40/46 16/39/45 20/47/53 19/48/54
s 3
f 17/49/55 20/50/56 16/42/48 13/41/47
s 1
f 22/6/8 21/5/7 17/44/50 18/43/49
s 4
f 19/45/51 23/17/21 22/18/24 18/46/52
s 2
f 19/48/54 20/47/53 24/12/14 23/11/13
s 3
f 21/16/19 24/15/18 20/50/56 17/49/55
s 1
f 26/22/28 25/21/27 6/8/57 5/7/58
s 4
f 7/51/59 27/23/29 26/26/32 5/52/60
s 2
f 7/10/61 8/9/62 28/28/34 27/27/33
s 3
f 25/34/40 28/33/39 8/53/63 6/54/64
