# This file uses centimeters as units for non-parametric coordinates.

mtllib vase.mtl
g default
v 0.360108 -0.967583 -0.360108
v -0.000000 -0.967583 -0.509270
v -0.000000 -0.967583 -0.000000
v -0.360108 -0.967583 -0.360108
v -0.509270 -0.967583 -0.000000
v -0.360108 -0.967583 0.360108
v -0.000000 -0.967583 0.509270
v 0.360108 -0.967583 0.360108
v 0.509270 -0.967583 -0.000000
v 0.284952 0.762918 -0.284952
v -0.000000 0.762918 -0.402983
v -0.284952 0.762918 -0.284952
v -0.402983 0.762918 -0.000000
v -0.284952 0.762918 0.284952
v -0.000000 0.762918 0.402983
v 0.284952 0.762918 0.284952
v 0.402983 0.762918 -0.000000
v 0.172626 0.804944 -0.172626
v 0.000000 0.804944 -0.244130
v -0.172626 0.804944 -0.172626
v -0.244130 0.804944 -0.000000
v -0.172626 0.804944 0.172626
v 0.000000 0.804944 0.244130
v 0.172626 0.804944 0.172626
v 0.244130 0.804944 -0.000000
v 0.000000 0.967583 -0.000000
v 0.172626 0.951321 -0.172626
v 0.160179 0.967583 -0.160179
v 0.000000 0.967583 -0.226528
v 0.000000 0.951321 -0.244130
v -0.160179 0.967583 -0.160179
v -0.172626 0.951321 -0.172626
v -0.226528 0.967583 -0.000000
v -0.244130 0.951321 -0.000000
v -0.160179 0.967583 0.160179
v -0.172626 0.951321 0.172626
v 0.000000 0.967583 0.226528
v 0.000000 0.951321 0.244130
v 0.160179 0.967583 0.160179
v 0.172626 0.951321 0.172626
v 0.226528 0.967583 -0.000000
v 0.244130 0.951321 -0.000000
v 0.415001 -0.806365 -0.415001
v -0.000000 -0.806365 -0.586900
v -0.415001 -0.806365 -0.415001
v -0.586900 -0.806365 -0.000000
v -0.415001 -0.806365 0.415001
v -0.000000 -0.806365 0.586900
v 0.415001 -0.806365 0.415001
v 0.586900 -0.806365 -0.000000
v 0.371265 0.693804 -0.371265
v -0.000000 0.693804 -0.525048
v -0.371265 0.693804 -0.371265
v -0.525048 0.693804 -0.000000
v -0.371265 0.693804 0.371265
v -0.000000 0.693804 0.525048
v 0.371265 0.693804 0.371265
v 0.525048 0.693804 -0.000000
v 0.393135 0.642777 -0.393135
v 0.415001 0.533289 -0.415001
v 0.555977 0.642777 -0.000000
v 0.586900 0.533289 -0.000000
v -0.000000 0.642777 -0.555977
v -0.000000 0.533289 -0.586900
v -0.393135 0.642777 -0.393135
v -0.415001 0.533289 -0.415001
v -0.555977 0.642777 -0.000000
v -0.586900 0.533289 -0.000000
v -0.393135 0.642777 0.393135
v -0.415001 0.533289 0.415001
v -0.000000 0.642777 0.555977
v -0.000000 0.533289 0.586900
v 0.393135 0.642777 0.393135
v 0.415001 0.533289 0.415001
vt 0.127132 0.609669
vt 0.800272 0.655410
vt 0.801089 0.617888
vt 0.828199 0.591934
vt 0.865721 0.592751
vt 0.891675 0.619861
vt 0.890858 0.657383
vt 0.863748 0.683337
vt 0.826226 0.682520
vt 0.845974 0.637636
vt 0.768677 0.669409
vt 0.824061 0.687344
vt 0.768850 0.605446
vt 0.795330 0.657291
vt 0.814201 0.560339
vt 0.796265 0.615723
vt 0.878164 0.560512
vt 0.826318 0.586992
vt 0.923270 0.605863
vt 0.867886 0.587927
vt 0.923097 0.669826
vt 0.896617 0.617981
vt 0.877746 0.714932
vt 0.895682 0.659548
vt 0.813783 0.714759
vt 0.865628 0.688279
vt 0.039900 0.045370
vt 0.165384 0.022297
vt 0.276116 0.034214
vt 0.388310 0.040595
vt 0.500957 0.042438
vt 0.613741 0.040038
vt 0.726398 0.033345
vt 0.838092 0.021562
vt 0.060559 0.000000
vt 0.692055 0.701402
vt 0.797097 0.754819
vt 0.692048 0.573888
vt 0.728551 0.685936
vt 0.782208 0.483717
vt 0.728791 0.588759
vt 0.909721 0.483710
vt 0.797674 0.520214
vt 0.999891 0.573870
vt 0.894850 0.520453
vt 0.999900 0.701382
vt 0.963395 0.589336
vt 0.909740 0.791553
vt 0.963156 0.686512
vt 0.782227 0.791562
vt 0.894274 0.755057
vt 0.000000 0.446489
vt 0.999980 0.413910
vt 0.885162 0.457456
vt 0.760641 0.469532
vt 0.124474 0.461490
vt 0.251008 0.472752
vt 0.378531 0.479311
vt 0.506367 0.480942
vt 0.633961 0.477626
vt 1.000000 0.444788
vt 0.998481 0.460893
vt 0.890042 0.472841
vt 0.001402 0.462614
vt 0.116334 0.460569
vt 0.111197 0.475893
vt 0.126424 0.477569
vt 0.242407 0.472100
vt 0.237684 0.487570
vt 0.253550 0.488744
vt 0.369762 0.479024
vt 0.365567 0.494658
vt 0.381666 0.495191
vt 0.497584 0.481036
vt 0.493960 0.496823
vt 0.510079 0.496687
vt 0.625298 0.478099
vt 0.622262 0.494017
vt 0.638217 0.493220
vt 0.752325 0.470338
vt 0.749879 0.486362
vt 0.765353 0.484977
vt 0.877820 0.458356
vt 0.875928 0.474455
vt 0.155914 0.068468
vt 0.000115 0.415607
vt 0.271107 0.081459
vt 0.123445 0.430604
vt 0.385928 0.088201
vt 0.248800 0.441946
vt 0.500670 0.090137
vt 0.375169 0.448637
vt 0.615526 0.087690
vt 0.501895 0.450442
vt 0.730751 0.080795
vt 0.628463 0.447337
vt 0.846917 0.068536
vt 0.754323 0.439451
vt 0.965373 0.046885
vt 0.878681 0.427404
vt 0.254264 0.662329
vt 0.254264 0.557009
vt 0.945156 0.000154
vt 0.179792 0.736801
vt 0.074472 0.736801
vt 0.000000 0.662329
vt 0.000000 0.557009
vt 0.074472 0.482537
vt 0.179792 0.482537
vn 0.000000 -1.000000 0.000000
vn 0.000000 -1.000000 0.000000
vn 0.000000 -1.000000 0.000000
vn 0.000000 -1.000000 0.000000
vn 0.000000 -1.000000 0.000000
vn 0.000000 -1.000000 0.000000
vn 0.000000 -1.000000 0.000000
vn 0.000000 -1.000000 0.000000
vn 0.000000 -1.000000 0.000000
vn 0.293998 0.909467 -0.293998
vn -0.000000 0.909467 -0.415776
vn 0.105351 0.961360 -0.254339
vn 0.105351 0.961360 -0.254339
vn -0.293998 0.909467 -0.293998
vn -0.105351 0.961360 -0.254339
vn -0.105351 0.961360 -0.254339
vn -0.415776 0.909467 0.000000
vn -0.254340 0.961360 -0.105351
vn -0.254340 0.961360 -0.105351
vn -0.293998 0.909467 0.293998
vn -0.254340 0.961360 0.105351
vn -0.254340 0.961360 0.105351
vn -0.000000 0.909467 0.415777
vn -0.105351 0.961360 0.254340
vn -0.105351 0.961360 0.254340
vn 0.293998 0.909467 0.293998
vn 0.105351 0.961360 0.254339
vn 0.105351 0.961360 0.254339
vn 0.415776 0.909467 -0.000000
vn 0.254340 0.961360 0.105351
vn 0.254340 0.961360 0.105351
vn 0.254340 0.961360 -0.105351
vn 0.254340 0.961360 -0.105351
vn 0.653285 0.707102 -0.270602
vn 0.653285 0.707102 -0.270602
vn 0.653285 0.707102 -0.270602
vn 0.653285 0.707102 -0.270602
vn 0.270600 0.707101 -0.653287
vn 0.270600 0.707101 -0.653287
vn 0.270600 0.707101 -0.653287
vn 0.270600 0.707101 -0.653287
vn -0.270599 0.707102 -0.653287
vn -0.270599 0.707102 -0.653287
vn -0.270599 0.707102 -0.653287
vn -0.270599 0.707102 -0.653287
vn -0.653285 0.707102 -0.270602
vn -0.653285 0.707102 -0.270602
vn -0.653285 0.707102 -0.270602
vn -0.653285 0.707102 -0.270602
vn -0.653285 0.707102 0.270602
vn -0.653285 0.707102 0.270602
vn -0.653285 0.707102 0.270602
vn -0.653285 0.707102 0.270602
vn -0.270599 0.707102 0.653287
vn -0.270599 0.707102 0.653287
vn -0.270599 0.707102 0.653287
vn -0.270599 0.707102 0.653287
vn 0.270599 0.707101 0.653287
vn 0.270599 0.707101 0.653287
vn 0.270599 0.707101 0.653287
vn 0.270599 0.707101 0.653287
vn 0.653285 0.707102 0.270602
vn 0.653285 0.707102 0.270602
vn 0.653285 0.707102 0.270602
vn 0.653285 0.707102 0.270602
vn 0.000000 1.000000 0.000000
vn 0.000000 1.000000 0.000000
vn 0.000000 1.000000 0.000000
vn 0.000000 1.000000 0.000000
vn 0.000000 1.000000 0.000000
vn 0.000000 1.000000 0.000000
vn 0.000000 1.000000 0.000000
vn 0.000000 1.000000 0.000000
vn 0.000000 1.000000 0.000000
vn 0.382684 0.000000 -0.923879
vn 0.382684 0.000000 -0.923879
vn 0.382684 0.000000 -0.923879
vn 0.382684 0.000000 -0.923879
vn -0.382684 0.000000 -0.923879
vn -0.382684 0.000000 -0.923879
vn -0.382684 0.000000 -0.923879
vn -0.382684 0.000000 -0.923879
vn -0.923879 0.000000 -0.382684
vn -0.923879 0.000000 -0.382684
vn -0.923879 0.000000 -0.382684
vn -0.923879 0.000000 -0.382684
vn -0.923879 0.000000 0.382684
vn -0.923879 0.000000 0.382684
vn -0.923879 0.000000 0.382684
vn -0.923879 0.000000 0.382684
vn -0.382684 0.000000 0.923879
vn -0.382684 0.000000 0.923879
vn -0.382684 0.000000 0.923879
vn -0.382684 0.000000 0.923879
vn 0.382684 0.000000 0.923879
vn 0.382684 0.000000 0.923879
vn 0.382684 0.000000 0.923879
vn 0.382684 0.000000 0.923879
vn 0.923879 0.000000 0.382684
vn 0.923879 0.000000 0.382684
vn 0.923879 0.000000 0.382684
vn 0.923879 0.000000 0.382684
vn 0.923879 0.000000 -0.382684
vn 0.923879 0.000000 -0.382684
vn 0.923879 0.000000 -0.382684
vn 0.923879 0.000000 -0.382684
vn 0.382368 -0.040575 -0.923119
vn 0.382368 -0.040575 -0.923119
vn 0.349645 -0.406462 -0.844119
vn 0.349645 -0.406462 -0.844119
vn 0.923119 -0.040575 -0.382368
vn 0.923119 -0.040575 -0.382368
vn 0.844119 -0.406462 -0.349646
vn 0.844119 -0.406462 -0.349646
vn -0.382368 -0.040575 -0.923119
vn -0.382368 -0.040575 -0.923119
vn -0.349645 -0.406462 -0.844119
vn -0.349645 -0.406462 -0.844119
vn -0.923119 -0.040575 -0.382368
vn -0.923119 -0.040575 -0.382368
vn -0.844119 -0.406462 -0.349646
vn -0.844119 -0.406462 -0.349646
vn -0.923119 -0.040575 0.382368
vn -0.923119 -0.040575 0.382368
vn -0.844119 -0.406462 0.349645
vn -0.844119 -0.406462 0.349645
vn -0.382368 -0.040575 0.923119
vn -0.382368 -0.040575 0.923119
vn -0.349646 -0.406462 0.844119
vn -0.349646 -0.406462 0.844119
vn 0.382368 -0.040575 0.923119
vn 0.382368 -0.040575 0.923119
vn 0.349645 -0.406462 0.844119
vn 0.349645 -0.406462 0.844119
vn 0.923119 -0.040575 0.382368
vn 0.923119 -0.040575 0.382368
vn 0.844119 -0.406462 0.349646
vn 0.844119 -0.406462 0.349646
vn 0.469828 0.747344 -0.469828
vn -0.000000 0.747344 -0.664437
vn -0.469828 0.747344 -0.469828
vn -0.664437 0.747344 0.000000
vn -0.469828 0.747344 0.469828
vn 0.000000 0.747344 0.664437
vn 0.469828 0.747344 0.469828
vn 0.664437 0.747344 -0.000000
vn 0.362288 0.322103 -0.874641
vn 0.382621 0.018043 -0.923729
vn 0.382621 0.018043 -0.923729
vn 0.362288 0.322103 -0.874641
vn 0.923729 0.018043 -0.382621
vn 0.874641 0.322103 -0.362288
vn 0.874641 0.322103 -0.362288
vn 0.923729 0.018043 -0.382621
vn 0.923729 0.018043 0.382621
vn 0.874641 0.322103 0.362288
vn 0.874641 0.322103 0.362288
vn 0.923729 0.018043 0.382621
vn -0.362288 0.322103 -0.874641
vn -0.382621 0.018043 -0.923729
vn -0.382621 0.018043 -0.923729
vn -0.362288 0.322103 -0.874641
vn -0.874641 0.322103 -0.362288
vn -0.923729 0.018043 -0.382621
vn -0.923729 0.018043 -0.382621
vn -0.874641 0.322103 -0.362288
vn -0.874641 0.322103 0.362288
vn -0.923729 0.018043 0.382621
vn -0.923729 0.018043 0.382621
vn -0.874641 0.322103 0.362288
vn -0.362288 0.322103 0.874641
vn -0.382621 0.018043 0.923729
vn -0.382621 0.018043 0.923729
vn -0.362288 0.322103 0.874641
vn 0.362288 0.322103 0.874641
vn 0.382621 0.018043 0.923729
vn 0.382621 0.018043 0.923729
vn 0.362288 0.322103 0.874641
s 1
g bottle2 Hall
usemtl initialShadingGroup
f 2/109/1 1/102/2 3/1/3
f 4/108/4 2/109/1 3/1/3
f 5/107/5 4/108/4 3/1/3
f 6/106/6 5/107/5 3/1/3
f 7/105/7 6/106/6 3/1/3
f 8/104/8 7/105/7 3/1/3
f 9/101/9 8/104/8 3/1/3
f 1/102/2 9/101/9 3/1/3
s 2
f 10/37/10 11/39/11 19/11/12 18/25/13
f 11/39/11 12/41/14 20/13/15 19/11/16
f 12/41/14 13/43/17 21/15/18 20/13/19
f 13/43/17 14/45/20 22/17/21 21/15/22
f 14/45/20 15/47/23 23/19/24 22/17/25
f 15/47/23 16/49/26 24/21/27 23/19/28
f 16/49/26 17/51/29 25/23/30 24/21/31
f 17/51/29 10/37/10 18/25/32 25/23/33
s off
f 27/12/34 28/9/35 41/8/36 42/26/37
f 28/9/38 27/12/39 30/14/40 29/2/41
f 29/2/42 30/14/43 32/16/44 31/3/45
f 31/3/46 32/16/47 34/18/48 33/4/49
f 33/4/50 34/18/51 36/20/52 35/5/53
f 35/5/54 36/20/55 38/22/56 37/6/57
f 37/6/58 38/22/59 40/24/60 39/7/61
f 39/7/62 40/24/63 42/26/64 41/8/65
s 10
f 28/9/66 29/2/67 26/10/68
f 29/2/67 31/3/69 26/10/68
f 31/3/69 33/4/70 26/10/68
f 33/4/70 35/5/71 26/10/68
f 35/5/71 37/6/72 26/10/68
f 37/6/72 39/7/73 26/10/68
f 39/7/73 41/8/74 26/10/68
f 41/8/74 28/9/66 26/10/68
s off
f 18/25/75 19/11/76 30/14/77 27/12/78
f 19/11/79 20/13/80 32/16/81 30/14/82
f 20/13/83 21/15/84 34/18/85 32/16/86
f 21/15/87 22/17/88 36/20/89 34/18/90
f 22/17/91 23/19/92 38/22/93 36/20/94
f 23/19/95 24/21/96 40/24/97 38/22/98
f 24/21/99 25/23/100 42/26/101 40/24/102
f 25/23/103 18/25/104 27/12/105 42/26/106
s 2
f 44/85/107 43/27/108 1/35/109 2/28/110
f 43/99/111 50/97/112 9/34/113 1/103/114
f 45/87/115 44/85/116 2/28/117 4/29/118
f 46/89/119 45/87/120 4/29/121 5/30/122
f 47/91/123 46/89/124 5/30/125 6/31/126
f 48/93/127 47/91/128 6/31/129 7/32/130
f 49/95/131 48/93/132 7/32/133 8/33/134
f 50/97/135 49/95/136 8/33/137 9/34/138
f 51/50/139 52/36/140 11/39/11 10/37/10
f 52/36/140 53/38/141 12/41/14 11/39/11
f 53/38/141 54/40/142 13/43/17 12/41/14
f 54/40/142 55/42/143 14/45/20 13/43/17
f 55/42/143 56/44/144 15/47/23 14/45/20
f 56/44/144 57/46/145 16/49/26 15/47/23
f 57/46/145 58/48/146 17/51/29 16/49/26
f 58/48/146 51/50/139 10/37/10 17/51/29
f 59/52/147 60/86/148 64/88/149 63/65/150
f 60/53/151 59/61/152 61/54/153 62/100/154
f 62/100/155 61/83/156 73/55/157 74/98/158
f 63/56/159 64/88/160 66/90/161 65/68/162
f 65/57/163 66/90/164 68/92/165 67/71/166
f 67/58/167 68/92/168 70/94/169 69/74/170
f 69/59/171 70/94/172 72/96/173 71/77/174
f 71/60/175 72/96/176 74/98/177 73/80/178
f 59/61/152 51/62/139 58/63/146 61/54/153
f 51/64/139 59/52/147 63/65/150 52/66/140
f 52/67/140 63/56/159 65/68/162 53/69/141
f 53/70/141 65/57/163 67/71/166 54/72/142
f 54/73/142 67/58/167 69/74/170 55/75/143
f 55/76/143 69/59/171 71/77/174 56/78/144
f 56/79/144 71/60/175 73/80/178 57/81/145
f 57/82/145 73/55/157 61/83/156 58/84/146
f 43/27/108 44/85/107 64/88/149 60/86/148
f 44/85/116 45/87/115 66/90/161 64/88/160
f 45/87/120 46/89/119 68/92/165 66/90/164
f 46/89/124 47/91/123 70/94/169 68/92/168
f 47/91/128 48/93/127 72/96/173 70/94/172
f 48/93/132 49/95/131 74/98/177 72/96/176
f 49/95/136 50/97/135 62/100/155 74/98/158
f 50/97/112 43/99/111 60/53/151 62/100/154
