# This file uses centimeters as units for non-parametric coordinates.

mtllib shroomBot5.mtl
g default
v 3.531995 -8.183668 13.068909
v 4.911435 -9.573651 12.898049
v 5.416347 -11.472395 12.835509
v 4.911435 -13.371143 12.898049
v 3.531995 -14.761123 13.068909
v 1.647649 -15.269891 13.302309
v -0.236699 -14.761123 13.535709
v -1.616136 -13.371143 13.706569
v -2.121048 -11.472395 13.769109
v -1.616136 -9.573651 13.706569
v -0.236699 -8.183668 13.535709
v 1.647649 -7.674903 13.302309
v 2.870235 -7.619494 7.726210
v 4.249675 -9.009474 7.555349
v 4.754587 -10.908223 7.492810
v 4.249675 -12.806971 7.555349
v 2.870235 -14.196951 7.726210
v 0.985890 -14.705719 7.959610
v -0.898459 -14.196951 8.193010
v -2.277896 -12.806971 8.363870
v -2.782808 -10.908223 8.426410
v -2.277896 -9.009474 8.363870
v -0.898459 -7.619494 8.193010
v 0.985890 -7.110726 7.959610
v -0.011097 8.318798 -9.137771
v 0.696860 8.318798 -10.045893
v 0.855896 8.318798 -11.186328
v 0.423422 8.318798 -12.253495
v -0.484707 8.318798 -12.961446
v -1.625142 8.318798 -13.120489
v -2.692310 8.318798 -12.688007
v -3.400261 8.318798 -11.779884
v -3.559307 8.318798 -10.639450
v -3.126822 8.318798 -9.572283
v -2.218700 8.318798 -8.864332
v -1.078265 8.318798 -8.705289
v -0.060553 11.472319 -9.203252
v 0.621284 11.472319 -10.077876
v 0.774463 11.472319 -11.176241
v 0.357932 11.472319 -12.204040
v -0.516692 11.472319 -12.885877
v -1.615055 11.472319 -13.039053
v -2.642854 11.472319 -12.622526
v -3.324694 11.472319 -11.747901
v -3.477870 11.472319 -10.649537
v -3.061342 11.472319 -9.621737
v -2.186716 11.472319 -8.939900
v -1.088352 11.472319 -8.786724
v 3.544147 -7.949421 3.258062
v 4.015764 -9.731314 3.143166
v 3.530368 -11.513180 3.146813
v 2.218005 -12.817579 3.268021
v 0.430330 -13.295022 3.474311
v -1.353653 -12.817579 3.710415
v -2.655925 -11.513180 3.913062
v -3.127548 -9.731314 4.027954
v -2.642145 -7.949421 4.024311
v -1.329786 -6.644968 3.903104
v 0.457889 -6.167503 3.696810
v 2.241872 -6.644968 3.460709
v 2.872534 -6.398314 -0.765362
v 3.288901 -7.993399 -1.109971
v 2.801038 -9.590157 -1.342580
v 1.539675 -10.760222 -1.400863
v -0.157213 -11.188755 -1.269200
v -1.834943 -10.760222 -0.982874
v -3.043972 -9.590157 -0.618603
v -3.460335 -7.993399 -0.273994
v -2.972476 -6.398314 -0.041385
v -1.711109 -5.231604 0.016897
v -0.014222 -4.804752 -0.114764
v 1.663509 -5.231604 -0.401091
v 2.265568 -4.527864 -4.266880
v 2.610323 -5.879351 -4.973274
v 2.103640 -7.239164 -5.574201
v 0.881298 -8.240805 -5.908651
v -0.729186 -8.605988 -5.887007
v -2.296284 -8.240805 -5.515069
v -3.400084 -7.239164 -4.892496
v -3.744837 -5.879351 -4.186108
v -3.238156 -4.527864 -3.585176
v -2.015817 -3.545917 -3.250725
v -0.405330 -3.191679 -3.272370
v 1.161765 -3.545917 -3.644308
v 1.755822 -2.358138 -6.983499
v 2.025766 -3.368352 -8.077451
v 1.497076 -4.404996 -9.072480
v 0.311420 -5.163869 -9.701970
v -1.213518 -5.441638 -9.797252
v -2.669122 -5.163869 -9.332793
v -3.665366 -4.404996 -8.433047
v -3.935311 -3.368352 -7.339097
v -3.406620 -2.358138 -6.344066
v -2.220961 -1.639985 -5.714578
v -0.696026 -1.387514 -5.619296
v 0.759581 -1.639985 -6.083755
v 1.356888 0.321146 -8.805484
v 1.571483 -0.183601 -10.129924
v 1.040234 -0.688347 -11.361982
v -0.094500 -1.057847 -12.171530
v -1.528673 -1.193095 -12.341650
v -2.877999 -1.057847 -11.826759
v -3.780927 -0.688347 -10.764821
v -3.995518 -0.183601 -9.440382
v -3.464273 0.321146 -8.208323
v -2.329539 0.690645 -7.398776
v -0.895366 0.825891 -7.228658
v 0.453960 0.690645 -7.743547
v 1.051611 3.884375 -9.747870
v 1.240124 3.773030 -11.066567
v 0.739211 3.661993 -12.302167
v -0.318089 3.580920 -13.122461
v -1.648139 3.551293 -13.306156
v -2.893181 3.580920 -12.803504
v -3.718392 3.661993 -11.750037
v -3.902703 3.773030 -10.429564
v -3.398139 3.884375 -9.196713
v -2.341406 3.966068 -8.380943
v -1.015558 3.996004 -8.199023
v 0.225835 3.966068 -8.698928
vt 0.333357 0.036866
vt 0.379024 0.029671
vt 0.384123 0.167527
vt 0.336387 0.176124
vt 0.425577 0.020283
vt 0.431491 0.156271
vt 0.473248 0.011062
vt 0.479026 0.145491
vt 0.521931 0.003980
vt 0.527280 0.137822
vt 0.571123 0.000000
vt 0.000000 0.135140
vt 0.054436 0.004090
vt 0.049154 0.137934
vt 0.103123 0.011148
vt 0.097412 0.145578
vt 0.150799 0.020346
vt 0.144954 0.156335
vt 0.197357 0.029712
vt 0.192328 0.167568
vt 0.243028 0.036886
vt 0.240071 0.176144
vt 0.288193 0.039891
vt 0.288230 0.179330
vt 0.315754 0.893225
vt 0.343785 0.897038
vt 0.336152 0.977185
vt 0.311323 0.974163
vt 0.371781 0.902743
vt 0.361355 0.981706
vt 0.399782 0.909654
vt 0.387059 0.987314
vt 0.427801 0.917146
vt 0.413347 0.993560
vt 0.455781 0.924809
vt 0.133758 0.997333
vt 0.147213 0.915371
vt 0.160568 0.991170
vt 0.175337 0.908140
vt 0.186714 0.985257
vt 0.203434 0.901545
vt 0.212274 0.980057
vt 0.231499 0.896209
vt 0.237351 0.976029
vt 0.259554 0.892798
vt 0.262097 0.973567
vt 0.287654 0.891844
vt 0.286700 0.972926
vt 0.355491 0.782075
vt 0.388637 0.790356
vt 0.421450 0.799657
vt 0.454152 0.809074
vt 0.089336 0.816793
vt 0.122020 0.807803
vt 0.154781 0.798532
vt 0.187654 0.789376
vt 0.220861 0.781202
vt 0.254156 0.775604
vt 0.287960 0.773654
vt 0.321868 0.776095
vt 0.426450 0.270461
vt 0.381172 0.283511
vt 0.471963 0.258611
vt 0.518476 0.251184
vt 0.010881 0.250507
vt 0.058018 0.251285
vt 0.104536 0.258686
vt 0.150060 0.270512
vt 0.195351 0.283540
vt 0.241393 0.293806
vt 0.288270 0.297700
vt 0.335142 0.293793
vt 0.418277 0.386801
vt 0.376276 0.397675
vt 0.460541 0.377426
vt 0.504202 0.372052
vt 0.027862 0.372217
vt 0.072359 0.372122
vt 0.116029 0.377466
vt 0.158310 0.386817
vt 0.200335 0.397672
vt 0.243636 0.406586
vt 0.288322 0.410094
vt 0.332998 0.406595
vt 0.412795 0.497866
vt 0.372795 0.503813
vt 0.452867 0.493250
vt 0.494012 0.491135
vt 0.040849 0.492024
vt 0.082605 0.491122
vt 0.123770 0.493211
vt 0.163879 0.497802
vt 0.203942 0.503730
vt 0.245377 0.508946
vt 0.288388 0.511011
vt 0.331390 0.508997
vt 0.410029 0.597612
vt 0.371023 0.597606
vt 0.448718 0.598242
vt 0.487468 0.600221
vt 0.049953 0.603268
vt 0.089040 0.600044
vt 0.127734 0.598106
vt 0.167038 0.597264
vt 0.205907 0.597428
vt 0.246277 0.597598
vt 0.288444 0.597439
vt 0.330615 0.597684
vt 0.402683 0.690857
vt 0.365842 0.684737
vt 0.438748 0.697777
vt 0.474706 0.704905
vt 0.065982 0.711224
vt 0.102024 0.704278
vt 0.138049 0.697266
vt 0.173463 0.690356
vt 0.210439 0.684606
vt 0.249092 0.680169
vt 0.288472 0.678563
vt 0.327677 0.680305
vt 0.486790 0.818182
vt 0.119124 0.922835
vt 0.510714 0.711868
vt 0.526588 0.603456
vt 0.535760 0.491991
vt 0.548697 0.372115
vt 0.565612 0.250379
vt 0.576433 0.135003
vt 0.440284 1.000000
vt 0.005242 0.000134
vn 0.512482 0.858268 0.027154
vn 0.871830 0.486527 -0.056611
vn 0.869717 0.491733 -0.042326
vn 0.511978 0.856279 0.068301
vn 0.992046 -0.017200 -0.124693
vn 0.989112 -0.009967 -0.146830
vn 0.844081 -0.512213 -0.158638
vn 0.836307 -0.504582 -0.214449
vn 0.475508 -0.866755 -0.150424
vn 0.463718 -0.855994 -0.228560
vn -0.012812 -0.994554 -0.103435
vn -0.023471 -0.981601 -0.189496
vn -0.497839 -0.866755 -0.029863
vn -0.505469 -0.855994 -0.108514
vn -0.857277 -0.512212 0.052096
vn -0.863355 -0.504581 -0.003925
vn -0.992489 -0.017200 0.121116
vn -0.995044 -0.009967 0.098933
vn -0.859295 0.486526 0.157810
vn -0.853760 0.491733 0.171148
vn -0.490370 0.858268 0.151369
vn -0.479842 0.856279 0.191150
vn 0.012812 0.994554 0.103435
vn 0.019017 0.987960 0.153535
vn 0.603188 0.078815 0.793696
vn 0.920813 0.070811 0.383522
vn 0.920607 0.026013 0.389623
vn 0.602459 0.026013 0.797726
vn 0.989744 0.059286 -0.129966
vn 0.992080 0.026013 -0.122881
vn 0.792896 0.047148 -0.607530
vn 0.797725 0.026013 -0.602460
vn 0.385538 0.037918 -0.921913
vn 0.389622 0.026013 -0.920608
vn -0.122850 0.034474 -0.991826
vn -0.122881 0.026012 -0.992080
vn -0.598816 0.037918 -0.799989
vn -0.602458 0.026012 -0.797727
vn -0.917161 0.047149 -0.395719
vn -0.920607 0.026012 -0.389624
vn -0.991543 0.059286 0.115442
vn -0.992080 0.026012 0.122881
vn -0.799413 0.070810 0.596595
vn -0.797725 0.026012 0.602460
vn -0.391312 0.078815 0.916877
vn -0.389620 0.026012 0.920608
vn 0.122513 0.081646 0.989103
vn 0.122881 0.026012 0.992080
vn 0.923691 0.132933 0.359337
vn 0.986246 0.060470 -0.153824
vn 0.782578 -0.013777 -0.622400
vn 0.376409 -0.068304 -0.923932
vn -0.122444 -0.088168 -0.988551
vn -0.590456 -0.068304 -0.804174
vn -0.910783 -0.013777 -0.412656
vn -0.993972 0.060470 0.091454
vn -0.808105 0.132933 0.573843
vn -0.399121 0.183789 0.898289
vn 0.120395 0.201766 0.972006
vn 0.606225 0.183789 0.773765
vn 0.984642 -0.010127 -0.174290
vn 0.872277 0.488969 0.006538
vn 0.810510 -0.495940 -0.311635
vn 0.428733 -0.824338 -0.369667
vn -0.042973 -0.936903 -0.346938
vn -0.505969 -0.824338 -0.253893
vn -0.862050 -0.495941 -0.104468
vn -0.997410 -0.010127 0.071212
vn -0.844321 0.488969 0.219160
vn -0.458479 0.839794 0.290763
vn 0.033653 0.961794 0.271699
vn 0.515565 0.839794 0.170115
vn 0.984519 -0.006846 -0.175142
vn 0.875937 0.477813 0.066552
vn 0.798780 -0.478572 -0.364581
vn 0.411479 -0.791192 -0.452437
vn -0.054450 -0.896543 -0.439597
vn -0.509431 -0.791193 -0.338371
vn -0.863592 -0.478572 -0.158676
vn -0.997498 -0.006846 0.070355
vn -0.833229 0.477812 0.278253
vn -0.438146 0.809026 0.391797
vn 0.048009 0.920575 0.387603
vn 0.520497 0.809026 0.273058
vn 0.983712 -0.003817 -0.179711
vn 0.887119 0.443542 0.127632
vn 0.791165 -0.439281 -0.425547
vn 0.401010 -0.732577 -0.550020
vn -0.068059 -0.832734 -0.549474
vn -0.523087 -0.732577 -0.435559
vn -0.871082 -0.439280 -0.219656
vn -0.997830 -0.003817 0.065727
vn -0.829171 0.443541 0.340215
vn -0.426456 0.750155 0.505374
vn 0.064270 0.852427 0.518881
vn 0.536870 0.750155 0.386055
vn 0.981968 0.004448 -0.188997
vn 0.907341 0.365204 0.208226
vn 0.779589 -0.342832 -0.524126
vn 0.384627 -0.581103 -0.717204
vn -0.091891 -0.664210 -0.741877
vn -0.547988 -0.581103 -0.601688
vn -0.883907 -0.342832 -0.318081
vn -0.998404 0.004448 0.056297
vn -0.829117 0.365203 0.423309
vn -0.420918 0.621521 0.660712
vn 0.086652 0.709281 0.699580
vn 0.569400 0.621521 0.538048
vn 0.982919 0.027312 -0.182003
vn 0.923831 0.237712 0.300049
vn 0.774411 -0.176975 -0.607426
vn 0.372411 -0.320039 -0.871140
vn -0.114163 -0.370734 -0.921696
vn -0.573699 -0.320039 -0.753953
vn -0.899209 -0.176976 -0.400128
vn -0.997620 0.027313 0.063314
vn -0.822705 0.237712 0.516381
vn -0.412946 0.389858 0.823096
vn 0.110174 0.443480 0.889487
vn 0.601287 0.389858 0.697470
s 1
g shroomBot5
usemtl initialShadingGroup
f 1/1/1 2/2/2 14/3/3 13/4/4
f 2/2/2 3/5/5 15/6/6 14/3/3
f 3/5/5 4/7/7 16/8/8 15/6/6
f 4/7/7 5/9/9 17/10/10 16/8/8
f 5/9/9 6/11/11 18/128/12 17/10/10
f 6/130/11 7/13/13 19/14/14 18/12/12
f 7/13/13 8/15/15 20/16/16 19/14/14
f 8/15/15 9/17/17 21/18/18 20/16/16
f 9/17/17 10/19/19 22/20/20 21/18/18
f 10/19/19 11/21/21 23/22/22 22/20/20
f 11/21/21 12/23/23 24/24/24 23/22/22
f 12/23/23 1/1/1 13/4/4 24/24/24
f 25/25/25 26/26/26 38/27/27 37/28/28
f 26/26/26 27/29/29 39/30/30 38/27/27
f 27/29/29 28/31/31 40/32/32 39/30/30
f 28/31/31 29/33/33 41/34/34 40/32/32
f 29/33/33 30/35/35 42/129/36 41/34/34
f 30/122/35 31/37/37 43/38/38 42/36/36
f 31/37/37 32/39/39 44/40/40 43/38/38
f 32/39/39 33/41/41 45/42/42 44/40/40
f 33/41/41 34/43/43 46/44/44 45/42/42
f 34/43/43 35/45/45 47/46/46 46/44/44
f 35/45/45 36/47/47 48/48/48 47/46/46
f 36/47/47 25/25/25 37/28/28 48/48/48
f 109/49/49 110/50/50 27/29/29 26/26/26
f 110/50/50 111/51/51 28/31/31 27/29/29
f 111/51/51 112/52/52 29/33/33 28/31/31
f 112/52/52 113/121/53 30/35/35 29/33/33
f 113/53/53 114/54/54 31/37/37 30/122/35
f 114/54/54 115/55/55 32/39/39 31/37/37
f 115/55/55 116/56/56 33/41/41 32/39/39
f 116/56/56 117/57/57 34/43/43 33/41/41
f 117/57/57 118/58/58 35/45/45 34/43/43
f 118/58/58 119/59/59 36/47/47 35/45/45
f 119/59/59 120/60/60 25/25/25 36/47/47
f 120/60/60 109/49/49 26/26/26 25/25/25
f 14/3/3 15/6/6 50/61/61 49/62/62
f 15/6/6 16/8/8 51/63/63 50/61/61
f 16/8/8 17/10/10 52/64/64 51/63/63
f 17/10/10 18/128/12 53/127/65 52/64/64
f 18/12/12 19/14/14 54/66/66 53/65/65
f 19/14/14 20/16/16 55/67/67 54/66/66
f 20/16/16 21/18/18 56/68/68 55/67/67
f 21/18/18 22/20/20 57/69/69 56/68/68
f 22/20/20 23/22/22 58/70/70 57/69/69
f 23/22/22 24/24/24 59/71/71 58/70/70
f 24/24/24 13/4/4 60/72/72 59/71/71
f 13/4/4 14/3/3 49/62/62 60/72/72
f 49/62/62 50/61/61 62/73/73 61/74/74
f 50/61/61 51/63/63 63/75/75 62/73/73
f 51/63/63 52/64/64 64/76/76 63/75/75
f 52/64/64 53/127/65 65/126/77 64/76/76
f 53/65/65 54/66/66 66/78/78 65/77/77
f 54/66/66 55/67/67 67/79/79 66/78/78
f 55/67/67 56/68/68 68/80/80 67/79/79
f 56/68/68 57/69/69 69/81/81 68/80/80
f 57/69/69 58/70/70 70/82/82 69/81/81
f 58/70/70 59/71/71 71/83/83 70/82/82
f 59/71/71 60/72/72 72/84/84 71/83/83
f 60/72/72 49/62/62 61/74/74 72/84/84
f 61/74/74 62/73/73 74/85/85 73/86/86
f 62/73/73 63/75/75 75/87/87 74/85/85
f 63/75/75 64/76/76 76/88/88 75/87/87
f 64/76/76 65/126/77 77/125/89 76/88/88
f 65/77/77 66/78/78 78/90/90 77/89/89
f 66/78/78 67/79/79 79/91/91 78/90/90
f 67/79/79 68/80/80 80/92/92 79/91/91
f 68/80/80 69/81/81 81/93/93 80/92/92
f 69/81/81 70/82/82 82/94/94 81/93/93
f 70/82/82 71/83/83 83/95/95 82/94/94
f 71/83/83 72/84/84 84/96/96 83/95/95
f 72/84/84 61/74/74 73/86/86 84/96/96
f 73/86/86 74/85/85 86/97/97 85/98/98
f 74/85/85 75/87/87 87/99/99 86/97/97
f 75/87/87 76/88/88 88/100/100 87/99/99
f 76/88/88 77/125/89 89/124/101 88/100/100
f 77/89/89 78/90/90 90/102/102 89/101/101
f 78/90/90 79/91/91 91/103/103 90/102/102
f 79/91/91 80/92/92 92/104/104 91/103/103
f 80/92/92 81/93/93 93/105/105 92/104/104
f 81/93/93 82/94/94 94/106/106 93/105/105
f 82/94/94 83/95/95 95/107/107 94/106/106
f 83/95/95 84/96/96 96/108/108 95/107/107
f 84/96/96 73/86/86 85/98/98 96/108/108
f 85/98/98 86/97/97 98/109/109 97/110/110
f 86/97/97 87/99/99 99/111/111 98/109/109
f 87/99/99 88/100/100 100/112/112 99/111/111
f 88/100/100 89/124/101 101/123/113 100/112/112
f 89/101/101 90/102/102 102/114/114 101/113/113
f 90/102/102 91/103/103 103/115/115 102/114/114
f 91/103/103 92/104/104 104/116/116 103/115/115
f 92/104/104 93/105/105 105/117/117 104/116/116
f 93/105/105 94/106/106 106/118/118 105/117/117
f 94/106/106 95/107/107 107/119/119 106/118/118
f 95/107/107 96/108/108 108/120/120 107/119/119
f 96/108/108 85/98/98 97/110/110 108/120/120
f 97/110/110 98/109/109 110/50/50 109/49/49
f 98/109/109 99/111/111 111/51/51 110/50/50
f 99/111/111 100/112/112 112/52/52 111/51/51
f 100/112/112 101/123/113 113/121/53 112/52/52
f 101/113/113 102/114/114 114/54/54 113/53/53
f 102/114/114 103/115/115 115/55/55 114/54/54
f 103/115/115 104/116/116 116/56/56 115/55/55
f 104/116/116 105/117/117 117/57/57 116/56/56
f 105/117/117 106/118/118 118/58/58 117/57/57
f 106/118/118 107/119/119 119/59/59 118/58/58
f 107/119/119 108/120/120 120/60/60 119/59/59
f 108/120/120 97/110/110 109/49/49 120/60/60
