# This file uses centimeters as units for non-parametric coordinates.

mtllib shroomBot4.mtl
g default
v 13.535402 -8.183668 0.253532
v 13.756093 -9.573651 -1.118818
v 13.836872 -11.472395 -1.621134
v 13.756093 -13.371143 -1.118818
v 13.535402 -14.761123 0.253532
v 13.233933 -15.269891 2.128192
v 12.932463 -14.761123 4.002855
v 12.711772 -13.371143 5.375201
v 12.630993 -11.472395 5.877518
v 12.711772 -9.573651 5.375201
v 12.932463 -8.183668 4.002855
v 13.233933 -7.674903 2.128192
v 8.220164 -7.619494 -0.601226
v 8.440856 -9.009474 -1.973576
v 8.521635 -10.908223 -2.475892
v 8.440856 -12.806971 -1.973576
v 8.220164 -14.196951 -0.601226
v 7.918695 -14.705719 1.273434
v 7.617225 -14.196951 3.148097
v 7.396535 -12.806971 4.520443
v 7.315756 -10.908223 5.022760
v 7.396535 -9.009474 4.520443
v 7.617225 -7.619494 3.148097
v 7.918695 -7.110726 1.273434
v -8.778194 8.318798 -2.538165
v -9.452802 8.318798 -3.471329
v -10.503613 8.318798 -3.942157
v -11.649056 8.318798 -3.824515
v -12.582215 8.318798 -3.149900
v -13.053051 8.318798 -2.099090
v -12.935401 8.318798 -0.953644
v -12.260792 8.318798 -0.020486
v -11.209984 8.318798 0.450351
v -10.064538 8.318798 0.332699
v -9.131380 8.318798 -0.341909
v -8.660545 8.318798 -1.392719
v -8.854871 11.472319 -2.508937
v -9.504596 11.472319 -3.407673
v -10.516641 11.472319 -3.861142
v -11.619831 11.472319 -3.747830
v -12.518568 11.472319 -3.098106
v -12.972034 11.472319 -2.086061
v -12.858725 11.472319 -0.982872
v -12.209001 11.472319 -0.084133
v -11.196955 11.472319 0.369333
v -10.093765 11.472319 0.256024
v -9.195028 11.472319 -0.393703
v -8.741561 11.472319 -1.405748
v 4.117330 -7.949421 -2.494703
v 4.138543 -9.731314 -2.979650
v 4.006653 -11.513180 -2.512501
v 3.756989 -12.817579 -1.218417
v 3.456451 -13.295022 0.555848
v 3.185573 -12.817579 2.334883
v 3.016932 -11.513180 3.641993
v 2.995712 -9.731314 4.126946
v 3.127608 -7.949421 3.659791
v 3.377272 -6.644968 2.365710
v 3.677806 -6.167503 0.591445
v 3.948687 -6.644968 -1.187589
v 0.066258 -6.398314 -2.972009
v -0.148536 -7.993399 -3.467973
v -0.507994 -9.590157 -3.064356
v -0.915798 -10.760222 -1.869312
v -1.262678 -11.188755 -0.203048
v -1.455690 -10.760222 1.487960
v -1.443114 -9.590157 2.750610
v -1.228320 -7.993399 3.246571
v -0.868863 -6.398314 2.842957
v -0.461057 -5.231604 1.647910
v -0.114176 -4.804752 -0.018354
v 0.078835 -5.231604 -1.709362
v -3.465590 -4.527864 -3.365821
v -4.047784 -5.879351 -3.893929
v -4.766191 -7.239164 -3.574975
v -5.428319 -8.240805 -2.494435
v -5.856749 -8.605988 -0.941833
v -5.936688 -8.240805 0.666814
v -5.646711 -7.239164 1.900461
v -5.064521 -5.879351 2.428565
v -4.346110 -4.527864 2.109614
v -3.683983 -3.545917 1.029078
v -3.255552 -3.191679 -0.523527
v -3.175614 -3.545917 -2.132171
v -6.216573 -2.358138 -3.634060
v -7.191810 -3.368352 -4.198429
v -8.294816 -4.404996 -3.968268
v -9.230040 -5.163869 -3.005255
v -9.746895 -5.441638 -1.567418
v -9.706886 -5.163869 -0.040033
v -9.120735 -4.404996 1.167639
v -8.145500 -3.368352 1.732008
v -7.042492 -2.358138 1.501847
v -6.107269 -1.639985 0.538831
v -5.590415 -1.387514 -0.899003
v -5.630424 -1.639985 -2.426391
v -8.077520 0.321146 -3.759170
v -9.289537 -0.183601 -4.334677
v -10.620877 -0.688347 -4.168174
v -11.714809 -1.057847 -3.304286
v -12.278215 -1.193095 -1.974487
v -12.160131 -1.057847 -0.535095
v -11.392196 -0.688347 0.628205
v -10.180180 -0.183601 1.203709
v -8.848839 0.321146 1.037209
v -7.754908 0.690645 0.173321
v -7.191504 0.825891 -1.156479
v -7.309587 0.690645 -2.595870
v -9.067655 3.884375 -3.728871
v -10.281431 3.773030 -4.277730
v -11.607712 3.661993 -4.141347
v -12.690365 3.580920 -3.354817
v -13.237764 3.551293 -2.128794
v -13.102344 3.580920 -0.792962
v -12.320867 3.661993 0.293344
v -11.104212 3.773030 0.838663
v -9.779553 3.884375 0.698007
v -8.701404 3.966068 -0.089241
v -8.156882 3.996004 -1.311724
v -8.290681 3.966068 -2.643286
vt 0.333357 0.036866
vt 0.379024 0.029671
vt 0.384123 0.167527
vt 0.336387 0.176124
vt 0.425577 0.020283
vt 0.431491 0.156271
vt 0.473248 0.011062
vt 0.479026 0.145491
vt 0.521931 0.003980
vt 0.527280 0.137822
vt 0.571123 0.000000
vt 0.000000 0.135140
vt 0.054436 0.004090
vt 0.049154 0.137934
vt 0.103123 0.011148
vt 0.097412 0.145578
vt 0.150799 0.020346
vt 0.144954 0.156335
vt 0.197357 0.029712
vt 0.192328 0.167568
vt 0.243028 0.036886
vt 0.240071 0.176144
vt 0.288193 0.039891
vt 0.288230 0.179330
vt 0.315754 0.893225
vt 0.343785 0.897038
vt 0.336152 0.977185
vt 0.311323 0.974163
vt 0.371781 0.902743
vt 0.361355 0.981706
vt 0.399782 0.909654
vt 0.387059 0.987314
vt 0.427801 0.917146
vt 0.413347 0.993560
vt 0.455781 0.924809
vt 0.133758 0.997333
vt 0.147213 0.915371
vt 0.160568 0.991170
vt 0.175337 0.908140
vt 0.186714 0.985257
vt 0.203434 0.901545
vt 0.212274 0.980057
vt 0.231499 0.896209
vt 0.237351 0.976029
vt 0.259554 0.892798
vt 0.262097 0.973567
vt 0.287654 0.891844
vt 0.286700 0.972926
vt 0.355491 0.782075
vt 0.388637 0.790356
vt 0.421450 0.799657
vt 0.454152 0.809074
vt 0.089336 0.816793
vt 0.122020 0.807803
vt 0.154781 0.798532
vt 0.187654 0.789376
vt 0.220861 0.781202
vt 0.254156 0.775604
vt 0.287960 0.773654
vt 0.321868 0.776095
vt 0.426450 0.270461
vt 0.381172 0.283511
vt 0.471963 0.258611
vt 0.518476 0.251184
vt 0.010881 0.250507
vt 0.058018 0.251285
vt 0.104536 0.258686
vt 0.150060 0.270512
vt 0.195351 0.283540
vt 0.241393 0.293806
vt 0.288270 0.297700
vt 0.335142 0.293793
vt 0.418277 0.386801
vt 0.376276 0.397675
vt 0.460541 0.377426
vt 0.504202 0.372052
vt 0.027862 0.372217
vt 0.072359 0.372122
vt 0.116029 0.377466
vt 0.158310 0.386817
vt 0.200335 0.397672
vt 0.243636 0.406586
vt 0.288322 0.410094
vt 0.332998 0.406595
vt 0.412795 0.497866
vt 0.372795 0.503813
vt 0.452867 0.493250
vt 0.494012 0.491135
vt 0.040849 0.492024
vt 0.082605 0.491122
vt 0.123770 0.493211
vt 0.163879 0.497802
vt 0.203942 0.503730
vt 0.245377 0.508946
vt 0.288388 0.511011
vt 0.331390 0.508997
vt 0.410029 0.597612
vt 0.371023 0.597606
vt 0.448718 0.598242
vt 0.487468 0.600221
vt 0.049953 0.603268
vt 0.089040 0.600044
vt 0.127734 0.598106
vt 0.167038 0.597264
vt 0.205907 0.597428
vt 0.246277 0.597598
vt 0.288444 0.597439
vt 0.330615 0.597684
vt 0.402683 0.690857
vt 0.365842 0.684737
vt 0.438748 0.697777
vt 0.474706 0.704905
vt 0.065982 0.711224
vt 0.102024 0.704278
vt 0.138049 0.697266
vt 0.173463 0.690356
vt 0.210439 0.684606
vt 0.249092 0.680169
vt 0.288472 0.678563
vt 0.327677 0.680305
vt 0.486790 0.818182
vt 0.119124 0.922835
vt 0.510714 0.711868
vt 0.526588 0.603456
vt 0.535760 0.491991
vt 0.548697 0.372115
vt 0.565612 0.250379
vt 0.576433 0.135003
vt 0.440284 1.000000
vt 0.005242 0.000134
vn 0.169024 0.858268 -0.484568
vn 0.188817 0.486527 -0.853018
vn 0.201947 0.491733 -0.847004
vn 0.208398 0.856279 -0.472607
vn 0.156970 -0.017200 -0.987454
vn 0.134893 -0.009967 -0.990810
vn 0.083100 -0.512213 -0.854829
vn 0.027335 -0.504582 -0.862931
vn -0.011819 -0.866755 -0.498594
vn -0.090142 -0.855994 -0.509066
vn -0.102903 -0.994554 -0.016548
vn -0.188522 -0.981601 -0.030317
vn -0.167541 -0.866755 0.469750
vn -0.245199 -0.855994 0.455139
vn -0.189094 -0.512212 0.837784
vn -0.244587 -0.504581 0.827994
vn -0.160529 -0.017200 0.986881
vn -0.182544 -0.009967 0.983147
vn -0.088138 0.486526 0.869209
vn -0.073786 0.491733 0.867614
vn 0.008582 0.858268 0.513129
vn 0.049720 0.856279 0.514116
vn 0.102904 0.994554 0.016548
vn 0.152745 0.987960 0.024563
vn 0.930443 0.078815 -0.357860
vn 0.625145 0.070811 -0.777290
vn 0.630947 0.026013 -0.775390
vn 0.934110 0.026013 -0.356036
vn 0.151264 0.059286 -0.986714
vn 0.158719 0.026013 -0.986981
vn -0.362253 0.047148 -0.930887
vn -0.356037 0.026013 -0.934109
vn -0.777784 0.037918 -0.627387
vn -0.775391 0.026013 -0.630945
vn -0.986728 0.034474 -0.158678
vn -0.986981 0.026012 -0.158719
vn -0.935267 0.037918 0.351906
vn -0.934111 0.026012 0.356034
vn -0.635839 0.047149 0.770380
vn -0.630947 0.026012 0.775390
vn -0.165714 0.059286 0.984390
vn -0.158719 0.026012 0.986981
vn 0.349934 0.070810 0.934094
vn 0.356038 0.026012 0.934109
vn 0.771337 0.078815 0.631528
vn 0.775392 0.026012 0.630944
vn 0.984019 0.081646 0.158243
vn 0.986981 0.026012 0.158719
vn 0.602723 0.132933 -0.786800
vn 0.127377 0.060470 -0.990009
vn -0.379411 -0.013777 -0.925126
vn -0.782269 -0.068304 -0.619184
vn -0.983470 -0.088168 -0.158154
vn -0.936954 -0.068304 0.342711
vn -0.650325 -0.013777 0.759531
vn -0.189427 0.060470 0.980031
vn 0.325661 0.132933 0.936095
vn 0.751309 0.183789 0.633842
vn 0.967010 0.201766 0.155508
vn 0.912151 0.183789 -0.366336
vn 0.107276 -0.010127 -0.994178
vn 0.249585 0.488969 -0.835833
vn -0.073189 -0.495940 -0.865267
vn -0.235408 -0.824338 -0.514830
vn -0.345155 -0.936903 -0.055505
vn -0.384947 -0.824338 0.415069
vn -0.340775 -0.495941 0.798696
vn -0.209824 -0.010127 0.977687
vn -0.025047 0.488969 0.871941
vn 0.151338 0.839794 0.521386
vn 0.270302 0.961794 0.043468
vn 0.307171 0.839794 -0.447652
vn 0.106424 -0.006846 -0.994297
vn 0.308238 0.477813 -0.822608
vn -0.127306 -0.478572 -0.868770
vn -0.319705 -0.791192 -0.521348
vn -0.437338 -0.896543 -0.070329
vn -0.467038 -0.791193 0.394829
vn -0.393262 -0.478572 0.785056
vn -0.210672 -0.006846 0.977533
vn 0.034795 0.477812 0.877773
vn 0.254034 0.809026 0.530041
vn 0.385611 0.920575 0.062011
vn 0.407404 0.809026 -0.423674
vn 0.101811 -0.003817 -0.994796
vn 0.370013 0.443542 -0.816310
vn -0.187975 -0.439281 -0.878463
vn -0.416335 -0.732577 -0.538513
vn -0.546650 -0.832734 -0.087908
vn -0.564178 -0.732577 0.380834
vn -0.453912 -0.439280 0.775240
vn -0.215209 -0.003817 0.976561
vn 0.095429 0.443541 0.891159
vn 0.366364 0.750155 0.550495
vn 0.516214 0.852427 0.083014
vn 0.520483 0.750155 -0.407879
vn 0.092407 0.004448 -0.995711
vn 0.453049 0.365204 -0.813248
vn -0.285871 -0.342832 -0.894843
vn -0.581454 -0.581103 -0.569413
vn -0.738064 -0.664209 -0.118690
vn -0.730659 -0.581103 0.358408
vn -0.552007 -0.342832 0.760102
vn -0.224425 0.004448 0.974481
vn 0.175241 0.365203 0.914285
vn 0.517081 0.621521 0.588506
vn 0.695984 0.709281 0.111923
vn 0.675518 0.621521 -0.396722
vn 0.099388 0.027312 -0.994674
vn 0.545827 0.237712 -0.803471
vn -0.367309 -0.176975 -0.913107
vn -0.732688 -0.320039 -0.600619
vn -0.916958 -0.370734 -0.147458
vn -0.884052 -0.320039 0.340627
vn -0.635066 -0.176976 0.751912
vn -0.217468 0.027313 0.975685
vn 0.266407 0.237712 0.934088
vn 0.675244 0.389858 0.626144
vn 0.884915 0.443480 0.142306
vn 0.837507 0.389858 -0.382875
s 1
g shroomBot4
usemtl initialShadingGroup
f 1/1/1 2/2/2 14/3/3 13/4/4
f 2/2/2 3/5/5 15/6/6 14/3/3
f 3/5/5 4/7/7 16/8/8 15/6/6
f 4/7/7 5/9/9 17/10/10 16/8/8
f 5/9/9 6/11/11 18/128/12 17/10/10
f 6/130/11 7/13/13 19/14/14 18/12/12
f 7/13/13 8/15/15 20/16/16 19/14/14
f 8/15/15 9/17/17 21/18/18 20/16/16
f 9/17/17 10/19/19 22/20/20 21/18/18
f 10/19/19 11/21/21 23/22/22 22/20/20
f 11/21/21 12/23/23 24/24/24 23/22/22
f 12/23/23 1/1/1 13/4/4 24/24/24
f 25/25/25 26/26/26 38/27/27 37/28/28
f 26/26/26 27/29/29 39/30/30 38/27/27
f 27/29/29 28/31/31 40/32/32 39/30/30
f 28/31/31 29/33/33 41/34/34 40/32/32
f 29/33/33 30/35/35 42/129/36 41/34/34
f 30/122/35 31/37/37 43/38/38 42/36/36
f 31/37/37 32/39/39 44/40/40 43/38/38
f 32/39/39 33/41/41 45/42/42 44/40/40
f 33/41/41 34/43/43 46/44/44 45/42/42
f 34/43/43 35/45/45 47/46/46 46/44/44
f 35/45/45 36/47/47 48/48/48 47/46/46
f 36/47/47 25/25/25 37/28/28 48/48/48
f 109/49/49 110/50/50 27/29/29 26/26/26
f 110/50/50 111/51/51 28/31/31 27/29/29
f 111/51/51 112/52/52 29/33/33 28/31/31
f 112/52/52 113/121/53 30/35/35 29/33/33
f 113/53/53 114/54/54 31/37/37 30/122/35
f 114/54/54 115/55/55 32/39/39 31/37/37
f 115/55/55 116/56/56 33/41/41 32/39/39
f 116/56/56 117/57/57 34/43/43 33/41/41
f 117/57/57 118/58/58 35/45/45 34/43/43
f 118/58/58 119/59/59 36/47/47 35/45/45
f 119/59/59 120/60/60 25/25/25 36/47/47
f 120/60/60 109/49/49 26/26/26 25/25/25
f 14/3/3 15/6/6 50/61/61 49/62/62
f 15/6/6 16/8/8 51/63/63 50/61/61
f 16/8/8 17/10/10 52/64/64 51/63/63
f 17/10/10 18/128/12 53/127/65 52/64/64
f 18/12/12 19/14/14 54/66/66 53/65/65
f 19/14/14 20/16/16 55/67/67 54/66/66
f 20/16/16 21/18/18 56/68/68 55/67/67
f 21/18/18 22/20/20 57/69/69 56/68/68
f 22/20/20 23/22/22 58/70/70 57/69/69
f 23/22/22 24/24/24 59/71/71 58/70/70
f 24/24/24 13/4/4 60/72/72 59/71/71
f 13/4/4 14/3/3 49/62/62 60/72/72
f 49/62/62 50/61/61 62/73/73 61/74/74
f 50/61/61 51/63/63 63/75/75 62/73/73
f 51/63/63 52/64/64 64/76/76 63/75/75
f 52/64/64 53/127/65 65/126/77 64/76/76
f 53/65/65 54/66/66 66/78/78 65/77/77
f 54/66/66 55/67/67 67/79/79 66/78/78
f 55/67/67 56/68/68 68/80/80 67/79/79
f 56/68/68 57/69/69 69/81/81 68/80/80
f 57/69/69 58/70/70 70/82/82 69/81/81
f 58/70/70 59/71/71 71/83/83 70/82/82
f 59/71/71 60/72/72 72/84/84 71/83/83
f 60/72/72 49/62/62 61/74/74 72/84/84
f 61/74/74 62/73/73 74/85/85 73/86/86
f 62/73/73 63/75/75 75/87/87 74/85/85
f 63/75/75 64/76/76 76/88/88 75/87/87
f 64/76/76 65/126/77 77/125/89 76/88/88
f 65/77/77 66/78/78 78/90/90 77/89/89
f 66/78/78 67/79/79 79/91/91 78/90/90
f 67/79/79 68/80/80 80/92/92 79/91/91
f 68/80/80 69/81/81 81/93/93 80/92/92
f 69/81/81 70/82/82 82/94/94 81/93/93
f 70/82/82 71/83/83 83/95/95 82/94/94
f 71/83/83 72/84/84 84/96/96 83/95/95
f 72/84/84 61/74/74 73/86/86 84/96/96
f 73/86/86 74/85/85 86/97/97 85/98/98
f 74/85/85 75/87/87 87/99/99 86/97/97
f 75/87/87 76/88/88 88/100/100 87/99/99
f 76/88/88 77/125/89 89/124/101 88/100/100
f 77/89/89 78/90/90 90/102/102 89/101/101
f 78/90/90 79/91/91 91/103/103 90/102/102
f 79/91/91 80/92/92 92/104/104 91/103/103
f 80/92/92 81/93/93 93/105/105 92/104/104
f 81/93/93 82/94/94 94/106/106 93/105/105
f 82/94/94 83/95/95 95/107/107 94/106/106
f 83/95/95 84/96/96 96/108/108 95/107/107
f 84/96/96 73/86/86 85/98/98 96/108/108
f 85/98/98 86/97/97 98/109/109 97/110/110
f 86/97/97 87/99/99 99/111/111 98/109/109
f 87/99/99 88/100/100 100/112/112 99/111/111
f 88/100/100 89/124/101 101/123/113 100/112/112
f 89/101/101 90/102/102 102/114/114 101/113/113
f 90/102/102 91/103/103 103/115/115 102/114/114
f 91/103/103 92/104/104 104/116/116 103/115/115
f 92/104/104 93/105/105 105/117/117 104/116/116
f 93/105/105 94/106/106 106/118/118 105/117/117
f 94/106/106 95/107/107 107/119/119 106/118/118
f 95/107/107 96/108/108 108/120/120 107/119/119
f 96/108/108 85/98/98 97/110/110 108/120/120
f 97/110/110 98/109/109 110/50/50 109/49/49
f 98/109/109 99/111/111 111/51/51 110/50/50
f 99/111/111 100/112/112 112/52/52 111/51/51
f 100/112/112 101/123/113 113/121/53 112/52/52
f 101/113/113 102/114/114 114/54/54 113/53/53
f 102/114/114 103/115/115 115/55/55 114/54/54
f 103/115/115 104/116/116 116/56/56 115/55/55
f 104/116/116 105/117/117 117/57/57 116/56/56
f 105/117/117 106/118/118 118/58/58 117/57/57
f 106/118/118 107/119/119 119/59/59 118/58/58
f 107/119/119 108/120/120 120/60/60 119/59/59
f 108/120/120 97/110/110 109/49/49 120/60/60
