# This file uses centimeters as units for non-parametric coordinates.

mtllib shroomBot3.mtl
g default
v 5.160155 -15.806648 -2.717737
v 3.304017 -15.806648 -4.812908
v 0.686809 -15.806648 -5.805481
v -2.091906 -15.806648 -5.468096
v -4.395541 -15.806648 -3.878012
v -5.696336 -15.806648 -1.399517
v -5.696371 -15.806648 1.399588
v -4.395541 -15.806648 3.878083
v -2.091906 -15.806648 5.468183
v 0.686809 -15.806648 5.805586
v 3.304017 -15.806648 4.812978
v 5.160155 -15.806648 2.717808
v 5.830048 -15.806648 0.000035
v 2.974615 5.094163 -0.665736
v 1.914922 5.094163 -1.861878
v 0.420789 5.094163 -2.428522
v -1.165574 5.094163 -2.235921
v -2.480688 5.094163 -1.328119
v -3.223333 5.094163 0.086823
v -3.223333 5.094163 1.684837
v -2.480688 5.094163 3.099814
v -1.165574 5.094163 4.007581
v 0.420789 5.094163 4.200200
v 1.914922 5.094163 3.633539
v 2.974615 5.094163 2.437414
v 3.357080 5.094163 0.885830
v -2.418882 1.117775 -1.941555
v -1.152441 1.117775 -2.815701
v 0.375103 1.117775 -3.001195
v 1.813993 1.117775 -2.455503
v 2.834379 1.117775 -1.303721
v 3.202666 1.117775 0.190044
v 2.834379 1.117775 1.684476
v 1.813993 1.117775 2.836293
v 0.375134 1.117775 3.381949
v -1.152410 1.117775 3.196490
v -2.418882 1.117775 2.322344
v -3.134008 1.117775 0.959782
v -3.134008 1.117775 -0.579028
v -3.143314 -3.620937 -2.527553
v -3.821124 -7.740489 -4.010805
v -3.688282 -11.785486 -3.390585
v -1.832398 -11.787234 -4.669006
v -2.318181 -7.740818 -5.048336
v -1.799066 -3.620498 -3.448798
v 0.406568 -11.788827 -4.938602
v -0.505105 -7.741287 -5.268609
v -0.177684 -3.620763 -3.639988
v 2.515794 -11.790363 -4.137316
v 1.202617 -7.741786 -4.621037
v 1.349291 -3.621209 -3.057055
v 4.012055 -11.791475 -2.448233
v 2.413815 -7.742198 -3.253947
v 2.432244 -3.621728 -1.833622
v 4.551746 -11.791932 -0.259324
v 2.850963 -7.742425 -1.480580
v 2.823065 -3.622197 -0.249832
v 4.012055 -11.791165 1.929532
v 2.413785 -7.742198 0.292822
v 2.432244 -3.622049 1.331629
v 2.515654 -11.789806 3.614588
v 1.202552 -7.741790 1.659859
v 1.349291 -3.621781 2.548280
v 0.406533 -11.788165 4.411296
v -0.505135 -7.741294 2.307414
v -0.177684 -3.621463 3.121375
v -1.832362 -11.786595 4.136675
v -2.318211 -7.740821 2.087193
v -1.799066 -3.621149 2.919536
v -3.688282 -11.785486 2.853951
v -3.821124 -7.740489 1.049645
v -3.143314 -3.620937 1.988959
v -4.736068 -11.785082 0.857497
v -4.669860 -7.740367 -0.567444
v -3.902329 -3.620850 0.543193
v -4.736103 -11.785248 -1.396074
v -4.669860 -7.740367 -2.393716
v -3.902329 -3.620684 -1.086793
vt 0.375000 0.687500
vt 0.394231 0.687500
vt 0.413462 0.687500
vt 0.432692 0.687500
vt 0.451923 0.687500
vt 0.471154 0.687500
vt 0.490385 0.687500
vt 0.509615 0.687500
vt 0.528846 0.687500
vt 0.548077 0.687500
vt 0.567308 0.687500
vt 0.586539 0.687500
vt 0.605769 0.687500
vt 0.625000 0.687500
vt 0.625000 0.562500
vt 0.375000 0.312500
vt 0.375000 0.375014
vt 0.394231 0.312500
vt 0.394231 0.375031
vt 0.413462 0.312500
vt 0.413461 0.375055
vt 0.432692 0.312500
vt 0.432692 0.375080
vt 0.451923 0.312500
vt 0.451923 0.375107
vt 0.471154 0.312500
vt 0.471154 0.375110
vt 0.490385 0.312500
vt 0.490385 0.375113
vt 0.509616 0.312500
vt 0.509616 0.375106
vt 0.528846 0.312500
vt 0.528846 0.375089
vt 0.548077 0.312500
vt 0.548077 0.375065
vt 0.567308 0.312500
vt 0.567308 0.375039
vt 0.586539 0.312500
vt 0.586539 0.375018
vt 0.605769 0.312500
vt 0.625000 0.312500
vt 0.605769 0.375006
vt 0.451923 0.495914
vt 0.432692 0.562500
vt 0.432693 0.495920
vt 0.413462 0.562500
vt 0.413462 0.495918
vt 0.394231 0.562500
vt 0.394231 0.495911
vt 0.375000 0.562500
vt 0.625000 0.495903
vt 0.605769 0.562500
vt 0.605769 0.495895
vt 0.586539 0.562500
vt 0.586538 0.495898
vt 0.567308 0.562500
vt 0.567308 0.495902
vt 0.548077 0.562500
vt 0.548077 0.495908
vt 0.528847 0.562500
vt 0.528846 0.495911
vt 0.509616 0.562500
vt 0.509615 0.495915
vt 0.490385 0.562500
vt 0.490385 0.495916
vt 0.471154 0.562500
vt 0.471154 0.495917
vt 0.451924 0.562500
vt 0.375000 0.495902
vt 0.625000 0.375014
vt 0.451923 0.437500
vt 0.432692 0.437500
vt 0.413462 0.437500
vt 0.394231 0.437500
vt 0.625000 0.437500
vt 0.375000 0.437500
vt 0.605769 0.437500
vt 0.586539 0.437500
vt 0.567308 0.437500
vt 0.548077 0.437500
vt 0.528846 0.437500
vt 0.509615 0.437500
vt 0.490385 0.437500
vt 0.471154 0.437500
vn -0.333445 0.154203 -0.930073
vn -0.729236 0.150256 -0.667562
vn -0.766101 0.086342 -0.636894
vn -0.363958 0.133213 -0.921840
vn 0.135117 0.125866 -0.982803
vn 0.126319 0.139982 -0.982063
vn 0.574319 0.073049 -0.815365
vn 0.586236 0.105043 -0.803302
vn 0.885922 0.007158 -0.463779
vn 0.902715 0.036943 -0.428649
vn 0.998253 -0.058656 -0.007134
vn 0.997904 -0.046603 0.044892
vn 0.886004 -0.111041 0.450186
vn 0.859811 -0.124111 0.495299
vn 0.575665 -0.138431 0.805882
vn 0.539071 -0.178712 0.823083
vn 0.134921 -0.133353 0.981842
vn 0.114654 -0.201484 0.972758
vn -0.341727 -0.094510 0.935035
vn -0.331486 -0.189614 0.924210
vn -0.744426 -0.028997 0.667075
vn -0.716932 -0.144493 0.682005
vn -0.970466 0.046864 0.236641
vn -0.956846 -0.072792 0.281332
vn -0.962266 0.112155 -0.247921
vn -0.980207 0.011081 -0.197667
vn -0.751277 0.062731 -0.656999
vn -0.723931 0.094794 -0.683329
vn -0.360176 0.109688 -0.926413
vn -0.346629 0.058826 -0.936156
vn -0.731505 0.269305 -0.626398
vn -0.349286 0.283527 -0.893091
vn 0.859542 0.274680 -0.430974
vn 0.564556 0.243390 -0.788694
vn 0.579002 0.187186 -0.793548
vn 0.862727 0.273869 -0.425086
vn 0.128908 0.217679 -0.967470
vn 0.139456 0.106306 -0.984506
vn -0.344245 0.204413 -0.916357
vn -0.736358 0.207668 -0.643934
vn -0.948914 0.226835 -0.219334
vn -0.968564 0.116827 -0.219627
vn -0.933912 0.256569 0.248958
vn -0.944910 0.200970 0.258372
vn -0.704724 0.288906 0.647995
vn -0.700994 0.287144 0.652807
vn -0.324176 0.316151 0.891604
vn -0.314943 0.355128 0.880168
vn 0.119468 0.332858 0.935379
vn 0.119735 0.396310 0.910276
vn 0.533068 0.336264 0.776379
vn 0.518468 0.408305 0.751318
vn 0.832466 0.326113 0.447940
vn 0.810609 0.390919 0.436000
vn 0.952467 0.304256 0.015344
vn 0.938419 0.345025 0.018070
vn 0.114837 0.247567 -0.962041
vn 0.566091 0.166132 -0.807429
vn 0.891451 0.057450 -0.449459
vn 0.998619 -0.047417 0.022617
vn 0.867848 -0.120016 0.482115
vn 0.546220 -0.147799 0.824499
vn 0.110032 -0.130509 0.985322
vn -0.351632 -0.073213 0.933271
vn -0.739760 0.014639 0.672712
vn -0.959496 0.116597 0.256462
vn -0.954071 0.209092 -0.214542
vn 0.074934 0.133152 -0.988259
vn 0.503160 0.165808 -0.848138
vn 0.830795 0.203025 -0.518228
vn 0.971032 0.230877 -0.061583
vn 0.877232 0.238661 0.416540
vn 0.561042 0.226323 0.796247
vn 0.096493 0.199290 0.975178
vn -0.396050 0.164481 0.903377
vn -0.786696 0.129455 0.603615
vn -0.981115 0.102553 0.163999
vn -0.950123 0.090876 -0.298340
s 1
g shroomBot3
usemtl initialShadingGroup
f 28/44/1 27/68/2 18/5/3 17/4/4
f 29/46/5 28/44/1 17/4/4 16/3/6
f 30/48/7 29/46/5 16/3/6 15/2/8
f 31/50/9 30/48/7 15/2/8 14/1/10
f 32/52/11 31/15/9 14/14/10 26/13/12
f 33/54/13 32/52/11 26/13/12 25/12/14
f 34/56/15 33/54/13 25/12/14 24/11/16
f 35/58/17 34/56/15 24/11/16 23/10/18
f 36/60/19 35/58/17 23/10/18 22/9/20
f 37/62/21 36/60/19 22/9/20 21/8/22
f 38/64/23 37/62/21 21/8/22 20/7/24
f 39/66/25 38/64/23 20/7/24 19/6/26
f 27/68/2 39/66/25 19/6/26 18/5/3
f 42/25/27 41/71/28 44/72/29 43/23/30
f 41/71/28 40/43/31 45/45/32 44/72/29
f 1/16/33 2/18/34 49/19/35 52/17/36
f 2/18/34 3/20/37 46/21/38 49/19/35
f 3/20/37 4/22/39 43/23/30 46/21/38
f 4/22/39 5/24/40 42/25/27 43/23/30
f 5/24/40 6/26/41 76/27/42 42/25/27
f 6/26/41 7/28/43 73/29/44 76/27/42
f 7/28/43 8/30/45 70/31/46 73/29/44
f 8/30/45 9/32/47 67/33/48 70/31/46
f 9/32/47 10/34/49 64/35/50 67/33/48
f 10/34/49 11/36/51 61/37/52 64/35/50
f 11/36/51 12/38/53 58/39/54 61/37/52
f 12/38/53 13/40/55 55/42/56 58/39/54
f 13/40/55 1/41/33 52/70/36 55/42/56
f 45/45/32 40/43/31 27/68/2 28/44/1
f 48/47/57 45/45/32 28/44/1 29/46/5
f 51/49/58 48/47/57 29/46/5 30/48/7
f 54/69/59 51/49/58 30/48/7 31/50/9
f 57/53/60 54/51/59 31/15/9 32/52/11
f 60/55/61 57/53/60 32/52/11 33/54/13
f 63/57/62 60/55/61 33/54/13 34/56/15
f 66/59/63 63/57/62 34/56/15 35/58/17
f 69/61/64 66/59/63 35/58/17 36/60/19
f 72/63/65 69/61/64 36/60/19 37/62/21
f 75/65/66 72/63/65 37/62/21 38/64/23
f 78/67/67 75/65/66 38/64/23 39/66/25
f 40/43/31 78/67/67 39/66/25 27/68/2
f 43/23/30 44/72/29 47/73/68 46/21/38
f 44/72/29 45/45/32 48/47/57 47/73/68
f 46/21/38 47/73/68 50/74/69 49/19/35
f 47/73/68 48/47/57 51/49/58 50/74/69
f 49/19/35 50/74/69 53/76/70 52/17/36
f 50/74/69 51/49/58 54/69/59 53/76/70
f 52/70/36 53/75/70 56/77/71 55/42/56
f 53/75/70 54/51/59 57/53/60 56/77/71
f 55/42/56 56/77/71 59/78/72 58/39/54
f 56/77/71 57/53/60 60/55/61 59/78/72
f 58/39/54 59/78/72 62/79/73 61/37/52
f 59/78/72 60/55/61 63/57/62 62/79/73
f 61/37/52 62/79/73 65/80/74 64/35/50
f 62/79/73 63/57/62 66/59/63 65/80/74
f 64/35/50 65/80/74 68/81/75 67/33/48
f 65/80/74 66/59/63 69/61/64 68/81/75
f 67/33/48 68/81/75 71/82/76 70/31/46
f 68/81/75 69/61/64 72/63/65 71/82/76
f 70/31/46 71/82/76 74/83/77 73/29/44
f 71/82/76 72/63/65 75/65/66 74/83/77
f 73/29/44 74/83/77 77/84/78 76/27/42
f 74/83/77 75/65/66 78/67/67 77/84/78
f 40/43/31 41/71/28 77/84/78 78/67/67
f 41/71/28 42/25/27 76/27/42 77/84/78
