# This file uses centimeters as units for non-parametric coordinates.

mtllib firstCorridorFloor.mtl
g default
v -15.411257 -0.946604 45.175051
v -15.411257 -0.662652 45.459006
v -15.695211 -0.662652 45.175051
v 2.339915 -0.662652 45.175051
v 2.055967 -0.662652 45.459006
v 2.055967 -0.946604 45.175051
v -15.695211 0.662641 45.175051
v -15.411257 0.662641 45.459006
v -15.411257 0.946596 45.175051
v 2.055967 0.946596 45.175051
v 2.055967 0.662641 45.459006
v 2.339915 0.662641 45.175051
v -15.411257 -0.946604 -45.707191
v -15.695211 -0.662652 -45.707191
v -15.411257 -0.662652 -45.991195
v -15.411257 0.662641 -45.991195
v -15.695211 0.662641 -45.707191
v -15.411257 0.946596 -45.707191
v 2.055967 0.662641 -45.991195
v 2.055967 0.946596 -45.707191
v 2.339915 0.662641 -45.707191
v 2.055967 -0.662652 -45.991195
v 2.339915 -0.662652 -45.707191
v 2.055967 -0.946604 -45.707191
vt 0.375776 0.084645
vt 0.356252 0.127079
vt 0.375776 0.165355
vt 0.358193 0.197267
vt 0.268748 0.331254
vt 0.268748 0.342441
vt 0.270689 0.343106
vt 0.624224 0.165355
vt 0.661720 0.083333
vt 0.836727 0.083333
vt 0.873059 0.085292
vt 0.873059 0.166002
vt 0.836727 0.166667
vt 0.661720 0.166667
vt 0.662496 0.165355
vt 0.251941 0.374094
vt 0.251941 0.374094
vt 0.356252 0.196602
vt 0.624224 0.084645
vt 0.662496 0.084645
vt 0.837504 0.084645
vt 0.837504 0.165355
vt 0.270689 0.330349
vt 0.358193 0.126173
vn -0.707103 -0.707110 0.000000
vn -0.707103 -0.707110 0.000000
vn -0.707103 -0.707110 0.000000
vn -0.707103 -0.707110 0.000000
vn 0.000000 -0.707112 0.707102
vn 0.000000 -0.707112 0.707102
vn 0.000000 -0.707112 0.707102
vn 0.000000 -0.707112 0.707102
vn -0.707111 0.000000 0.707103
vn -0.707111 0.000000 0.707103
vn -0.707111 0.000000 0.707103
vn -0.707111 0.000000 0.707103
vn 0.707112 -0.707102 0.000000
vn 0.707112 -0.707102 0.000000
vn 0.707112 -0.707102 0.000000
vn 0.707112 -0.707102 0.000000
vn 0.707118 0.000000 0.707095
vn 0.707118 0.000000 0.707095
vn 0.707118 0.000000 0.707095
vn 0.707118 0.000000 0.707095
vn -0.707108 0.707106 0.000000
vn -0.707108 0.707106 0.000000
vn -0.707108 0.707106 0.000000
vn -0.707108 0.707106 0.000000
vn 0.000000 0.707107 0.707107
vn 0.000000 0.707107 0.707107
vn 0.000000 0.707107 0.707107
vn 0.000000 0.707107 0.707107
vn 0.707116 0.707097 -0.000000
vn 0.707116 0.707097 -0.000000
vn 0.707116 0.707097 -0.000000
vn 0.707116 0.707097 -0.000000
vn 0.000000 -0.707172 -0.707042
vn 0.000000 -0.707172 -0.707042
vn 0.000000 -0.707172 -0.707042
vn 0.000000 -0.707172 -0.707042
vn -0.707168 -0.000000 -0.707045
vn -0.707168 -0.000000 -0.707045
vn -0.707168 -0.000000 -0.707045
vn -0.707168 -0.000000 -0.707045
vn 0.000000 0.707167 -0.707046
vn 0.000000 0.707167 -0.707046
vn 0.000000 0.707167 -0.707046
vn 0.000000 0.707167 -0.707046
vn 0.707175 0.000000 -0.707038
vn 0.707175 0.000000 -0.707038
vn 0.707175 0.000000 -0.707038
vn 0.707175 0.000000 -0.707038
vn 0.000000 1.000000 -0.000000
vn 0.000000 1.000000 -0.000000
vn 0.000000 1.000000 -0.000000
vn 0.000000 1.000000 -0.000000
vn 0.000000 0.000000 1.000000
vn 0.000000 0.000000 1.000000
vn 0.000000 0.000000 1.000000
vn 0.000000 0.000000 1.000000
vn 0.000000 -1.000000 0.000000
vn 0.000000 -1.000000 0.000000
vn 0.000000 -1.000000 0.000000
vn 0.000000 -1.000000 0.000000
vn 0.000000 0.000000 -1.000000
vn 0.000000 0.000000 -1.000000
vn 0.000000 0.000000 -1.000000
vn 0.000000 0.000000 -1.000000
vn -1.000000 -0.000000 0.000000
vn -1.000000 -0.000000 0.000000
vn -1.000000 -0.000000 0.000000
vn -1.000000 -0.000000 0.000000
vn 1.000000 0.000000 0.000000
vn 1.000000 0.000000 0.000000
vn 1.000000 0.000000 0.000000
vn 1.000000 0.000000 0.000000
vn -0.577345 -0.577353 0.577353
vn -0.577345 -0.577353 0.577353
vn -0.577345 -0.577353 0.577353
vn 0.577349 -0.577357 0.577345
vn 0.577349 -0.577357 0.577345
vn 0.577349 -0.577357 0.577345
vn -0.577361 0.577342 0.577349
vn -0.577361 0.577342 0.577349
vn -0.577361 0.577342 0.577349
vn 0.577365 0.577346 0.577341
vn 0.577365 0.577346 0.577341
vn 0.577365 0.577346 0.577341
vn -0.577384 -0.577385 -0.577282
vn -0.577384 -0.577385 -0.577282
vn -0.577384 -0.577385 -0.577282
vn -0.577390 0.577378 -0.577283
vn -0.577390 0.577378 -0.577283
vn -0.577390 0.577378 -0.577283
vn 0.577398 0.577374 -0.577278
vn 0.577398 0.577374 -0.577278
vn 0.577398 0.577374 -0.577278
vn 0.577392 -0.577381 -0.577278
vn 0.577392 -0.577381 -0.577278
vn 0.577392 -0.577381 -0.577278
s off
g firstHallwayFloor
usemtl initialShadingGroup
f 1/1/1 3/24/2 14/9/3 13/19/4
f 2/2/5 1/1/6 6/3/7 5/18/8
f 3/24/9 2/2/10 8/5/11 7/23/12
f 4/4/13 6/3/14 24/8/15 23/14/16
f 5/18/17 4/4/18 12/7/19 11/6/20
f 7/23/21 9/16/22 18/11/23 17/10/24
f 9/16/25 8/5/26 11/6/27 10/17/28
f 10/17/29 12/7/30 21/13/31 20/12/32
f 13/19/33 15/20/34 22/15/35 24/8/36
f 15/20/37 14/9/38 17/10/39 16/21/40
f 16/21/41 18/11/42 20/12/43 19/22/44
f 19/22/45 21/13/46 23/14/47 22/15/48
f 9/16/49 10/17/50 20/12/51 18/11/52
f 8/5/53 2/2/54 5/18/55 11/6/56
f 6/3/57 1/1/58 13/19/59 24/8/60
f 15/20/61 16/21/62 19/22/63 22/15/64
f 7/23/65 17/10/66 14/9/67 3/24/68
f 12/7/69 4/4/70 23/14/71 21/13/72
f 1/1/73 2/2/74 3/24/75
f 4/4/76 5/18/77 6/3/78
f 7/23/79 8/5/80 9/16/81
f 10/17/82 11/6/83 12/7/84
f 13/19/85 14/9/86 15/20/87
f 16/21/88 17/10/89 18/11/90
f 19/22/91 20/12/92 21/13/93
f 22/15/94 23/14/95 24/8/96
