# This file uses centimeters as units for non-parametric coordinates.

mtllib woodenBeam1.mtl
g default
v -43.438631 16.936432 -23.700287
v -43.438631 17.052585 -23.584137
v -36.485755 17.052585 -23.700287
v -36.601908 17.052585 -23.584137
v -36.601908 16.936432 -23.700287
v -43.438631 17.594706 -23.584137
v -43.438631 17.710859 -23.700287
v -36.601908 17.710859 -23.700287
v -36.601908 17.594706 -23.584137
v -36.485755 17.594706 -23.700287
v -43.438631 17.710859 -24.242411
v -43.438631 17.594706 -24.358563
v -36.601908 17.594706 -24.358563
v -36.601908 17.710859 -24.242411
v -36.485755 17.594706 -24.242411
v -43.438631 17.052585 -24.358563
v -43.438631 16.936432 -24.242411
v -36.601908 16.936432 -24.242411
v -36.601908 17.052585 -24.358563
v -36.485755 17.052585 -24.242411
v -43.332840 14.769959 -23.740978
v -43.400707 14.864221 -23.642263
v -40.055897 17.067272 -23.642263
v -39.988031 16.973011 -23.740978
v -43.432518 15.304175 -23.642263
v -43.500384 15.398437 -23.740978
v -40.440526 17.601488 -23.740978
v -40.372660 17.507227 -23.642263
v -43.500384 15.398437 -24.201720
v -43.432518 15.304175 -24.300437
v -40.372660 17.507227 -24.300437
v -40.440526 17.601488 -24.201720
v -43.400707 14.864221 -24.300437
v -43.332840 14.769959 -24.201720
v -39.988031 16.973011 -24.201720
v -40.055897 17.067272 -24.300437
v -37.173451 6.012712 -23.790361
v -37.289603 6.012712 -23.712809
v -37.289603 18.491016 -23.790361
v -37.289603 18.374861 -23.712809
v -37.173451 18.374861 -23.790361
v -37.831722 6.012712 -23.712809
v -37.947875 6.012712 -23.790361
v -37.947875 18.374861 -23.790361
v -37.831722 18.374861 -23.712809
v -37.831722 18.491016 -23.790361
v -37.947875 6.012712 -24.152336
v -37.831722 6.012712 -24.229891
v -37.831722 18.374861 -24.229891
v -37.947875 18.374861 -24.152336
v -37.831722 18.491016 -24.152336
v -37.289603 6.012712 -24.229891
v -37.173451 6.012712 -24.152336
v -37.173451 18.374861 -24.152336
v -37.289603 18.374861 -24.229891
v -37.289603 18.491016 -24.152336
vt 0.411815 0.197095
vt 0.411768 0.184297
vt 0.955609 0.403587
vt 0.942844 0.403715
vt 0.955169 0.361481
vt 0.956182 0.196450
vt 0.412158 0.252051
vt 0.944090 0.239405
vt 0.958726 0.253988
vt 0.412634 0.306831
vt 0.942892 0.294188
vt 0.957105 0.308798
vt 0.953153 0.351852
vt 0.413128 0.361710
vt 0.941285 0.348936
vt 0.942402 0.361614
vt 0.943597 0.197582
vt 0.412043 0.239308
vt 0.945631 0.252069
vt 0.412521 0.294064
vt 0.944010 0.306889
vt 0.413006 0.348920
vt 0.413545 0.403875
vt 0.998312 0.196977
vt 0.998369 0.239699
vt 0.945002 0.184956
vt 0.956230 0.240349
vt 0.954760 0.297106
vt 0.097340 0.211595
vt 0.097126 0.199763
vt 0.407668 0.184306
vt 0.407882 0.196137
vt 0.115626 0.252441
vt 0.115529 0.240608
vt 0.408225 0.238222
vt 0.408321 0.250055
vt 0.116014 0.300041
vt 0.115917 0.288208
vt 0.408613 0.285822
vt 0.408709 0.297655
vt 0.098279 0.341181
vt 0.098300 0.329348
vt 0.409052 0.339740
vt 0.409032 0.351574
vt 0.407836 0.387322
vt 0.097083 0.376929
vt 0.000084 0.011880
vt 0.000000 0.001024
vt 0.961420 0.000000
vt 0.960811 0.010822
vt 0.972931 0.183435
vt 0.960170 0.183551
vt 0.959912 0.155438
vt 0.972673 0.155320
vt 0.971651 0.010195
vt 0.971876 0.053314
vt 0.961235 0.052867
vt 0.000527 0.064844
vt 0.000429 0.054004
vt 0.962015 0.063695
vt 0.975260 0.066362
vt 0.971038 0.095402
vt 0.959698 0.091730
vt 0.000876 0.103777
vt 0.000780 0.092928
vt 0.960788 0.102513
vt 0.971812 0.103410
vt 0.969867 0.146029
vt 0.959333 0.144612
vt 0.001347 0.156729
vt 0.001250 0.145874
vt 0.001602 0.184855
vt 0.999766 0.010270
vt 1.000000 0.052915
vn 0.000000 -0.707100 0.707114
vn 0.000000 -0.707100 0.707114
vn 0.000000 -0.707100 0.707114
vn 0.000000 -0.707100 0.707114
vn 0.707108 -0.707105 0.000000
vn 0.707108 -0.707105 0.000000
vn 0.707108 -0.707105 0.000000
vn 0.707108 -0.707105 0.000000
vn 0.707102 0.000000 0.707111
vn 0.707102 0.000000 0.707111
vn 0.707102 0.000000 0.707111
vn 0.707102 0.000000 0.707111
vn 0.000000 0.707100 0.707114
vn 0.000000 0.707100 0.707114
vn 0.000000 0.707100 0.707114
vn 0.000000 0.707100 0.707114
vn 0.707108 0.707105 0.000000
vn 0.707108 0.707105 0.000000
vn 0.707108 0.707105 0.000000
vn 0.707108 0.707105 0.000000
vn 0.000000 0.707107 -0.707106
vn 0.000000 0.707107 -0.707106
vn 0.000000 0.707107 -0.707106
vn 0.000000 0.707107 -0.707106
vn 0.707107 0.000000 -0.707107
vn 0.707107 0.000000 -0.707107
vn 0.707107 0.000000 -0.707107
vn 0.707107 0.000000 -0.707107
vn 0.000000 -0.707107 -0.707106
vn 0.000000 -0.707107 -0.707106
vn 0.000000 -0.707107 -0.707106
vn 0.000000 -0.707107 -0.707106
vn 0.000000 0.000000 1.000000
vn 0.000000 0.000000 1.000000
vn 0.000000 0.000000 1.000000
vn 0.000000 0.000000 1.000000
vn 0.000000 1.000000 0.000000
vn 0.000000 1.000000 0.000000
vn 0.000000 1.000000 0.000000
vn 0.000000 1.000000 0.000000
vn 0.000000 0.000000 -1.000000
vn 0.000000 0.000000 -1.000000
vn 0.000000 0.000000 -1.000000
vn 0.000000 0.000000 -1.000000
vn 0.000000 -1.000000 0.000000
vn 0.000000 -1.000000 0.000000
vn 0.000000 -1.000000 0.000000
vn 0.000000 -1.000000 0.000000
vn 1.000000 0.000000 0.000000
vn 1.000000 0.000000 0.000000
vn 1.000000 0.000000 0.000000
vn 1.000000 0.000000 0.000000
vn 0.577328 -0.577378 0.577345
vn 0.577328 -0.577378 0.577345
vn 0.577328 -0.577378 0.577345
vn 0.577331 0.577381 0.577339
vn 0.577331 0.577381 0.577339
vn 0.577331 0.577381 0.577339
vn 0.577359 0.577334 -0.577359
vn 0.577359 0.577334 -0.577359
vn 0.577359 0.577334 -0.577359
vn 0.577356 -0.577331 -0.577364
vn 0.577356 -0.577331 -0.577364
vn 0.577356 -0.577331 -0.577364
vn 0.356391 -0.541096 0.761709
vn 0.356391 -0.541096 0.761709
vn 0.356390 -0.541096 0.761709
vn 0.356391 -0.541096 0.761709
vn -0.378386 0.525550 0.761986
vn -0.378386 0.525550 0.761986
vn -0.378386 0.525550 0.761986
vn -0.378386 0.525550 0.761986
vn -0.378393 0.525556 -0.761977
vn -0.378393 0.525556 -0.761977
vn -0.378393 0.525556 -0.761977
vn -0.378393 0.525556 -0.761977
vn 0.356392 -0.541105 -0.761702
vn 0.356392 -0.541105 -0.761702
vn 0.356392 -0.541105 -0.761702
vn 0.356392 -0.541105 -0.761702
vn 0.000000 0.000000 1.000000
vn 0.000000 0.000000 1.000000
vn 0.000000 0.000000 1.000000
vn 0.000000 0.000000 1.000000
vn -0.584297 0.811540 0.000000
vn -0.584297 0.811540 0.000000
vn -0.584297 0.811540 0.000000
vn -0.584297 0.811540 0.000000
vn 0.000000 0.000000 -1.000000
vn 0.000000 0.000000 -1.000000
vn 0.000000 0.000000 -1.000000
vn 0.000000 0.000000 -1.000000
vn 0.550056 -0.835128 0.000000
vn 0.550056 -0.835128 0.000000
vn 0.550056 -0.835128 0.000000
vn 0.550056 -0.835128 0.000000
vn 0.555282 0.000000 0.831662
vn 0.555282 0.000000 0.831662
vn 0.555282 0.000000 0.831662
vn 0.555282 0.000000 0.831662
vn 0.707119 0.707094 0.000000
vn 0.707119 0.707094 0.000000
vn 0.707119 0.707094 0.000000
vn 0.707119 0.707094 0.000000
vn 0.000000 0.555275 0.831667
vn 0.000000 0.555275 0.831667
vn 0.000000 0.555275 0.831667
vn 0.000000 0.555275 0.831667
vn -0.555282 0.000000 0.831662
vn -0.555282 0.000000 0.831662
vn -0.555282 0.000000 0.831662
vn -0.555282 0.000000 0.831662
vn -0.707119 0.707094 0.000000
vn -0.707119 0.707094 0.000000
vn -0.707119 0.707094 0.000000
vn -0.707119 0.707094 0.000000
vn -0.555297 0.000000 -0.831652
vn -0.555297 0.000000 -0.831652
vn -0.555297 0.000000 -0.831652
vn -0.555297 0.000000 -0.831652
vn 0.000000 0.555289 -0.831657
vn 0.000000 0.555289 -0.831657
vn 0.000000 0.555289 -0.831657
vn 0.000000 0.555289 -0.831657
vn 0.555297 0.000000 -0.831652
vn 0.555297 0.000000 -0.831652
vn 0.555297 0.000000 -0.831652
vn 0.555297 0.000000 -0.831652
vn 0.000000 0.000000 1.000000
vn 0.000000 0.000000 1.000000
vn 0.000000 0.000000 1.000000
vn 0.000000 0.000000 1.000000
vn -1.000000 0.000000 0.000000
vn -1.000000 0.000000 0.000000
vn -1.000000 0.000000 0.000000
vn -1.000000 0.000000 0.000000
vn 0.000000 0.000000 -1.000000
vn 0.000000 0.000000 -1.000000
vn 0.000000 0.000000 -1.000000
vn 0.000000 0.000000 -1.000000
vn 1.000000 0.000000 0.000000
vn 1.000000 0.000000 0.000000
vn 1.000000 0.000000 0.000000
vn 1.000000 0.000000 0.000000
vn 0.000000 1.000000 0.000000
vn 0.000000 1.000000 0.000000
vn 0.000000 1.000000 0.000000
vn 0.000000 1.000000 0.000000
vn 0.485470 0.485449 0.727089
vn 0.485470 0.485449 0.727089
vn 0.485470 0.485449 0.727089
vn -0.485470 0.485449 0.727089
vn -0.485470 0.485449 0.727089
vn -0.485470 0.485449 0.727089
vn -0.485460 0.485481 -0.727074
vn -0.485460 0.485481 -0.727074
vn -0.485460 0.485481 -0.727074
vn 0.485470 0.485449 -0.727089
vn 0.485470 0.485449 -0.727089
vn 0.485470 0.485449 -0.727089
s off
g woodenpole2 assetD floorD LevelPrison
usemtl initialShadingGroup
f 2/1/1 1/2/2 5/26/3 4/17/4
f 3/3/5 5/4/6 18/16/7 20/5/8
f 4/17/9 3/6/10 10/27/11 9/8/12
f 7/7/13 6/18/14 9/8/15 8/19/16
f 8/19/17 10/9/18 15/28/19 14/11/20
f 12/10/21 11/20/22 14/11/23 13/21/24
f 13/21/25 15/12/26 20/13/27 19/15/28
f 17/14/29 16/22/30 19/15/31 18/16/32
f 2/1/33 4/17/34 9/8/35 6/18/36
f 7/7/37 8/19/38 14/11/39 11/20/40
f 12/10/41 13/21/42 19/15/43 16/22/44
f 17/14/45 18/16/46 5/4/47 1/23/48
f 3/6/49 20/24/50 15/25/51 10/27/52
f 3/6/53 4/17/54 5/26/55
f 8/19/56 9/8/57 10/27/58
f 13/21/59 14/11/60 15/28/61
f 18/16/62 19/15/63 20/13/64
f 22/29/65 21/30/66 24/31/67 23/32/68
f 26/33/69 25/34/70 28/35/71 27/36/72
f 30/37/73 29/38/74 32/39/75 31/40/76
f 34/41/77 33/42/78 36/43/79 35/44/80
f 22/29/81 23/32/82 28/35/83 25/34/84
f 26/33/85 27/36/86 32/39/87 29/38/88
f 30/37/89 31/40/90 36/43/91 33/42/92
f 34/41/93 35/44/94 24/45/95 21/46/96
f 38/47/97 37/48/98 41/49/99 40/50/100
f 39/51/101 41/52/102 54/53/103 56/54/104
f 40/50/105 39/55/106 46/56/107 45/57/108
f 43/58/109 42/59/110 45/57/111 44/60/112
f 44/60/113 46/61/114 51/62/115 50/63/116
f 48/64/117 47/65/118 50/63/119 49/66/120
f 49/66/121 51/67/122 56/68/123 55/69/124
f 53/70/125 52/71/126 55/69/127 54/53/128
f 38/47/129 40/50/130 45/57/131 42/59/132
f 43/58/133 44/60/134 50/63/135 47/65/136
f 48/64/137 49/66/138 55/69/139 52/71/140
f 53/70/141 54/53/142 41/52/143 37/72/144
f 39/55/145 56/73/146 51/74/147 46/56/148
f 39/55/149 40/50/150 41/49/151
f 44/60/152 45/57/153 46/56/154
f 49/66/155 50/63/156 51/62/157
f 54/53/158 55/69/159 56/68/160
