# This file uses centimeters as units for non-parametric coordinates.

mtllib clockArm.mtl
g default
v 0.104721 0.324727 0.013412
v 0.104721 0.222877 -0.028793
v 0.104721 0.121026 0.013412
v 0.104721 0.078837 0.115250
v 0.104721 0.121026 0.217087
v 0.104721 0.222877 0.259293
v 0.104721 0.324727 0.217087
v 0.104721 0.366916 0.115250
v 0.104721 0.222877 0.115250
v -0.104721 0.222877 0.115250
v -0.064804 0.324727 0.013412
v -0.104721 0.294177 0.043961
v -0.064804 0.222877 -0.028793
v -0.104721 0.222877 0.014420
v -0.064804 0.121026 0.013412
v -0.104721 0.151576 0.043961
v -0.064804 0.078837 0.115250
v -0.104721 0.122045 0.115250
v -0.064804 0.121026 0.217087
v -0.104721 0.151576 0.186539
v -0.064804 0.222877 0.259293
v -0.104721 0.222877 0.216080
v -0.064804 0.324727 0.217087
v -0.104721 0.294177 0.186539
v -0.064804 0.366916 0.115250
v -0.104721 0.323709 0.115250
v -0.059059 0.266711 0.147141
v 0.087273 0.266711 0.147141
v -0.059059 0.527814 -0.827316
v 0.087273 0.527814 -0.827316
v -0.059059 0.414659 -0.857620
v 0.087273 0.414659 -0.857620
v -0.059059 0.153556 0.116806
v 0.087273 0.153556 0.116806
v -0.059059 0.185531 0.061447
v 0.087273 0.185531 0.061447
v -0.059059 -0.527814 0.774796
v 0.087273 -0.527814 0.774796
v -0.059059 -0.444978 0.857620
v 0.087273 -0.444978 0.857620
v -0.059059 0.268367 0.144302
v 0.087273 0.268367 0.144302
vt 0.610485 0.045765
vt 0.500000 0.000000
vt 0.389515 0.045765
vt 0.343750 0.156250
vt 0.389515 0.266735
vt 0.500000 0.312500
vt 0.610485 0.266735
vt 0.656250 0.156250
vt 0.500000 0.156250
vt 0.625000 0.616027
vt 0.620313 0.687500
vt 0.598437 0.687500
vt 0.379687 0.687500
vt 0.401563 0.687500
vt 0.410937 0.687500
vt 0.432813 0.687500
vt 0.442187 0.687500
vt 0.464063 0.687500
vt 0.473437 0.687500
vt 0.495313 0.687500
vt 0.504687 0.687500
vt 0.526563 0.687500
vt 0.535937 0.687500
vt 0.557813 0.687500
vt 0.567187 0.687500
vt 0.589063 0.687500
vt 0.375000 0.312500
vt 0.406250 0.312500
vt 0.375000 0.616026
vt 0.437500 0.312500
vt 0.406250 0.616027
vt 0.468750 0.312500
vt 0.437500 0.616027
vt 0.500000 0.312500
vt 0.468750 0.616027
vt 0.531250 0.312500
vt 0.500000 0.616027
vt 0.562500 0.312500
vt 0.531250 0.616027
vt 0.593750 0.312500
vt 0.562500 0.616027
vt 0.625000 0.312500
vt 0.593750 0.616027
vt 0.500000 0.953130
vt 0.422656 0.921093
vt 0.390621 0.843750
vt 0.422656 0.766407
vt 0.500000 0.734370
vt 0.577344 0.766407
vt 0.609379 0.843750
vt 0.577344 0.921093
vt 0.500000 0.843750
vt 0.375000 0.000000
vt 0.625000 0.000000
vt 0.625000 0.250000
vt 0.375000 0.250000
vt 0.625000 0.500000
vt 0.375000 0.500000
vt 0.625000 0.750000
vt 0.375000 0.750000
vt 0.625000 1.000000
vt 0.375000 1.000000
vt 0.875000 0.000000
vt 0.875000 0.250000
vt 0.125000 0.000000
vt 0.125000 0.250000
vt 0.375000 0.000000
vt 0.625000 0.000000
vt 0.625000 0.250000
vt 0.375000 0.250000
vt 0.625000 0.500000
vt 0.375000 0.500000
vt 0.625000 0.750000
vt 0.375000 0.750000
vt 0.625000 1.000000
vt 0.375000 1.000000
vt 0.875000 0.000000
vt 0.875000 0.250000
vt 0.125000 0.000000
vt 0.125000 0.250000
vn 1.000000 0.000000 0.000000
vn 1.000000 0.000000 0.000000
vn 1.000000 0.000000 0.000000
vn 1.000000 0.000000 0.000000
vn 1.000000 0.000000 0.000000
vn 1.000000 0.000000 0.000000
vn 1.000000 0.000000 0.000000
vn 1.000000 0.000000 0.000000
vn 1.000000 0.000000 0.000000
vn -0.707141 0.653231 -0.270632
vn -0.707141 0.653231 -0.270632
vn -0.707141 0.653231 -0.270632
vn -0.707141 0.653231 -0.270632
vn -0.707601 0.270485 -0.652793
vn -0.707601 0.270485 -0.652793
vn -0.707601 0.270485 -0.652793
vn -0.707601 0.270485 -0.652793
vn -0.707612 -0.270489 -0.652780
vn -0.707612 -0.270489 -0.652780
vn -0.707612 -0.270489 -0.652780
vn -0.707612 -0.270489 -0.652780
vn -0.707321 -0.653064 -0.270563
vn -0.707321 -0.653064 -0.270563
vn -0.707321 -0.653064 -0.270563
vn -0.707321 -0.653064 -0.270563
vn -0.707231 -0.653147 0.270597
vn -0.707231 -0.653147 0.270597
vn -0.707231 -0.653148 0.270597
vn -0.707231 -0.653147 0.270597
vn -0.706891 -0.270765 0.653446
vn -0.706891 -0.270764 0.653446
vn -0.706891 -0.270765 0.653446
vn -0.706891 -0.270765 0.653446
vn -0.706881 0.270761 0.653459
vn -0.706881 0.270761 0.653459
vn -0.706881 0.270761 0.653459
vn -0.706881 0.270761 0.653459
vn -0.707411 0.652981 0.270528
vn -0.707411 0.652981 0.270528
vn -0.707411 0.652981 0.270528
vn -0.707411 0.652981 0.270528
vn 0.000000 0.382821 -0.923822
vn 0.000000 0.382821 -0.923822
vn 0.000000 0.382821 -0.923822
vn 0.000000 0.382821 -0.923822
vn 0.000000 -0.382821 -0.923822
vn 0.000000 -0.382821 -0.923822
vn 0.000000 -0.382821 -0.923822
vn 0.000000 -0.382821 -0.923822
vn 0.000000 -0.923862 -0.382727
vn 0.000000 -0.923862 -0.382727
vn 0.000000 -0.923862 -0.382727
vn 0.000000 -0.923862 -0.382727
vn 0.000000 -0.923862 0.382727
vn 0.000000 -0.923862 0.382727
vn 0.000000 -0.923862 0.382727
vn 0.000000 -0.923862 0.382727
vn 0.000000 -0.382821 0.923822
vn 0.000000 -0.382821 0.923822
vn 0.000000 -0.382821 0.923822
vn 0.000000 -0.382821 0.923822
vn 0.000000 0.382821 0.923822
vn 0.000000 0.382821 0.923822
vn 0.000000 0.382821 0.923822
vn 0.000000 0.382821 0.923822
vn 0.000000 0.923862 0.382727
vn 0.000000 0.923862 0.382727
vn 0.000000 0.923862 0.382727
vn 0.000000 0.923862 0.382727
vn 0.000000 0.923862 -0.382727
vn 0.000000 0.923862 -0.382727
vn 0.000000 0.923862 -0.382727
vn 0.000000 0.923862 -0.382727
vn -1.000000 0.000000 0.000000
vn -1.000000 0.000000 0.000000
vn -1.000000 0.000000 0.000000
vn -1.000000 0.000000 0.000000
vn -1.000000 0.000000 0.000000
vn -1.000000 0.000000 0.000000
vn -1.000000 0.000000 0.000000
vn -1.000000 0.000000 0.000000
vn -1.000000 0.000000 0.000000
vn 0.000000 0.965926 0.258817
vn 0.000000 0.965926 0.258817
vn 0.000000 0.965926 0.258817
vn 0.000000 0.965926 0.258817
vn 0.000000 0.258688 -0.965961
vn 0.000000 0.258688 -0.965961
vn 0.000000 0.258688 -0.965961
vn 0.000000 0.258688 -0.965961
vn 0.000000 -0.965923 -0.258830
vn 0.000000 -0.965923 -0.258830
vn 0.000000 -0.965923 -0.258830
vn 0.000000 -0.965923 -0.258830
vn 0.000000 -0.258935 0.965895
vn 0.000000 -0.258935 0.965895
vn 0.000000 -0.258935 0.965895
vn 0.000000 -0.258935 0.965895
vn 1.000000 0.000000 0.000000
vn 1.000000 0.000000 0.000000
vn 1.000000 0.000000 0.000000
vn 1.000000 0.000000 0.000000
vn -1.000000 -0.000065 0.000000
vn -1.000000 -0.000065 0.000000
vn -1.000000 -0.000065 0.000000
vn -1.000000 -0.000065 0.000000
vn 0.000000 -0.707108 -0.707105
vn 0.000000 -0.707108 -0.707105
vn 0.000000 -0.707108 -0.707105
vn 0.000000 -0.707108 -0.707105
vn 0.000000 -0.707065 0.707148
vn 0.000000 -0.707065 0.707148
vn 0.000000 -0.707065 0.707148
vn 0.000000 -0.707065 0.707148
vn 0.000000 0.707083 0.707131
vn 0.000000 0.707083 0.707131
vn 0.000000 0.707083 0.707131
vn 0.000000 0.707083 0.707131
vn 0.000000 0.707176 -0.707037
vn 0.000000 0.707176 -0.707037
vn 0.000000 0.707176 -0.707037
vn 0.000000 0.707176 -0.707037
vn 1.000000 0.000000 0.000000
vn 1.000000 0.000000 0.000000
vn 1.000000 0.000000 0.000000
vn 1.000000 0.000000 0.000000
vn -1.000000 0.000000 0.000000
vn -1.000000 0.000000 0.000000
vn -1.000000 0.000000 0.000000
vn -1.000000 0.000000 0.000000
s 1
g clockArms
usemtl initialShadingGroup
f 2/2/1 1/1/2 9/9/3
f 3/3/4 2/2/1 9/9/3
f 4/4/5 3/3/4 9/9/3
f 5/5/6 4/4/5 9/9/3
f 6/6/7 5/5/6 9/9/3
f 7/7/8 6/6/7 9/9/3
f 8/8/9 7/7/8 9/9/3
f 1/1/2 8/8/9 9/9/3
s off
f 11/10/10 12/11/11 26/12/12 25/43/13
f 12/13/14 11/29/15 13/31/16 14/14/17
f 14/15/18 13/31/19 15/33/20 16/16/21
f 16/17/22 15/33/23 17/35/24 18/18/25
f 18/19/26 17/35/27 19/37/28 20/20/29
f 20/21/30 19/37/31 21/39/32 22/22/33
f 22/23/34 21/39/35 23/41/36 24/24/37
f 24/25/38 23/41/39 25/43/40 26/26/41
f 1/27/42 2/28/43 13/31/44 11/29/45
f 2/28/46 3/30/47 15/33/48 13/31/49
f 3/30/50 4/32/51 17/35/52 15/33/53
f 4/32/54 5/34/55 19/37/56 17/35/57
f 5/34/58 6/36/59 21/39/60 19/37/61
f 6/36/62 7/38/63 23/41/64 21/39/65
f 7/38/66 8/40/67 25/43/68 23/41/69
f 8/40/70 1/42/71 11/10/72 25/43/73
s 2
f 12/51/74 14/44/75 10/52/76
f 14/44/75 16/45/77 10/52/76
f 16/45/77 18/46/78 10/52/76
f 18/46/78 20/47/79 10/52/76
f 20/47/79 22/48/80 10/52/76
f 22/48/80 24/49/81 10/52/76
f 24/49/81 26/50/82 10/52/76
f 26/50/82 12/51/74 10/52/76
s off
f 27/53/83 28/54/84 30/55/85 29/56/86
f 29/56/87 30/55/88 32/57/89 31/58/90
f 31/58/91 32/57/92 34/59/93 33/60/94
f 33/60/95 34/59/96 28/61/97 27/62/98
f 28/54/99 34/63/100 32/64/101 30/55/102
f 33/65/103 27/53/104 29/56/105 31/66/106
f 35/67/107 36/68/108 38/69/109 37/70/110
f 37/70/111 38/69/112 40/71/113 39/72/114
f 39/72/115 40/71/116 42/73/117 41/74/118
f 41/74/119 42/73/120 36/75/121 35/76/122
f 36/68/123 42/77/124 40/78/125 38/69/126
f 41/79/127 35/67/128 37/70/129 39/80/130
