# This file uses centimeters as units for non-parametric coordinates.

mtllib clock.mtl
g default
v -1.025541 2.209922 1.773226
v -1.025541 1.589224 1.152525
v -1.025541 0.741328 0.925333
v -1.025541 -0.106565 1.152525
v -1.025541 -0.727265 1.773226
v -1.025541 -0.954459 2.621119
v -1.025541 -0.727265 3.469012
v -1.025541 -0.106565 4.089713
v -1.025541 0.741328 4.316905
v -1.025541 1.589224 4.089713
v -1.025541 2.209922 3.469012
v -1.025541 2.437116 2.621119
v -1.025541 0.741328 2.621119
v -1.304056 1.969832 1.911842
v -1.304056 1.450608 1.392615
v -1.304056 0.741328 2.621119
v -1.304056 0.741328 1.202565
v -1.304056 0.032051 1.392615
v -1.304056 -0.487174 1.911842
v -1.304056 -0.677227 2.621119
v -1.304056 -0.487174 3.330396
v -1.304056 0.032051 3.849623
v -1.304056 0.741328 4.039674
v -1.304056 1.450608 3.849623
v -1.304056 1.969832 3.330396
v -1.304056 2.159886 2.621119
v -1.499025 2.209922 1.773226
v -1.539189 2.173914 1.794016
v -1.499025 1.589224 1.152525
v -1.539189 1.568433 1.188535
v -1.499025 0.741328 0.925333
v -1.539189 0.741328 0.966913
v -1.499025 -0.106565 1.152525
v -1.539189 -0.085775 1.188535
v -1.499025 -0.727265 1.773226
v -1.539189 -0.691255 1.794016
v -1.499025 -0.954459 2.621119
v -1.539189 -0.912878 2.621119
v -1.499025 -0.727265 3.469012
v -1.539189 -0.691255 3.448222
v -1.499025 -0.106565 4.089713
v -1.539189 -0.085775 4.053703
v -1.499025 0.741328 4.316905
v -1.539189 0.741328 4.275325
v -1.499025 1.589224 4.089713
v -1.539189 1.568433 4.053703
v -1.499025 2.209922 3.469012
v -1.539189 2.173914 3.448222
v -1.499025 2.437116 2.621119
v -1.539189 2.395535 2.621119
v -1.539189 2.005843 1.891052
v -1.499025 1.969832 1.911842
v -1.539189 1.471399 1.356605
v -1.499025 1.450608 1.392615
v -1.539189 0.741328 1.160984
v -1.499025 0.741328 1.202565
v -1.539189 0.011262 1.356605
v -1.499025 0.032051 1.392615
v -1.539189 -0.523183 1.891052
v -1.499025 -0.487174 1.911842
v -1.539189 -0.718807 2.621119
v -1.499025 -0.677227 2.621119
v -1.539189 -0.523183 3.351187
v -1.499025 -0.487174 3.330396
v -1.539189 0.011262 3.885633
v -1.499025 0.032051 3.849623
v -1.539189 0.741328 4.081254
v -1.499025 0.741328 4.039674
v -1.539189 1.471399 3.885633
v -1.499025 1.450608 3.849623
v -1.539189 2.005843 3.351187
v -1.499025 1.969832 3.330396
v -1.539189 2.201465 2.621119
v -1.499025 2.159886 2.621119
vt 0.635316 0.078125
vt 0.578125 0.020934
vt 0.500000 0.000000
vt 0.421875 0.020934
vt 0.364684 0.078125
vt 0.343750 0.156250
vt 0.364684 0.234375
vt 0.421875 0.291566
vt 0.500000 0.312500
vt 0.578125 0.291566
vt 0.635316 0.234375
vt 0.656250 0.156250
vt 0.500000 0.156250
vt 0.500000 0.843750
vt 0.625000 0.658178
vt 0.624744 0.687500
vt 0.604422 0.687500
vt 0.375255 0.687500
vt 0.395578 0.687500
vt 0.396089 0.687500
vt 0.416411 0.687500
vt 0.416922 0.687500
vt 0.437245 0.687500
vt 0.437755 0.687500
vt 0.458078 0.687500
vt 0.458589 0.687500
vt 0.478911 0.687500
vt 0.479422 0.687500
vt 0.499745 0.687500
vt 0.500255 0.687500
vt 0.520578 0.687500
vt 0.521089 0.687500
vt 0.541411 0.687500
vt 0.541922 0.687500
vt 0.562245 0.687500
vt 0.562755 0.687500
vt 0.583078 0.687500
vt 0.583589 0.687500
vt 0.603911 0.687500
vt 0.375000 0.312500
vt 0.395833 0.312500
vt 0.375000 0.658178
vt 0.416667 0.312500
vt 0.395833 0.658178
vt 0.437500 0.312500
vt 0.416667 0.658178
vt 0.458333 0.312500
vt 0.437500 0.658178
vt 0.479167 0.312500
vt 0.458333 0.658178
vt 0.500000 0.312500
vt 0.479167 0.658178
vt 0.520833 0.312500
vt 0.500000 0.658178
vt 0.541667 0.312500
vt 0.520833 0.658178
vt 0.562500 0.312500
vt 0.541667 0.658178
vt 0.583333 0.312500
vt 0.562500 0.658178
vt 0.604167 0.312500
vt 0.583333 0.658178
vt 0.625000 0.312500
vt 0.604167 0.658178
vt 0.578125 0.979066
vt 0.635316 0.921875
vt 0.500000 1.000000
vt 0.578125 0.979066
vt 0.421875 0.979066
vt 0.500000 1.000000
vt 0.364684 0.921875
vt 0.421875 0.979066
vt 0.343750 0.843750
vt 0.364684 0.921875
vt 0.364684 0.765625
vt 0.343750 0.843750
vt 0.421875 0.708434
vt 0.364684 0.765625
vt 0.500000 0.687500
vt 0.421875 0.708434
vt 0.578125 0.708434
vt 0.500000 0.687500
vt 0.635316 0.765625
vt 0.578125 0.708434
vt 0.656250 0.843750
vt 0.635316 0.765625
vt 0.635316 0.921875
vt 0.656250 0.843750
vt 0.578125 0.979066
vt 0.635316 0.921875
vt 0.500000 1.000000
vt 0.578125 0.979066
vt 0.421875 0.979066
vt 0.500000 1.000000
vt 0.364684 0.921875
vt 0.421875 0.979066
vt 0.343750 0.843750
vt 0.364684 0.921875
vt 0.364684 0.765625
vt 0.343750 0.843750
vt 0.421875 0.708434
vt 0.364684 0.765625
vt 0.500000 0.687500
vt 0.421875 0.708434
vt 0.578125 0.708434
vt 0.500000 0.687500
vt 0.635316 0.765625
vt 0.578125 0.708434
vt 0.656250 0.843750
vt 0.635316 0.765625
vt 0.635316 0.921875
vt 0.656250 0.843750
vn 0.830728 0.278339 -0.482098
vn 0.830728 0.482097 -0.278339
vn 1.000000 0.000000 0.000000
vn 0.830728 0.000000 -0.556678
vn 0.830728 -0.278339 -0.482098
vn 0.830728 -0.482097 -0.278339
vn 0.830728 -0.556679 0.000000
vn 0.830728 -0.482097 0.278339
vn 0.830728 -0.278339 0.482098
vn 0.830728 0.000000 0.556678
vn 0.830728 0.278339 0.482098
vn 0.830728 0.482097 0.278339
vn 0.830728 0.556678 0.000000
vn -0.949668 -0.271289 0.156629
vn -0.949668 -0.156629 0.271290
vn -1.000000 -0.000000 -0.000000
vn -0.949668 0.000000 0.313259
vn -0.949668 0.156630 0.271290
vn -0.949668 0.271290 0.156629
vn -0.949668 0.313260 0.000000
vn -0.949668 0.271290 -0.156629
vn -0.949668 0.156630 -0.271290
vn -0.949668 0.000000 -0.313259
vn -0.949668 -0.156629 -0.271290
vn -0.949668 -0.271289 -0.156629
vn -0.949668 -0.313259 0.000000
vn -0.077908 0.863393 -0.498480
vn -0.977975 0.180759 -0.104361
vn -0.977975 0.208722 -0.000000
vn -0.077908 0.996961 0.000000
vn -0.077909 0.498480 -0.863393
vn -0.977975 0.104361 -0.180758
vn -0.077909 -0.000000 -0.996960
vn -0.977975 -0.000000 -0.208721
vn -0.077909 -0.498480 -0.863393
vn -0.977975 -0.104360 -0.180758
vn -0.077909 -0.863393 -0.498480
vn -0.977975 -0.180757 -0.104360
vn -0.077910 -0.996960 0.000000
vn -0.977975 -0.208720 0.000000
vn -0.077909 -0.863393 0.498480
vn -0.977975 -0.180757 0.104360
vn -0.077909 -0.498480 0.863393
vn -0.977975 -0.104360 0.180758
vn -0.077909 -0.000000 0.996960
vn -0.977975 -0.000000 0.208721
vn -0.077909 0.498480 0.863393
vn -0.977975 0.104361 0.180758
vn -0.077908 0.863393 0.498480
vn -0.977975 0.180759 0.104361
vn -0.990732 -0.117632 0.067915
vn -0.179768 -0.851917 0.491855
vn -0.179767 -0.983709 -0.000000
vn -0.990732 -0.135830 -0.000000
vn -0.990732 -0.067915 0.117632
vn -0.179769 -0.491854 0.851917
vn -0.990732 -0.000000 0.135830
vn -0.179767 0.000000 0.983709
vn -0.990732 0.067915 0.117632
vn -0.179765 0.491856 0.851917
vn -0.990732 0.117632 0.067915
vn -0.179763 0.851918 0.491855
vn -0.990732 0.135829 0.000000
vn -0.179764 0.983710 0.000000
vn -0.990732 0.117632 -0.067915
vn -0.179763 0.851918 -0.491855
vn -0.990732 0.067915 -0.117632
vn -0.179765 0.491856 -0.851917
vn -0.990732 -0.000000 -0.135830
vn -0.179767 0.000000 -0.983709
vn -0.990732 -0.067915 -0.117632
vn -0.179769 -0.491854 -0.851917
vn -0.990732 -0.117632 -0.067915
vn -0.179768 -0.851917 -0.491855
s 1
g clock timeMachine Hub
usemtl initialShadingGroup
f 2/2/1 1/1/2 13/13/3
f 3/3/4 2/2/1 13/13/3
f 4/4/5 3/3/4 13/13/3
f 5/5/6 4/4/5 13/13/3
f 6/6/7 5/5/6 13/13/3
f 7/7/8 6/6/7 13/13/3
f 8/8/9 7/7/8 13/13/3
f 9/9/10 8/8/9 13/13/3
f 10/10/11 9/9/10 13/13/3
f 11/11/12 10/10/11 13/13/3
f 12/12/13 11/11/12 13/13/3
f 1/1/2 12/12/13 13/13/3
f 14/90/14 15/92/15 16/14/16
f 15/92/15 17/94/17 16/14/16
f 17/94/17 18/96/18 16/14/16
f 18/96/18 19/98/19 16/14/16
f 19/98/19 20/100/20 16/14/16
f 20/100/20 21/102/21 16/14/16
f 21/102/21 22/104/22 16/14/16
f 22/104/22 23/106/23 16/14/16
f 23/106/23 24/108/24 16/14/16
f 24/108/24 25/110/25 16/14/16
f 25/110/25 26/112/26 16/14/16
f 26/112/26 14/90/14 16/14/16
f 27/15/27 28/16/28 50/17/29 49/64/30
f 28/18/28 27/42/27 29/44/31 30/19/32
f 30/20/32 29/44/31 31/46/33 32/21/34
f 32/22/34 31/46/33 33/48/35 34/23/36
f 34/24/36 33/48/35 35/50/37 36/25/38
f 36/26/38 35/50/37 37/52/39 38/27/40
f 38/28/40 37/52/39 39/54/41 40/29/42
f 40/30/42 39/54/41 41/56/43 42/31/44
f 42/32/44 41/56/43 43/58/45 44/33/46
f 44/34/46 43/58/45 45/60/47 46/35/48
f 46/36/48 45/60/47 47/62/49 48/37/50
f 48/38/50 47/62/49 49/64/30 50/39/29
f 51/66/51 52/111/52 74/109/53 73/88/54
f 52/111/52 51/66/51 53/68/55 54/89/56
f 54/89/56 53/68/55 55/70/57 56/91/58
f 56/91/58 55/70/57 57/72/59 58/93/60
f 58/93/60 57/72/59 59/74/61 60/95/62
f 60/95/62 59/74/61 61/76/63 62/97/64
f 62/97/64 61/76/63 63/78/65 64/99/66
f 64/99/66 63/78/65 65/80/67 66/101/68
f 66/101/68 65/80/67 67/82/69 68/103/70
f 68/103/70 67/82/69 69/84/71 70/105/72
f 70/105/72 69/84/71 71/86/73 72/107/74
f 72/107/74 71/86/73 73/88/54 74/109/53
f 1/40/2 2/41/1 29/44/31 27/42/27
f 2/41/1 3/43/4 31/46/33 29/44/31
f 3/43/4 4/45/5 33/48/35 31/46/33
f 4/45/5 5/47/6 35/50/37 33/48/35
f 5/47/6 6/49/7 37/52/39 35/50/37
f 6/49/7 7/51/8 39/54/41 37/52/39
f 7/51/8 8/53/9 41/56/43 39/54/41
f 8/53/9 9/55/10 43/58/45 41/56/43
f 9/55/10 10/57/11 45/60/47 43/58/45
f 10/57/11 11/59/12 47/62/49 45/60/47
f 11/59/12 12/61/13 49/64/30 47/62/49
f 12/61/13 1/63/2 27/15/27 49/64/30
f 28/87/28 30/65/32 53/68/55 51/66/51
f 30/65/32 32/67/34 55/70/57 53/68/55
f 32/67/34 34/69/36 57/72/59 55/70/57
f 34/69/36 36/71/38 59/74/61 57/72/59
f 36/71/38 38/73/40 61/76/63 59/74/61
f 38/73/40 40/75/42 63/78/65 61/76/63
f 40/75/42 42/77/44 65/80/67 63/78/65
f 42/77/44 44/79/46 67/82/69 65/80/67
f 44/79/46 46/81/48 69/84/71 67/82/69
f 46/81/48 48/83/50 71/86/73 69/84/71
f 48/83/50 50/85/29 73/88/54 71/86/73
f 50/85/29 28/87/28 51/66/51 73/88/54
f 52/111/52 54/89/56 15/92/15 14/90/14
f 54/89/56 56/91/58 17/94/17 15/92/15
f 56/91/58 58/93/60 18/96/18 17/94/17
f 58/93/60 60/95/62 19/98/19 18/96/18
f 60/95/62 62/97/64 20/100/20 19/98/19
f 62/97/64 64/99/66 21/102/21 20/100/20
f 64/99/66 66/101/68 22/104/22 21/102/21
f 66/101/68 68/103/70 23/106/23 22/104/22
f 68/103/70 70/105/72 24/108/24 23/106/23
f 70/105/72 72/107/74 25/110/25 24/108/24
f 72/107/74 74/109/53 26/112/26 25/110/25
f 74/109/53 52/111/52 14/90/14 26/112/26
