# This file uses centimeters as units for non-parametric coordinates.

mtllib grid.mtl
g default
v 2.326471 -0.169610 2.211717
v 2.326471 -0.169610 1.937482
v -2.326466 -0.169610 2.211717
v -2.326466 -0.169610 1.937482
v 2.326471 0.043307 2.170581
v 2.326471 0.002177 2.211717
v -2.326466 0.002177 2.211717
v -2.326466 0.043307 2.170581
v 2.326471 0.002177 1.937482
v 2.326471 0.043307 1.978617
v -2.326466 0.043307 1.978617
v -2.326466 0.002177 1.937482
v 2.326471 -0.169610 1.782978
v 2.326471 -0.169610 1.508744
v -2.326466 -0.169610 1.782978
v -2.326466 -0.169610 1.508744
v 2.326471 0.043307 1.741843
v 2.326471 0.002177 1.782978
v -2.326466 0.002177 1.782978
v -2.326466 0.043307 1.741843
v 2.326471 0.002177 1.508744
v 2.326471 0.043307 1.549879
v -2.326466 0.043307 1.549879
v -2.326466 0.002177 1.508744
v 2.326471 -0.169610 1.324327
v 2.326471 -0.169610 1.050093
v -2.326466 -0.169610 1.324327
v -2.326466 -0.169610 1.050093
v 2.326471 0.043307 1.283192
v 2.326471 0.002177 1.324327
v -2.326466 0.002177 1.324327
v -2.326466 0.043307 1.283192
v 2.326471 0.002177 1.050093
v 2.326471 0.043307 1.091228
v -2.326466 0.043307 1.091228
v -2.326466 0.002177 1.050093
v 2.326471 -0.169610 0.865676
v 2.326471 -0.169610 0.591442
v -2.326466 -0.169610 0.865676
v -2.326466 -0.169610 0.591442
v 2.326471 0.043307 0.824541
v 2.326471 0.002177 0.865676
v -2.326466 0.002177 0.865676
v -2.326466 0.043307 0.824541
v 2.326471 0.002177 0.591442
v 2.326471 0.043307 0.632577
v -2.326466 0.043307 0.632577
v -2.326466 0.002177 0.591442
v 2.326471 -0.169610 0.407025
v 2.326471 -0.169610 0.132790
v -2.326466 -0.169610 0.407025
v -2.326466 -0.169610 0.132790
v 2.326471 0.043307 0.365890
v 2.326471 0.002177 0.407025
v -2.326466 0.002177 0.407025
v -2.326466 0.043307 0.365890
v 2.326471 0.002177 0.132790
v 2.326471 0.043307 0.173925
v -2.326466 0.043307 0.173925
v -2.326466 0.002177 0.132790
v 2.326471 -0.169610 -0.051607
v 2.326471 -0.169610 -0.325841
v -2.326466 -0.169610 -0.051607
v -2.326466 -0.169610 -0.325841
v 2.326471 0.043307 -0.092742
v 2.326471 0.002177 -0.051607
v -2.326466 0.002177 -0.051607
v -2.326466 0.043307 -0.092742
v 2.326471 0.002177 -0.325841
v 2.326471 0.043307 -0.284706
v -2.326466 0.043307 -0.284706
v -2.326466 0.002177 -0.325841
v 2.326471 -0.169610 -0.510258
v 2.326471 -0.169610 -0.784492
v -2.326466 -0.169610 -0.510258
v -2.326466 -0.169610 -0.784492
v 2.326471 0.043307 -0.551393
v 2.326471 0.002177 -0.510258
v -2.326466 0.002177 -0.510258
v -2.326466 0.043307 -0.551393
v 2.326471 0.002177 -0.784492
v 2.326471 0.043307 -0.743357
v -2.326466 0.043307 -0.743357
v -2.326466 0.002177 -0.784492
v 2.326471 -0.169610 -0.968909
v 2.326471 -0.169610 -1.243143
v -2.326466 -0.169610 -0.968909
v -2.326466 -0.169610 -1.243143
v 2.326471 0.043307 -1.010044
v 2.326471 0.002177 -0.968909
v -2.326466 0.002177 -0.968909
v -2.326466 0.043307 -1.010044
v 2.326471 0.002177 -1.243143
v 2.326471 0.043307 -1.202008
v -2.326466 0.043307 -1.202008
v -2.326466 0.002177 -1.243143
v 2.326471 -0.169610 -1.427560
v 2.326471 -0.169610 -1.701795
v -2.326466 -0.169610 -1.427560
v -2.326466 -0.169610 -1.701795
v 2.326471 0.043307 -1.468695
v 2.326471 0.002177 -1.427560
v -2.326466 0.002177 -1.427560
v -2.326466 0.043307 -1.468695
v 2.326471 0.002177 -1.701795
v 2.326471 0.043307 -1.660659
v -2.326466 0.043307 -1.660659
v -2.326466 0.002177 -1.701795
v 2.765616 -0.280361 2.667483
v 2.765616 -0.280361 -2.667483
v -2.765616 -0.280361 2.667483
v -2.765616 -0.280361 -2.667483
v -2.286911 -0.282712 2.205730
v -2.286911 -0.282712 -2.205730
v 2.286857 -0.282712 -2.205730
v 2.286857 -0.282712 2.205730
v 2.461849 0.282712 2.380663
v 2.286857 0.108594 2.205730
v 2.461849 0.282712 -2.380723
v 2.286857 0.108594 -2.205730
v -2.461904 0.282712 -2.380723
v -2.286911 0.108594 -2.205730
v -2.461904 0.282712 2.380663
v -2.286911 0.108594 2.205730
v 2.765616 0.194223 2.667483
v 2.678589 0.281669 2.580432
v 2.765616 0.194223 -2.667483
v 2.678589 0.281669 -2.580451
v -2.765616 0.194223 2.667483
v -2.678589 0.281669 2.580432
v -2.765616 0.194223 -2.667483
v -2.678589 0.281669 -2.580451
v 2.326471 -0.169610 -1.886211
v 2.326471 -0.169610 -2.160446
v -2.326466 -0.169610 -1.886211
v -2.326466 -0.169610 -2.160446
v 2.326471 0.043307 -1.927347
v 2.326471 0.002177 -1.886211
v -2.326466 0.002177 -1.886211
v -2.326466 0.043307 -1.927347
v 2.326471 0.002177 -2.160446
v 2.326471 0.043307 -2.119311
v -2.326466 0.043307 -2.119311
v -2.326466 0.002177 -2.160446
vt 0.375000 0.750000
vt 0.625000 0.750000
vt 0.375000 1.000000
vt 0.625000 1.000000
vt 0.125000 0.000000
vt 0.375000 0.000000
vt 0.375000 0.201708
vt 0.125000 0.201708
vt 0.412506 0.250000
vt 0.587494 0.500000
vt 0.625000 0.000000
vt 0.875000 0.000000
vt 0.875000 0.201708
vt 0.625000 0.201708
vt 0.375000 0.250000
vt 0.412506 0.500000
vt 0.375000 0.500000
vt 0.587494 0.250000
vt 0.625000 0.250000
vt 0.625000 0.500000
vt 0.412506 0.500000
vt 0.412506 0.250000
vt 0.587494 0.250000
vt 0.587494 0.500000
vt 0.375000 0.750000
vt 0.625000 0.750000
vt 0.625000 1.000000
vt 0.375000 1.000000
vt 0.625000 0.000000
vt 0.875000 0.000000
vt 0.875000 0.201708
vt 0.625000 0.201708
vt 0.125000 0.000000
vt 0.375000 0.000000
vt 0.375000 0.201708
vt 0.125000 0.201708
vt 0.375000 0.250000
vt 0.375000 0.500000
vt 0.625000 0.250000
vt 0.625000 0.500000
vt 0.412506 0.500000
vt 0.412506 0.250000
vt 0.587494 0.250000
vt 0.587494 0.500000
vt 0.375000 0.750000
vt 0.625000 0.750000
vt 0.625000 1.000000
vt 0.375000 1.000000
vt 0.625000 0.000000
vt 0.875000 0.000000
vt 0.875000 0.201708
vt 0.625000 0.201708
vt 0.125000 0.000000
vt 0.375000 0.000000
vt 0.375000 0.201708
vt 0.125000 0.201708
vt 0.375000 0.250000
vt 0.375000 0.500000
vt 0.625000 0.250000
vt 0.625000 0.500000
vt 0.412506 0.500000
vt 0.412506 0.250000
vt 0.587494 0.250000
vt 0.587494 0.500000
vt 0.375000 0.750000
vt 0.625000 0.750000
vt 0.625000 1.000000
vt 0.375000 1.000000
vt 0.625000 0.000000
vt 0.875000 0.000000
vt 0.875000 0.201708
vt 0.625000 0.201708
vt 0.125000 0.000000
vt 0.375000 0.000000
vt 0.375000 0.201708
vt 0.125000 0.201708
vt 0.375000 0.250000
vt 0.375000 0.500000
vt 0.625000 0.250000
vt 0.625000 0.500000
vt 0.412506 0.500000
vt 0.412506 0.250000
vt 0.587494 0.250000
vt 0.587494 0.500000
vt 0.375000 0.750000
vt 0.625000 0.750000
vt 0.625000 1.000000
vt 0.375000 1.000000
vt 0.625000 0.000000
vt 0.875000 0.000000
vt 0.875000 0.201708
vt 0.625000 0.201708
vt 0.125000 0.000000
vt 0.375000 0.000000
vt 0.375000 0.201708
vt 0.125000 0.201708
vt 0.375000 0.250000
vt 0.375000 0.500000
vt 0.625000 0.250000
vt 0.625000 0.500000
vt 0.412506 0.500000
vt 0.412506 0.250000
vt 0.587494 0.250000
vt 0.587494 0.500000
vt 0.375000 0.750000
vt 0.625000 0.750000
vt 0.625000 1.000000
vt 0.375000 1.000000
vt 0.625000 0.000000
vt 0.875000 0.000000
vt 0.875000 0.201708
vt 0.625000 0.201708
vt 0.125000 0.000000
vt 0.375000 0.000000
vt 0.375000 0.201708
vt 0.125000 0.201708
vt 0.375000 0.250000
vt 0.375000 0.500000
vt 0.625000 0.250000
vt 0.625000 0.500000
vt 0.412506 0.500000
vt 0.412506 0.250000
vt 0.587494 0.250000
vt 0.587494 0.500000
vt 0.375000 0.750000
vt 0.625000 0.750000
vt 0.625000 1.000000
vt 0.375000 1.000000
vt 0.625000 0.000000
vt 0.875000 0.000000
vt 0.875000 0.201708
vt 0.625000 0.201708
vt 0.125000 0.000000
vt 0.375000 0.000000
vt 0.375000 0.201708
vt 0.125000 0.201708
vt 0.375000 0.250000
vt 0.375000 0.500000
vt 0.625000 0.250000
vt 0.625000 0.500000
vt 0.412506 0.500000
vt 0.412506 0.250000
vt 0.587494 0.250000
vt 0.587494 0.500000
vt 0.375000 0.750000
vt 0.625000 0.750000
vt 0.625000 1.000000
vt 0.375000 1.000000
vt 0.625000 0.000000
vt 0.875000 0.000000
vt 0.875000 0.201708
vt 0.625000 0.201708
vt 0.125000 0.000000
vt 0.375000 0.000000
vt 0.375000 0.201708
vt 0.125000 0.201708
vt 0.375000 0.250000
vt 0.375000 0.500000
vt 0.625000 0.250000
vt 0.625000 0.500000
vt 0.412506 0.500000
vt 0.412506 0.250000
vt 0.587494 0.250000
vt 0.587494 0.500000
vt 0.375000 0.750000
vt 0.625000 0.750000
vt 0.625000 1.000000
vt 0.375000 1.000000
vt 0.625000 0.000000
vt 0.875000 0.000000
vt 0.875000 0.201708
vt 0.625000 0.201708
vt 0.125000 0.000000
vt 0.375000 0.000000
vt 0.375000 0.201708
vt 0.125000 0.201708
vt 0.375000 0.250000
vt 0.375000 0.500000
vt 0.625000 0.250000
vt 0.625000 0.500000
vt 0.375000 0.750000
vt 0.625000 0.750000
vt 0.625000 0.750000
vt 0.375000 0.749999
vt 0.625000 1.000000
vt 0.625000 0.999999
vt 0.375000 1.000000
vt 0.375000 0.999999
vt 0.375001 0.250351
vt 0.375000 0.399984
vt 0.375000 0.549995
vt 0.375000 0.499710
vt 0.625000 0.250292
vt 0.625000 0.399984
vt 0.625000 0.499649
vt 0.625000 0.549995
vt 0.375000 0.225003
vt 0.375229 0.250101
vt 0.129052 0.250000
vt 0.125000 0.225003
vt 0.625000 0.225003
vt 0.624744 0.250084
vt 0.629052 0.250000
vt 0.875000 0.225003
vt 0.871068 0.250000
vt 0.375000 0.524997
vt 0.375255 0.499917
vt 0.624772 0.499899
vt 0.625000 0.524997
vt 0.375000 0.000000
vt 0.625000 0.000000
vt 0.875000 0.000000
vt 0.125000 0.000000
vt 0.412506 0.500000
vt 0.412506 0.250000
vt 0.587494 0.250000
vt 0.587494 0.500000
vt 0.375000 0.750000
vt 0.625000 0.750000
vt 0.625000 1.000000
vt 0.375000 1.000000
vt 0.625000 0.000000
vt 0.875000 0.000000
vt 0.875000 0.201708
vt 0.625000 0.201708
vt 0.125000 0.000000
vt 0.375000 0.000000
vt 0.375000 0.201708
vt 0.125000 0.201708
vt 0.375000 0.250000
vt 0.375000 0.500000
vt 0.625000 0.250000
vt 0.625000 0.500000
vn 0.000000 1.000000 0.000000
vn 0.000000 1.000000 0.000000
vn 0.000000 1.000000 0.000000
vn 0.000000 1.000000 0.000000
vn 0.000000 -1.000000 0.000000
vn 0.000000 -1.000000 0.000000
vn 0.000000 -1.000000 0.000000
vn 0.000000 -1.000000 0.000000
vn 0.000000 0.000000 -1.000000
vn 0.000000 0.000000 -1.000000
vn 0.000000 0.000000 -1.000000
vn 0.000000 0.000000 -1.000000
vn 0.000000 0.000000 1.000000
vn 0.000000 0.000000 1.000000
vn 0.000000 0.000000 1.000000
vn 0.000000 0.000000 1.000000
vn 0.000000 0.707160 0.707054
vn 0.000000 0.707160 0.707054
vn 0.000000 0.707160 0.707054
vn 0.000000 0.707160 0.707054
vn 0.000000 0.707160 -0.707054
vn 0.000000 0.707160 -0.707054
vn 0.000000 0.707160 -0.707054
vn 0.000000 0.707160 -0.707054
vn 0.000000 1.000000 0.000000
vn 0.000000 1.000000 0.000000
vn 0.000000 1.000000 0.000000
vn 0.000000 1.000000 0.000000
vn 0.000000 -1.000000 0.000000
vn 0.000000 -1.000000 0.000000
vn 0.000000 -1.000000 0.000000
vn 0.000000 -1.000000 0.000000
vn 0.000000 0.000000 -1.000000
vn 0.000000 0.000000 -1.000000
vn 0.000000 0.000000 -1.000000
vn 0.000000 0.000000 -1.000000
vn 0.000000 0.000000 1.000000
vn 0.000000 0.000000 1.000000
vn 0.000000 0.000000 1.000000
vn 0.000000 0.000000 1.000000
vn 0.000000 0.707160 0.707054
vn 0.000000 0.707160 0.707054
vn 0.000000 0.707160 0.707054
vn 0.000000 0.707160 0.707054
vn 0.000000 0.707160 -0.707054
vn 0.000000 0.707160 -0.707054
vn 0.000000 0.707160 -0.707054
vn 0.000000 0.707160 -0.707054
vn 0.000000 1.000000 0.000000
vn 0.000000 1.000000 0.000000
vn 0.000000 1.000000 0.000000
vn 0.000000 1.000000 0.000000
vn 0.000000 -1.000000 0.000000
vn 0.000000 -1.000000 0.000000
vn 0.000000 -1.000000 0.000000
vn 0.000000 -1.000000 0.000000
vn 0.000000 0.000000 -1.000000
vn 0.000000 0.000000 -1.000000
vn 0.000000 0.000000 -1.000000
vn 0.000000 0.000000 -1.000000
vn 0.000000 0.000000 1.000000
vn 0.000000 0.000000 1.000000
vn 0.000000 0.000000 1.000000
vn 0.000000 0.000000 1.000000
vn 0.000000 0.707160 0.707054
vn 0.000000 0.707160 0.707054
vn 0.000000 0.707160 0.707054
vn 0.000000 0.707160 0.707054
vn 0.000000 0.707160 -0.707054
vn 0.000000 0.707160 -0.707054
vn 0.000000 0.707160 -0.707054
vn 0.000000 0.707160 -0.707054
vn 0.000000 1.000000 0.000000
vn 0.000000 1.000000 0.000000
vn 0.000000 1.000000 0.000000
vn 0.000000 1.000000 0.000000
vn 0.000000 -1.000000 0.000000
vn 0.000000 -1.000000 0.000000
vn 0.000000 -1.000000 0.000000
vn 0.000000 -1.000000 0.000000
vn 0.000000 0.000000 -1.000000
vn 0.000000 0.000000 -1.000000
vn 0.000000 0.000000 -1.000000
vn 0.000000 0.000000 -1.000000
vn 0.000000 0.000000 1.000000
vn 0.000000 0.000000 1.000000
vn 0.000000 0.000000 1.000000
vn 0.000000 0.000000 1.000000
vn 0.000000 0.707160 0.707054
vn 0.000000 0.707160 0.707054
vn 0.000000 0.707160 0.707054
vn 0.000000 0.707160 0.707054
vn 0.000000 0.707160 -0.707054
vn 0.000000 0.707160 -0.707054
vn 0.000000 0.707160 -0.707054
vn 0.000000 0.707160 -0.707054
vn 0.000000 1.000000 0.000000
vn 0.000000 1.000000 0.000000
vn 0.000000 1.000000 0.000000
vn 0.000000 1.000000 0.000000
vn 0.000000 -1.000000 0.000000
vn 0.000000 -1.000000 0.000000
vn 0.000000 -1.000000 0.000000
vn 0.000000 -1.000000 0.000000
vn 0.000000 0.000000 -1.000000
vn 0.000000 0.000000 -1.000000
vn 0.000000 0.000000 -1.000000
vn 0.000000 0.000000 -1.000000
vn 0.000000 0.000000 1.000000
vn 0.000000 0.000000 1.000000
vn 0.000000 0.000000 1.000000
vn 0.000000 0.000000 1.000000
vn 0.000000 0.707160 0.707054
vn 0.000000 0.707160 0.707054
vn 0.000000 0.707160 0.707054
vn 0.000000 0.707160 0.707054
vn 0.000000 0.707160 -0.707054
vn 0.000000 0.707160 -0.707054
vn 0.000000 0.707160 -0.707054
vn 0.000000 0.707160 -0.707054
vn 0.000000 1.000000 0.000000
vn 0.000000 1.000000 0.000000
vn 0.000000 1.000000 0.000000
vn 0.000000 1.000000 0.000000
vn 0.000000 -1.000000 0.000000
vn 0.000000 -1.000000 0.000000
vn 0.000000 -1.000000 0.000000
vn 0.000000 -1.000000 0.000000
vn 0.000000 0.000000 -1.000000
vn 0.000000 0.000000 -1.000000
vn 0.000000 0.000000 -1.000000
vn 0.000000 0.000000 -1.000000
vn 0.000000 0.000000 1.000000
vn 0.000000 0.000000 1.000000
vn 0.000000 0.000000 1.000000
vn 0.000000 0.000000 1.000000
vn 0.000000 0.707160 0.707054
vn 0.000000 0.707160 0.707054
vn 0.000000 0.707160 0.707054
vn 0.000000 0.707160 0.707054
vn 0.000000 0.707160 -0.707054
vn 0.000000 0.707160 -0.707054
vn 0.000000 0.707160 -0.707054
vn 0.000000 0.707160 -0.707054
vn 0.000000 1.000000 0.000000
vn 0.000000 1.000000 0.000000
vn 0.000000 1.000000 0.000000
vn 0.000000 1.000000 0.000000
vn 0.000000 -1.000000 0.000000
vn 0.000000 -1.000000 0.000000
vn 0.000000 -1.000000 0.000000
vn 0.000000 -1.000000 0.000000
vn 0.000000 0.000000 -1.000000
vn 0.000000 0.000000 -1.000000
vn 0.000000 0.000000 -1.000000
vn 0.000000 0.000000 -1.000000
vn 0.000000 0.000000 1.000000
vn 0.000000 0.000000 1.000000
vn 0.000000 0.000000 1.000000
vn 0.000000 0.000000 1.000000
vn 0.000000 0.707160 0.707054
vn 0.000000 0.707160 0.707054
vn 0.000000 0.707160 0.707054
vn 0.000000 0.707160 0.707054
vn 0.000000 0.707160 -0.707054
vn 0.000000 0.707160 -0.707054
vn 0.000000 0.707160 -0.707054
vn 0.000000 0.707160 -0.707054
vn 0.000000 1.000000 0.000000
vn 0.000000 1.000000 0.000000
vn 0.000000 1.000000 0.000000
vn 0.000000 1.000000 0.000000
vn 0.000000 -1.000000 0.000000
vn 0.000000 -1.000000 0.000000
vn 0.000000 -1.000000 0.000000
vn 0.000000 -1.000000 0.000000
vn 0.000000 0.000000 -1.000000
vn 0.000000 0.000000 -1.000000
vn 0.000000 0.000000 -1.000000
vn 0.000000 0.000000 -1.000000
vn 0.000000 0.000000 1.000000
vn 0.000000 0.000000 1.000000
vn 0.000000 0.000000 1.000000
vn 0.000000 0.000000 1.000000
vn 0.000000 0.707160 0.707054
vn 0.000000 0.707160 0.707054
vn 0.000000 0.707160 0.707054
vn 0.000000 0.707160 0.707054
vn 0.000000 0.707160 -0.707054
vn 0.000000 0.707160 -0.707054
vn 0.000000 0.707160 -0.707054
vn 0.000000 0.707160 -0.707054
vn 0.000000 1.000000 0.000000
vn 0.000000 1.000000 0.000000
vn 0.000000 1.000000 0.000000
vn 0.000000 1.000000 0.000000
vn 0.000000 -1.000000 0.000000
vn 0.000000 -1.000000 0.000000
vn 0.000000 -1.000000 0.000000
vn 0.000000 -1.000000 0.000000
vn 0.000000 0.000000 -1.000000
vn 0.000000 0.000000 -1.000000
vn 0.000000 0.000000 -1.000000
vn 0.000000 0.000000 -1.000000
vn 0.000000 0.000000 1.000000
vn 0.000000 0.000000 1.000000
vn 0.000000 0.000000 1.000000
vn 0.000000 0.000000 1.000000
vn 0.000000 0.707160 0.707054
vn 0.000000 0.707160 0.707054
vn 0.000000 0.707160 0.707054
vn 0.000000 0.707160 0.707054
vn 0.000000 0.707160 -0.707054
vn 0.000000 0.707160 -0.707054
vn 0.000000 0.707160 -0.707054
vn 0.000000 0.707160 -0.707054
vn -0.004911 -0.999988 0.000000
vn -0.004911 -0.999988 0.000000
vn -0.004911 -0.999988 0.000000
vn -0.004911 -0.999988 0.000000
vn 0.000000 -0.999987 -0.005091
vn 0.000000 -0.999987 -0.005091
vn 0.000000 -0.999987 -0.005091
vn 0.000000 -0.999987 -0.005091
vn 0.004911 -0.999988 0.000000
vn 0.004911 -0.999988 0.000000
vn 0.004911 -0.999988 0.000000
vn 0.004911 -0.999988 0.000000
vn 0.000000 -0.999987 0.005089
vn 0.000000 -0.999987 0.005089
vn 0.000000 -0.999987 0.005089
vn 0.000000 -0.999987 0.005089
vn 0.000000 0.708757 -0.705453
vn 0.000000 0.708757 -0.705453
vn 0.000000 0.708757 -0.705453
vn 0.000000 0.708757 -0.705453
vn -0.705339 0.708870 0.000000
vn -0.705339 0.708870 0.000000
vn -0.705339 0.708870 0.000000
vn -0.705339 0.708870 0.000000
vn 0.000000 0.708876 0.705333
vn 0.000000 0.708876 0.705333
vn 0.000000 0.708876 0.705333
vn 0.000000 0.708876 0.705333
vn 0.705328 0.708881 0.000000
vn 0.705328 0.708881 0.000000
vn 0.705328 0.708881 0.000000
vn 0.705328 0.708881 0.000000
vn -1.000000 0.000000 0.000000
vn -1.000000 0.000000 0.000000
vn -1.000000 0.000000 0.000000
vn -1.000000 0.000000 0.000000
vn 0.000000 0.000000 -1.000000
vn 0.000000 0.000000 -1.000000
vn 0.000000 0.000000 -1.000000
vn 0.000000 0.000000 -1.000000
vn 1.000000 0.000000 0.000000
vn 1.000000 0.000000 0.000000
vn 1.000000 0.000000 0.000000
vn 1.000000 0.000000 0.000000
vn 0.000000 0.000000 1.000000
vn 0.000000 0.000000 1.000000
vn 0.000000 0.000000 1.000000
vn 0.000000 0.000000 1.000000
vn 0.000000 0.705493 0.708717
vn 0.000000 0.705493 0.708717
vn 0.000000 0.705493 0.708717
vn 0.000000 0.705493 0.708717
vn 0.708815 0.705395 0.000000
vn 0.708815 0.705394 0.000000
vn 0.708815 0.705394 0.000000
vn 0.708815 0.705395 0.000000
vn 0.000000 0.705413 -0.708797
vn 0.000000 0.705413 -0.708797
vn 0.000000 0.705413 -0.708797
vn 0.000000 0.705413 -0.708797
vn -0.708815 0.705395 0.000000
vn -0.708815 0.705395 0.000000
vn -0.708815 0.705395 0.000000
vn -0.708815 0.705394 0.000000
vn 1.000000 0.000000 0.000000
vn 1.000000 0.000000 0.000000
vn 1.000000 0.000000 0.000000
vn 1.000000 0.000000 0.000000
vn -1.000000 0.000000 0.000000
vn -1.000000 0.000000 0.000000
vn -1.000000 0.000000 0.000000
vn -1.000000 0.000000 0.000000
vn 0.000000 0.000000 -1.000000
vn 0.000000 0.000000 -1.000000
vn 0.000000 0.000000 -1.000000
vn 0.000000 0.000000 -1.000000
vn 0.000000 0.000000 1.000000
vn 0.000000 0.000000 1.000000
vn 0.000000 0.000000 1.000000
vn 0.000000 0.000000 1.000000
vn 0.002584 0.999994 0.002414
vn 0.002585 0.999994 -0.002413
vn 0.002418 0.999994 -0.002593
vn 0.002418 0.999994 0.002594
vn -0.002585 0.999994 -0.002413
vn -0.002419 0.999994 -0.002593
vn -0.002584 0.999994 0.002415
vn -0.002418 0.999994 0.002594
vn 0.000000 1.000000 0.000000
vn 0.000000 1.000000 0.000000
vn 0.000000 1.000000 0.000000
vn 0.000000 1.000000 0.000000
vn 0.000000 -1.000000 0.000000
vn 0.000000 -1.000000 0.000000
vn 0.000000 -1.000000 0.000000
vn 0.000000 -1.000000 0.000000
vn 0.000000 0.000000 -1.000000
vn 0.000000 0.000000 -1.000000
vn 0.000000 0.000000 -1.000000
vn 0.000000 0.000000 -1.000000
vn 0.000000 0.000000 1.000000
vn 0.000000 0.000000 1.000000
vn 0.000000 0.000000 1.000000
vn 0.000000 0.000000 1.000000
vn 0.000000 0.707160 0.707054
vn 0.000000 0.707160 0.707054
vn 0.000000 0.707160 0.707054
vn 0.000000 0.707160 0.707054
vn 0.000000 0.707160 -0.707054
vn 0.000000 0.707160 -0.707054
vn 0.000000 0.707160 -0.707054
vn 0.000000 0.707160 -0.707054
s off
g grid Hub
usemtl initialShadingGroup
f 8/16/1 5/9/2 10/18/3 11/10/4
f 3/1/5 4/2/6 2/4/7 1/3/8
f 2/11/9 4/12/10 12/13/11 9/14/12
f 3/5/13 1/6/14 6/7/15 7/8/16
f 6/15/17 5/9/18 8/16/19 7/17/20
f 10/18/21 9/19/22 12/20/23 11/10/24
f 20/21/25 17/22/26 22/23/27 23/24/28
f 15/25/29 16/26/30 14/27/31 13/28/32
f 14/29/33 16/30/34 24/31/35 21/32/36
f 15/33/37 13/34/38 18/35/39 19/36/40
f 18/37/41 17/22/42 20/21/43 19/38/44
f 22/23/45 21/39/46 24/40/47 23/24/48
f 32/41/49 29/42/50 34/43/51 35/44/52
f 27/45/53 28/46/54 26/47/55 25/48/56
f 26/49/57 28/50/58 36/51/59 33/52/60
f 27/53/61 25/54/62 30/55/63 31/56/64
f 30/57/65 29/42/66 32/41/67 31/58/68
f 34/43/69 33/59/70 36/60/71 35/44/72
f 44/61/73 41/62/74 46/63/75 47/64/76
f 39/65/77 40/66/78 38/67/79 37/68/80
f 38/69/81 40/70/82 48/71/83 45/72/84
f 39/73/85 37/74/86 42/75/87 43/76/88
f 42/77/89 41/62/90 44/61/91 43/78/92
f 46/63/93 45/79/94 48/80/95 47/64/96
f 56/81/97 53/82/98 58/83/99 59/84/100
f 51/85/101 52/86/102 50/87/103 49/88/104
f 50/89/105 52/90/106 60/91/107 57/92/108
f 51/93/109 49/94/110 54/95/111 55/96/112
f 54/97/113 53/82/114 56/81/115 55/98/116
f 58/83/117 57/99/118 60/100/119 59/84/120
f 68/101/121 65/102/122 70/103/123 71/104/124
f 63/105/125 64/106/126 62/107/127 61/108/128
f 62/109/129 64/110/130 72/111/131 69/112/132
f 63/113/133 61/114/134 66/115/135 67/116/136
f 66/117/137 65/102/138 68/101/139 67/118/140
f 70/103/141 69/119/142 72/120/143 71/104/144
f 80/121/145 77/122/146 82/123/147 83/124/148
f 75/125/149 76/126/150 74/127/151 73/128/152
f 74/129/153 76/130/154 84/131/155 81/132/156
f 75/133/157 73/134/158 78/135/159 79/136/160
f 78/137/161 77/122/162 80/121/163 79/138/164
f 82/123/165 81/139/166 84/140/167 83/124/168
f 92/141/169 89/142/170 94/143/171 95/144/172
f 87/145/173 88/146/174 86/147/175 85/148/176
f 86/149/177 88/150/178 96/151/179 93/152/180
f 87/153/181 85/154/182 90/155/183 91/156/184
f 90/157/185 89/142/186 92/141/187 91/158/188
f 94/143/189 93/159/190 96/160/191 95/144/192
f 104/161/193 101/162/194 106/163/195 107/164/196
f 99/165/197 100/166/198 98/167/199 97/168/200
f 98/169/201 100/170/202 108/171/203 105/172/204
f 99/173/205 97/174/206 102/175/207 103/176/208
f 102/177/209 101/162/210 104/161/211 103/178/212
f 106/163/213 105/179/214 108/180/215 107/164/216
f 111/181/217 112/182/218 114/183/219 113/184/220
f 112/182/221 110/185/222 115/186/223 114/183/224
f 110/185/225 109/187/226 116/188/227 115/186/228
f 109/187/229 111/181/230 113/184/231 116/188/232
f 117/189/233 118/190/234 124/191/235 123/192/236
f 118/190/237 117/189/238 119/193/239 120/194/240
f 120/194/241 119/193/242 121/195/243 122/196/244
f 122/196/245 121/195/246 123/192/247 124/191/248
f 118/190/249 120/194/250 115/186/251 116/188/252
f 124/191/253 118/190/254 116/188/255 113/184/256
f 122/196/257 124/191/258 113/184/259 114/183/260
f 120/194/261 122/196/262 114/183/263 115/186/264
f 125/197/265 126/198/266 130/199/267 129/200/268
f 126/198/269 125/197/270 127/201/271 128/202/272
f 128/203/273 127/201/274 131/204/275 132/205/276
f 129/206/277 130/207/278 132/208/279 131/209/280
f 109/210/281 110/211/282 127/201/283 125/197/284
f 129/206/285 131/209/286 112/182/287 111/181/288
f 110/211/289 112/212/290 131/204/291 127/201/292
f 111/213/293 109/210/294 125/197/295 129/200/296
s 1
f 126/198/297 128/202/298 119/193/299 117/189/300
f 128/202/298 132/208/301 121/195/302 119/193/299
f 132/208/301 130/207/303 123/192/304 121/195/302
f 130/207/303 126/198/297 117/189/300 123/192/304
s off
f 140/214/305 137/215/306 142/216/307 143/217/308
f 135/218/309 136/219/310 134/220/311 133/221/312
f 134/222/313 136/223/314 144/224/315 141/225/316
f 135/226/317 133/227/318 138/228/319 139/229/320
f 138/230/321 137/215/322 140/214/323 139/231/324
f 142/216/325 141/232/326 144/233/327 143/217/328
