# This file uses centimeters as units for non-parametric coordinates.

mtllib hubFloor.mtl
g default
v -13.850329 -0.446012 24.017558
v 13.850329 -0.446012 24.017558
v -13.850329 0.499957 24.017558
v 13.850329 0.499957 24.017558
v -13.850329 0.499957 -24.017558
v 13.850329 0.499957 -24.017558
v -13.850329 -0.446012 -24.017558
v 13.850329 -0.446012 -24.017558
v -23.223042 0.499957 -12.472274
v -23.223042 -0.446012 -12.472274
v 23.223042 -0.446012 -12.472274
v 23.223042 0.499957 -12.472274
v -23.223042 0.499957 12.472277
v -23.223042 -0.446012 12.472277
v 23.223042 -0.446012 12.472277
v 23.223042 0.499957 12.472277
v 28.762153 -0.446012 12.472277
v 28.762153 0.499957 12.472277
v 28.762153 -0.446012 -12.472274
v 28.762153 0.499957 -12.472274
v -29.006707 -0.446012 -12.472274
v -29.006707 -0.446012 12.472277
v -29.006707 0.499957 12.472277
v -29.006707 0.499957 -12.472274
v -13.850329 -0.446012 28.160031
v 13.850329 -0.446012 28.160031
v 13.850329 0.499957 28.160031
v -13.850329 0.499957 28.160031
v -13.850329 0.499957 -28.160031
v 13.850329 0.499957 -28.160031
v 13.850329 -0.446012 -28.160031
v -13.850329 -0.446012 -28.160031
vt 0.375000 0.000000
vt 0.625000 0.000000
vt 0.625000 0.250000
vt 0.375000 0.250000
vt 0.375000 0.250000
vt 0.625000 0.250000
vt 0.625000 0.333333
vt 0.375000 0.333333
vt 0.375000 0.500000
vt 0.625000 0.500000
vt 0.625000 0.750000
vt 0.375000 0.750000
vt 0.375000 0.916667
vt 0.625000 0.916667
vt 0.625000 1.000000
vt 0.375000 1.000000
vt 0.625000 0.000000
vt 0.708333 0.000000
vt 0.708333 0.250000
vt 0.291667 0.000000
vt 0.375000 0.000000
vt 0.291667 0.250000
vt 0.125000 0.000000
vt 0.208333 0.000000
vt 0.208333 0.250000
vt 0.125000 0.250000
vt 0.375000 0.750000
vt 0.625000 0.750000
vt 0.625000 0.833333
vt 0.375000 0.833333
vt 0.791667 0.250000
vt 0.791667 0.000000
vt 0.875000 0.000000
vt 0.875000 0.250000
vt 0.375000 0.416667
vt 0.625000 0.416667
vt 0.625000 0.500000
vt 0.375000 0.500000
vt 0.208333 0.000000
vt 0.291667 0.000000
vt 0.291667 0.250000
vt 0.208333 0.250000
vt 0.708333 0.250000
vt 0.708333 0.000000
vt 0.791667 0.000000
vt 0.791667 0.250000
vn 0.000000 0.000000 1.000000
vn 0.000000 0.000000 1.000000
vn 0.000000 0.000000 1.000000
vn 0.000000 0.000000 1.000000
vn 0.000000 1.000000 0.000000
vn 0.000000 1.000000 0.000000
vn 0.000000 1.000000 0.000000
vn 0.000000 1.000000 0.000000
vn 0.000000 0.000000 -1.000000
vn 0.000000 0.000000 -1.000000
vn 0.000000 0.000000 -1.000000
vn 0.000000 0.000000 -1.000000
vn 0.000000 -1.000000 0.000000
vn 0.000000 -1.000000 0.000000
vn 0.000000 -1.000000 0.000000
vn 0.000000 -1.000000 0.000000
vn 0.776372 0.000000 0.630275
vn 0.776372 0.000000 0.630275
vn 0.776372 0.000000 0.630275
vn 0.776372 0.000000 0.630275
vn -0.776372 0.000000 0.630275
vn -0.776372 0.000000 0.630275
vn -0.776372 0.000000 0.630275
vn -0.776372 0.000000 0.630275
vn -0.776372 0.000000 -0.630275
vn -0.776372 0.000000 -0.630275
vn -0.776372 0.000000 -0.630275
vn -0.776372 0.000000 -0.630275
vn 0.000000 -1.000000 0.000000
vn 0.000000 -1.000000 0.000000
vn 0.000000 -1.000000 0.000000
vn 0.000000 -1.000000 0.000000
vn 0.776372 0.000000 -0.630275
vn 0.776372 0.000000 -0.630275
vn 0.776372 0.000000 -0.630275
vn 0.776372 0.000000 -0.630275
vn 0.000000 1.000000 0.000000
vn 0.000000 1.000000 0.000000
vn 0.000000 1.000000 0.000000
vn 0.000000 1.000000 0.000000
vn -1.000000 0.000000 0.000000
vn -1.000000 0.000000 0.000000
vn -1.000000 0.000000 0.000000
vn -1.000000 0.000000 0.000000
vn 0.000000 -1.000000 0.000000
vn 0.000000 -1.000000 0.000000
vn 0.000000 -1.000000 0.000000
vn 0.000000 -1.000000 0.000000
vn 1.000000 0.000000 0.000000
vn 1.000000 0.000000 0.000000
vn 1.000000 0.000000 0.000000
vn 1.000000 0.000000 0.000000
vn 0.000000 1.000000 0.000000
vn 0.000000 1.000000 0.000000
vn 0.000000 1.000000 0.000000
vn 0.000000 1.000000 0.000000
vn 0.000000 0.000000 1.000000
vn 0.000000 0.000000 1.000000
vn 0.000000 0.000000 1.000000
vn 0.000000 0.000000 1.000000
vn 0.000000 -1.000000 0.000000
vn 0.000000 -1.000000 0.000000
vn 0.000000 -1.000000 0.000000
vn 0.000000 -1.000000 0.000000
vn 0.000000 0.000000 -1.000000
vn 0.000000 0.000000 -1.000000
vn 0.000000 0.000000 -1.000000
vn 0.000000 0.000000 -1.000000
vn 0.000000 1.000000 0.000000
vn 0.000000 1.000000 0.000000
vn 0.000000 1.000000 0.000000
vn 0.000000 1.000000 0.000000
vn 0.000000 -1.000000 0.000000
vn 0.000000 -1.000000 0.000000
vn 0.000000 -1.000000 0.000000
vn 0.000000 -1.000000 0.000000
vn 0.000000 0.000000 1.000000
vn 0.000000 0.000000 1.000000
vn 0.000000 0.000000 1.000000
vn 0.000000 0.000000 1.000000
vn 0.000000 1.000000 0.000000
vn 0.000000 1.000000 0.000000
vn 0.000000 1.000000 0.000000
vn 0.000000 1.000000 0.000000
vn 0.000000 0.000000 -1.000000
vn 0.000000 0.000000 -1.000000
vn 0.000000 0.000000 -1.000000
vn 0.000000 0.000000 -1.000000
vn 0.000000 -1.000000 0.000000
vn 0.000000 -1.000000 0.000000
vn 0.000000 -1.000000 0.000000
vn 0.000000 -1.000000 0.000000
vn 1.000000 0.000000 0.000000
vn 1.000000 0.000000 0.000000
vn 1.000000 0.000000 0.000000
vn 1.000000 0.000000 0.000000
vn 0.000000 1.000000 0.000000
vn 0.000000 1.000000 0.000000
vn 0.000000 1.000000 0.000000
vn 0.000000 1.000000 0.000000
vn -1.000000 0.000000 0.000000
vn -1.000000 0.000000 0.000000
vn -1.000000 0.000000 0.000000
vn -1.000000 0.000000 0.000000
vn 0.000000 1.000000 0.000000
vn 0.000000 1.000000 0.000000
vn 0.000000 1.000000 0.000000
vn 0.000000 1.000000 0.000000
vn 1.000000 0.000000 0.000000
vn 1.000000 0.000000 0.000000
vn 1.000000 0.000000 0.000000
vn 1.000000 0.000000 0.000000
vn 0.000000 -1.000000 0.000000
vn 0.000000 -1.000000 0.000000
vn 0.000000 -1.000000 0.000000
vn 0.000000 -1.000000 0.000000
vn -1.000000 0.000000 0.000000
vn -1.000000 0.000000 0.000000
vn -1.000000 0.000000 0.000000
vn -1.000000 0.000000 0.000000
s off
g hubFloor Hub
usemtl hub:initialShadingGroup
f 25/1/1 26/2/2 27/3/3 28/4/4
f 3/5/5 4/6/6 16/7/7 13/8/8
f 29/9/9 30/10/10 31/11/11 32/12/12
f 14/13/13 15/14/14 2/15/15 1/16/16
f 2/17/17 15/18/18 16/19/19 4/6/20
f 14/20/21 1/21/22 3/5/23 13/22/24
f 7/23/25 10/24/26 9/25/27 5/26/28
f 7/27/29 8/28/30 11/29/31 10/30/32
f 12/31/33 11/32/34 8/33/35 6/34/36
f 9/35/37 12/36/38 6/37/39 5/38/40
f 21/39/41 22/40/42 23/41/43 24/42/44
f 10/30/45 11/29/46 15/14/47 14/13/48
f 18/43/49 17/44/50 19/45/51 20/46/52
f 13/8/53 16/7/54 12/36/55 9/35/56
f 16/19/57 15/18/58 17/44/59 18/43/60
f 15/18/61 11/32/62 19/45/63 17/44/64
f 11/32/65 12/31/66 20/46/67 19/45/68
f 12/31/69 16/19/70 18/43/71 20/46/72
f 10/24/73 14/20/74 22/40/75 21/39/76
f 14/20/77 13/22/78 23/41/79 22/40/80
f 13/22/81 9/25/82 24/42/83 23/41/84
f 9/25/85 10/24/86 21/39/87 24/42/88
f 1/21/89 2/17/90 26/2/91 25/1/92
f 2/17/93 4/6/94 27/3/95 26/2/96
f 4/6/97 3/5/98 28/4/99 27/3/100
f 3/5/101 1/21/102 25/1/103 28/4/104
f 5/38/105 6/37/106 30/10/107 29/9/108
f 6/37/109 8/28/110 31/11/111 30/10/112
f 8/28/113 7/27/114 32/12/115 31/11/116
f 7/27/117 5/38/118 29/9/119 32/12/120
