# This file uses centimeters as units for non-parametric coordinates.

mtllib pc.mtl
g default
v -2.572011 -4.071748 4.211656
v -1.162058 -1.966832 4.211656
v -1.162058 -1.966832 1.030582
v -2.572011 -4.071748 1.030582
v -2.540695 -4.140415 4.211656
v -1.130742 -2.035501 4.211656
v -1.130742 -2.035501 1.030582
v -2.540695 -4.140415 1.030582
v -2.845301 -4.237886 4.274528
v -2.845301 -4.237886 0.967710
v -5.691726 -4.237885 0.967710
v -5.691726 -4.237885 4.274528
v -2.947802 -4.176777 4.155448
v -2.947802 -4.176777 1.086790
v -5.589224 -4.176777 1.086790
v -5.589224 -4.176777 4.155448
v -2.521969 -4.659819 4.400455
v -2.443940 -4.617853 4.399717
v -2.503660 -4.600600 4.462735
v -0.839523 -2.222623 4.401192
v -0.871208 -2.159339 4.462735
v -2.650447 -4.299429 4.462735
v -2.683297 -4.237886 4.401192
v -1.016151 -1.869840 4.462735
v -1.099356 -1.873223 4.396450
v -2.650447 -4.299429 0.779503
v -2.683297 -4.237886 0.841046
v -1.017224 -1.867699 0.779503
v -1.097855 -1.870982 0.843741
v -2.503660 -4.600600 0.779503
v -2.444269 -4.618344 0.841784
v -2.521969 -4.659819 0.841784
v -0.839523 -2.222623 0.841046
v -0.871208 -2.159339 0.779503
v -5.592475 -4.659819 0.842933
v -5.668006 -4.608838 0.779503
v -5.591043 -4.659819 4.397488
v -5.668737 -4.607375 4.462735
v -5.821128 -4.303001 4.462735
v -5.772512 -4.237887 4.399104
v -5.820187 -4.304879 0.779503
v -5.770174 -4.237885 0.844966
vt 0.375000 0.250000
vt 0.625000 0.250000
vt 0.625000 0.500000
vt 0.375000 0.500000
vt 0.375000 0.250000
vt 0.125000 0.250000
vt 0.125000 0.250000
vt 0.375000 0.250000
vt 0.379305 0.995723
vt 0.378458 0.995773
vt 0.379305 0.000000
vt 0.375000 0.254177
vt 0.625000 0.250000
vt 0.625000 0.500000
vt 0.375179 0.537496
vt 0.125000 0.035088
vt 0.129227 0.000000
vt 0.625000 0.712505
vt 0.625000 0.754177
vt 0.129305 0.000000
vt 0.625000 0.037497
vt 0.375179 0.212504
vt 0.625000 0.539708
vt 0.375000 0.713944
vt 0.379254 0.754227
vt 0.625000 0.995823
vt 0.375000 0.031073
vt 0.125000 0.210306
vt 0.370571 0.000000
vt 0.375000 0.035089
vt 0.375000 0.211419
vt 0.125000 0.213398
vt 0.125000 0.030207
vt 0.621595 0.250000
vt 0.375000 0.250000
vt 0.622150 0.500000
vt 0.625000 0.250000
vt 0.625000 0.500000
vt 0.375000 0.495823
vt 0.375000 0.500000
vt 0.129177 0.250000
vt 0.375000 0.250000
vt 0.125000 0.250000
vt 0.125000 0.250000
vt 0.375000 0.250000
vt 0.125000 0.250000
vt 0.370823 0.250000
vt 0.375000 0.250000
vt 0.629177 -0.000000
vt 0.870823 -0.000000
vt 0.875000 0.037497
vt 0.875000 0.210298
vt 0.625000 0.209029
vt 0.370772 0.000000
vt 0.386013 0.750000
vt 0.378458 0.754227
vn -0.830832 0.556523 0.000000
vn -0.830832 0.556523 0.000000
vn -0.830832 0.556523 0.000000
vn -0.830832 0.556523 0.000000
vn 0.000000 1.000000 0.000000
vn 0.000000 1.000000 0.000000
vn 0.000000 1.000000 0.000000
vn 0.000000 1.000000 0.000000
vn 0.000000 0.000000 -1.000000
vn 0.000000 0.000000 -1.000000
vn 0.000000 0.000000 -1.000000
vn 0.000000 0.000000 -1.000000
vn -0.909853 -0.414931 0.000000
vn -0.909853 -0.414931 0.000000
vn -0.909853 -0.414931 0.000000
vn -0.909853 -0.414931 0.000000
vn -0.000000 -0.000000 1.000000
vn -0.000000 -0.000000 1.000000
vn -0.000000 -0.000000 1.000000
vn -0.000000 -0.000000 1.000000
vn 0.909851 0.414936 0.000000
vn 0.909851 0.414936 0.000000
vn 0.909851 0.414936 0.000000
vn 0.909851 0.414936 0.000000
vn 0.512082 0.858936 0.000000
vn 0.512082 0.858936 0.000000
vn 0.512082 0.858936 0.000000
vn 0.512082 0.858936 0.000000
vn 0.000000 0.999845 -0.017583
vn -0.000003 0.990398 -0.138244
vn 0.000000 0.889690 -0.456566
vn 0.000000 0.889690 -0.456566
vn -0.512076 0.858940 0.000000
vn -0.512076 0.858940 0.000000
vn -0.512076 0.858940 0.000000
vn -0.512076 0.858940 0.000000
vn -0.000004 0.990472 0.137712
vn -0.000000 0.999847 0.017518
vn 0.000000 0.889690 0.456566
vn 0.000000 0.889690 0.456566
vn 0.015059 -0.753281 0.657526
vn 0.311490 -0.618077 0.721772
vn 0.000504 -0.752236 0.658893
vn 0.000504 -0.752236 0.658893
vn 0.822924 -0.568152 0.000001
vn 0.013195 -0.999913 0.000001
vn 0.013260 -0.999912 0.000001
vn 0.822954 -0.568108 0.000001
vn 0.588346 -0.417863 0.692271
vn 0.596579 -0.399478 0.696068
vn 0.596579 -0.399478 0.696068
vn -0.000638 0.702968 0.711222
vn -0.000638 0.702968 0.711222
vn -0.000638 0.702968 0.711222
vn -0.000638 0.702968 0.711222
vn -0.584636 0.393150 0.709672
vn -0.584636 0.393150 0.709672
vn -0.584636 0.393150 0.709672
vn -0.584636 0.393150 0.709672
vn -0.040659 0.999173 0.000603
vn -0.040659 0.999173 0.000603
vn -0.040659 0.999173 0.000603
vn -0.040659 0.999173 0.000603
vn -0.584933 0.392740 -0.709654
vn -0.584933 0.392740 -0.709654
vn -0.584933 0.392740 -0.709654
vn -0.584933 0.392740 -0.709654
vn -0.001058 0.702926 -0.711262
vn -0.001058 0.702926 -0.711262
vn -0.001058 0.702926 -0.711262
vn -0.001058 0.702926 -0.711262
vn 0.312678 -0.615891 -0.723126
vn 0.015443 -0.752812 -0.658054
vn 0.000871 -0.751774 -0.659420
vn 0.000871 -0.751774 -0.659420
vn 0.586487 -0.416660 -0.694570
vn 0.594912 -0.398256 -0.698192
vn 0.594912 -0.398256 -0.698192
vn -0.844671 -0.535286 0.000046
vn -0.559459 -0.828858 0.000222
vn -0.559459 -0.828858 0.000222
vn -0.845070 -0.534656 0.000045
vn -0.801310 0.598249 -0.000518
vn -0.801310 0.598249 -0.000518
vn -0.801310 0.598249 -0.000518
vn -0.801310 0.598249 -0.000518
vn -0.000000 -0.000000 1.000000
vn -0.000000 -0.000000 1.000000
vn -0.000000 -0.000000 1.000000
vn -0.000000 -0.000000 1.000000
vn -0.000000 -0.000000 -1.000000
vn -0.000000 -0.000000 -1.000000
vn -0.000000 -0.000000 -1.000000
vn -0.000000 -0.000000 -1.000000
vn 0.830832 -0.556523 0.000000
vn 0.830832 -0.556523 0.000000
vn -0.894189 -0.447690 0.000000
vn -0.894189 -0.447690 0.000000
vn -0.000000 -1.000000 0.000000
vn -0.000000 -1.000000 0.000000
vn 0.000000 0.000000 1.000000
vn 0.000000 0.000000 1.000000
vn 0.000000 0.000000 -1.000000
vn 0.000000 0.000000 -1.000000
vn -0.830830 0.556527 -0.000000
vn -0.830832 0.556523 -0.000001
vn -0.830832 0.556523 -0.000002
vn -0.830831 0.556525 -0.000002
vn -0.830832 0.556523 0.000000
vn -0.830832 0.556523 0.000001
vn -0.830830 0.556527 0.000000
vn -0.830831 0.556525 0.000001
vn -0.000000 1.000000 0.000001
vn -0.000000 1.000000 -0.000000
vn -0.000010 1.000000 0.000000
vn -0.000010 1.000000 0.000003
vn 0.894187 0.447693 -0.000000
vn 0.894187 0.447693 -0.000000
vn 0.894187 0.447693 -0.000000
vn 0.894187 0.447693 -0.000000
vn 0.894187 0.447693 -0.000000
vn 0.894187 0.447693 -0.000000
s off
g pc timeMachine Hub
usemtl initialShadingGroup
f 5/1/1 6/2/2 7/3/3 8/4/4
f 13/5/5 14/6/6 15/7/7 16/8/8
f 1/35/9 2/37/10 6/2/11 5/1/12
f 2/37/13 3/38/14 7/3/15 6/2/16
f 3/38/17 4/40/18 8/4/19 7/3/20
f 4/40/21 1/35/22 5/1/23 8/4/24
f 9/42/25 10/44/26 14/6/27 13/5/28
s 1
f 10/44/29 11/46/30 15/7/31 14/6/32
s off
f 11/46/33 12/48/34 16/8/35 15/7/36
s 1
f 12/48/37 9/42/38 13/5/39 16/8/40
s 3
f 17/54/41 19/30/42 38/27/43 37/29/44
s 4
f 18/9/45 17/10/46 32/56/47 31/25/48
s 3
f 19/30/42 18/11/49 20/49/50 21/21/51
s off
f 22/22/52 23/12/53 40/45/54 39/31/55
f 23/12/56 22/22/57 24/53/58 25/34/59
f 25/34/60 24/13/61 28/14/62 29/36/63
f 26/15/64 27/39/65 29/36/66 28/23/67
f 27/41/68 26/32/69 41/28/70 42/43/71
s 5
f 30/16/72 32/17/73 35/20/74 36/33/75
f 31/25/76 30/24/72 34/18/77 33/19/78
s 6
f 36/33/79 35/20/80 37/29/81 38/27/82
s off
f 39/31/83 40/45/84 42/43/85 41/28/86
s 7
f 19/30/87 21/21/88 24/53/89 22/22/90
s 8
f 26/15/91 28/23/92 34/18/93 30/24/94
s 4
f 31/25/48 33/19/95 20/26/96 18/9/45
s 6
f 36/33/79 38/27/82 39/31/97 41/28/98
s 4
f 32/17/47 17/54/46 37/29/99 35/20/100
s 7
f 19/30/87 22/22/90 39/31/101 38/27/102
s 8
f 26/32/91 30/16/94 36/33/103 41/28/104
s 9
f 23/12/105 25/34/106 2/37/107 1/35/108
f 25/34/106 29/36/109 3/38/110 2/37/107
f 29/36/109 27/39/111 4/40/112 3/38/110
f 27/39/111 23/12/105 1/35/108 4/40/112
s 1
f 23/47/113 27/41/114 10/44/29 9/42/38
f 27/41/114 42/43/115 11/46/30 10/44/29
f 42/43/115 40/45/116 12/48/37 11/46/30
f 40/45/116 23/47/113 9/42/38 12/48/37
s off
f 21/21/117 20/49/118 33/50/119 34/51/120 28/52/121 24/53/122
s 3
f 17/54/41 18/11/49 19/30/42
s 5
f 30/55/72 31/25/76 32/56/73
